# Blender v2.72 (sub 0) OBJ File: 'construction Barrier.blend'
# www.blender.org
o Cube
v 0.378408 0.143415 -2.403286
v 0.313295 0.116989 -2.403286
v 0.130120 0.755198 -2.403285
v 0.065006 0.728772 -2.403286
v -1.044986 -1.492151 -2.403285
v -0.138307 0.807665 -2.403285
v -1.044986 -1.492151 -2.511596
v -0.138307 0.807665 -2.511596
v -0.944919 -1.533600 -2.403285
v -0.038240 0.766216 -2.403285
v -0.944919 -1.533600 -2.511596
v -0.038240 0.766216 -2.511596
v 1.038777 -1.492151 -2.511596
v 0.132098 0.807665 -2.511596
v 1.038777 -1.492151 -2.403285
v 0.132098 0.807665 -2.403285
v 0.938711 -1.533600 -2.511596
v 0.032032 0.766216 -2.511596
v 0.938711 -1.533600 -2.403285
v 0.032032 0.766216 -2.403285
v 0.032032 0.807665 -2.511596
v 0.032032 0.807665 -2.403285
v -0.038240 0.807665 -2.403285
v -0.038240 0.807665 -2.511596
v 0.536308 -0.217307 -2.403286
v 0.471565 -0.244629 -2.403286
v 0.437576 0.016649 -2.403285
v 0.372833 -0.010673 -2.403286
v -0.313746 0.120357 -2.403286
v -0.378888 0.146714 -2.403286
v -0.066105 0.732401 -2.403285
v -0.131247 0.758759 -2.403286
v -0.451504 -0.248527 -2.403286
v -0.517004 -0.223071 -2.403286
v -0.359517 -0.011838 -2.403285
v -0.425016 0.013618 -2.403286
v 0.378408 0.143415 2.403286
v 0.313295 0.116989 2.403286
v 0.130120 0.755198 2.403285
v 0.065006 0.728772 2.403286
v -1.044986 -1.492151 2.403285
v -0.138307 0.807665 2.403285
v -1.044986 -1.492151 2.511596
v -0.138307 0.807665 2.511596
v -0.944919 -1.533600 2.403285
v -0.038240 0.766216 2.403285
v -0.944919 -1.533600 2.511596
v -0.038240 0.766216 2.511596
v 1.038777 -1.492151 2.511596
v 0.132098 0.807665 2.511596
v 1.038777 -1.492151 2.403285
v 0.132098 0.807665 2.403285
v 0.938711 -1.533600 2.511596
v 0.032032 0.766216 2.511596
v 0.938711 -1.533600 2.403285
v 0.032032 0.766216 2.403285
v 0.032032 0.807665 2.511596
v 0.032032 0.807665 2.403285
v -0.038240 0.807665 2.403285
v -0.038240 0.807665 2.511596
v 0.536308 -0.217307 2.403286
v 0.471565 -0.244629 2.403286
v 0.437576 0.016649 2.403285
v 0.372833 -0.010673 2.403286
v -0.313746 0.120357 2.403286
v -0.378888 0.146714 2.403286
v -0.066105 0.732401 2.403285
v -0.131247 0.758759 2.403286
v -0.451504 -0.248527 2.403286
v -0.517004 -0.223071 2.403286
v -0.359517 -0.011838 2.403285
v -0.425016 0.013618 2.403286
vt 0.749980 0.000000
vt 0.749981 0.999248
vt 0.499963 0.999248
vt 0.499962 1.000000
vt 0.249981 0.999248
vt 0.249981 0.000000
vt 0.999999 0.000000
vt 1.000000 0.999248
vt 0.000000 1.000000
vt 0.000000 0.000752
vt 0.134609 0.564395
vt 0.134609 0.590505
vt 0.118888 0.590505
vt 0.098346 0.590505
vt 0.098346 0.564395
vt 0.118888 0.564395
vt 0.000001 0.000000
vt 0.249982 0.000752
vt 0.249981 1.000000
vt 0.499963 0.000000
vt 0.074116 0.590505
vt 0.396515 0.853342
vt 0.396515 0.747698
vt 0.504710 0.747698
vt 0.605987 0.328358
vt 0.506028 0.372117
vt 0.506028 0.328358
vt 0.435831 0.328358
vt 0.396515 0.673510
vt 0.504710 0.673510
vt 0.504710 0.567867
vt 0.435831 0.372117
vt 0.335872 0.328358
vt 0.435123 0.230948
vt 0.335163 0.187189
vt 0.435123 0.187189
vt 0.605278 0.187189
vt 0.505319 0.230948
vt 0.505319 0.187189
vt 0.000000 0.999248
vt 0.074116 0.564395
vt 0.049410 0.605457
vt 0.074116 0.605457
vt 0.074116 0.629580
vt 0.206808 0.000000
vt 0.229633 0.000000
vt 0.229633 0.009992
vt 0.245662 0.000000
vt 0.049410 0.588517
vt 0.074116 0.588517
vt 0.049410 0.564395
vt 0.245662 0.009992
vt 0.268486 0.000000
vt 0.720956 0.009992
vt 0.720956 0.000000
vt 0.743781 0.000000
vt 0.682103 0.000000
vt 0.704928 0.000000
vt 0.704928 0.009992
vt 0.499962 0.000752
vt 0.504710 0.853342
vt 0.396515 0.567867
vt 0.049410 0.629580
vt 0.000000 0.722225
vt 0.274727 0.045890
vt 0.000000 0.045890
vt 0.003402 0.008324
vt 0.046735 0.008324
vt 0.046735 0.051657
vt 0.038640 -0.005728
vt 0.038640 0.036179
vt -0.003267 0.036179
vt 1.000000 0.277774
vt 1.000000 0.722225
vt 0.006115 0.053866
vt 0.006115 -0.003728
vt 0.063709 -0.003728
vt 1.000000 0.999998
vt 0.064384 0.005440
vt 0.064384 0.059462
vt 0.010362 0.059462
vt 0.972765 0.005544
vt 0.972765 0.272230
vt 0.000000 0.277774
vt 0.274727 0.000000
vt 0.992421 0.277775
vt 0.992421 1.000000
vt 0.003403 0.051657
vt -0.003267 -0.005728
vt 0.063709 0.053866
vt 0.010362 0.005440
vn -0.450300 0.661500 -0.599700
vn -0.751000 -0.318600 -0.578200
vn -0.751000 -0.318600 0.578200
vn 0.289100 -0.424700 -0.857900
vn 0.319200 -0.752200 -0.576400
vn 0.289100 -0.424700 0.857900
vn 0.319200 -0.752200 0.576400
vn -0.450300 0.661500 0.599700
vn -0.289100 -0.424700 -0.857900
vn -0.289100 -0.424700 0.857900
vn 0.450300 0.661500 0.599700
vn 0.751000 -0.318600 0.578200
vn 0.751000 -0.318600 -0.578200
vn -0.319200 -0.752200 0.576400
vn -0.319200 -0.752200 -0.576400
vn 0.450300 0.661500 -0.599700
vn 0.000000 0.707100 -0.707100
vn 0.000000 0.707100 0.707100
vn 0.752100 -0.317900 -0.577300
vn 0.317900 0.752100 -0.577300
vn 0.317900 0.752100 0.577300
vn -0.317900 -0.752100 -0.577300
vn -0.752100 0.317900 -0.577300
vn -0.752100 0.317900 0.577300
vn -0.317900 -0.752100 0.577300
vn -0.307400 -0.756400 -0.577300
vn -0.307400 -0.756400 0.577300
vn -0.756400 0.307400 0.577300
vn 0.756400 -0.307400 -0.577300
vn 0.307400 0.756400 -0.577300
vn 0.307400 0.756400 0.577300
vn -0.756400 0.307400 -0.577300
vn 0.318600 -0.751700 -0.577300
vn 0.751700 0.318600 -0.577300
vn 0.751700 0.318600 0.577300
vn -0.751700 -0.318600 -0.577300
vn -0.318600 0.751700 -0.577300
vn -0.318600 0.751700 0.577300
vn -0.751700 -0.318600 0.577300
vn -0.747300 -0.329000 0.577300
vn -0.329000 0.747300 0.577300
vn -0.329000 0.747300 -0.577300
vn 0.329000 -0.747300 -0.577300
vn 0.747300 0.329000 -0.577300
vn 0.747300 0.329000 0.577300
vn -0.747300 -0.329000 -0.577300
vn 0.756400 -0.307400 0.577300
vn 0.318600 -0.751700 0.577300
vn 0.329000 -0.747300 0.577300
vn 0.752100 -0.317900 0.577300
s 1
f 8/1/1 7/2/2 5/3/3
f 8/4/1 12/5/4 11/6/5
f 10/7/6 9/8/7 11/2/5
f 6/9/8 5/10/3 9/6/7
f 18/11/9 20/12/10 10/13/6
f 11/14/5 9/15/7 5/16/3
f 16/2/11 15/1/12 13/7/13
f 16/17/11 20/18/10 19/19/14
f 18/1/9 17/2/15 19/3/14
f 14/20/16 13/3/13 17/19/15
f 19/15/14 17/14/15 13/21/13
f 14/22/16 21/23/17 22/24/18
f 14/25/16 18/26/9 21/27/17
f 24/28/17 21/27/17 18/26/9
f 24/29/17 23/30/18 22/24/18
f 6/31/8 23/30/18 24/29/17
f 12/32/4 8/33/1 24/28/17
f 20/34/10 16/35/11 22/36/18
f 6/37/8 10/38/6 23/39/18
f 20/34/10 22/36/18 23/39/18
f 41/2/2 43/3/3 44/20/8
f 44/19/8 43/18/3 47/20/7
f 47/1/7 45/7/5 46/8/4
f 45/19/5 41/40/2 42/17/1
f 46/16/4 56/11/9 54/12/10
f 41/15/2 45/16/5 47/13/7
f 49/1/12 51/7/13 52/8/16
f 52/20/16 51/3/13 55/19/15
f 55/2/15 53/3/14 54/20/10
f 53/19/14 49/40/12 50/17/11
f 49/41/12 53/15/14 55/14/15
f 58/42/17 57/43/18 50/44/11
f 50/45/11 57/46/18 54/47/10
f 54/47/10 57/46/18 60/48/18
f 58/42/17 59/49/17 60/50/18
f 60/50/18 59/49/17 42/51/1
f 48/52/6 60/48/18 44/53/8
f 56/54/9 58/55/17 52/56/16
f 42/57/1 59/58/17 46/59/4
f 59/58/17 58/55/17 56/54/9
f 6/20/8 8/1/1 5/3/3
f 7/60/2 8/4/1 11/6/5
f 12/1/4 10/7/6 11/2/5
f 10/5/6 6/9/8 9/6/7
f 12/16/4 18/11/9 10/13/6
f 7/13/2 11/14/5 5/16/3
f 14/8/16 16/2/11 13/7/13
f 15/40/12 16/17/11 19/19/14
f 20/20/10 18/1/9 19/3/14
f 18/18/9 14/20/16 17/19/15
f 15/41/12 19/15/14 13/21/13
f 16/61/11 14/22/16 22/24/18
f 12/32/4 24/28/17 18/26/9
f 21/23/17 24/29/17 22/24/18
f 8/62/1 6/31/8 24/29/17
f 10/38/6 20/34/10 23/39/18
f 42/1/1 41/2/2 44/20/8
f 48/3/6 44/19/8 47/20/7
f 48/2/6 47/1/7 46/8/4
f 46/18/4 45/19/5 42/17/1
f 48/13/6 46/16/4 54/12/10
f 43/14/3 41/15/2 47/13/7
f 50/2/11 49/1/12 52/8/16
f 56/18/9 52/20/16 55/19/15
f 56/1/9 55/2/15 54/20/10
f 54/18/10 53/19/14 50/17/11
f 51/21/13 49/41/12 55/14/15
f 52/63/16 58/42/17 50/44/11
f 48/52/6 54/47/10 60/48/18
f 57/43/18 58/42/17 60/50/18
f 44/41/8 60/50/18 42/51/1
f 46/59/4 59/58/17 56/54/9
f 1/64/19 3/17/20 39/7/21
f 3/65/20 1/66/19 2/17/22
f 3/67/20 4/68/23 40/69/24
f 38/70/25 2/71/22 1/72/19
f 26/17/26 62/7/27 64/73/28
f 25/9/29 27/64/30 63/74/31
f 25/17/29 26/17/26 28/17/32
f 27/17/30 28/17/32 64/17/28
f 62/75/27 26/76/26 25/77/29
f 29/73/33 31/78/34 67/9/35
f 31/17/34 29/17/33 30/17/36
f 31/79/34 32/80/37 68/81/38
f 66/17/39 30/17/36 29/17/33
f 70/82/40 72/83/41 36/84/42
f 33/7/43 35/73/44 71/84/45
f 33/17/43 34/17/46 36/17/42
f 35/17/44 36/17/42 72/17/41
f 70/17/40 34/17/46 33/17/43
f 2/84/22 38/73/25 40/78/24
f 39/65/21 40/85/24 38/17/25
f 64/17/28 62/17/27 61/17/47
f 68/17/38 66/17/39 65/17/48
f 72/17/41 70/17/40 69/17/49
f 30/84/36 66/86/39 68/87/38
f 37/74/50 1/64/19 39/7/21
f 4/85/23 3/65/20 2/17/22
f 39/88/21 3/67/20 40/69/24
f 37/89/50 38/70/25 1/72/19
f 28/84/32 26/17/26 64/73/28
f 61/78/47 25/9/29 63/74/31
f 27/17/30 25/17/29 28/17/32
f 63/17/31 27/17/30 64/17/28
f 61/90/47 62/75/27 25/77/29
f 65/84/48 29/73/33 67/9/35
f 32/17/37 31/17/34 30/17/36
f 67/91/35 31/79/34 68/81/38
f 65/17/48 66/17/39 29/17/33
f 34/17/46 70/82/40 36/84/42
f 69/17/49 33/7/43 71/84/45
f 35/17/44 33/17/43 36/17/42
f 71/17/45 35/17/44 72/17/41
f 69/17/49 70/17/40 33/17/43
f 4/9/23 2/84/22 40/78/24
f 37/66/50 39/65/21 38/17/25
f 63/17/31 64/17/28 61/17/47
f 67/17/35 68/17/38 65/17/48
f 71/17/45 72/17/41 69/17/49
f 32/9/37 30/84/36 68/87/38
