# Blender v2.77 (sub 0) OBJ File: 'basketball2.blend'
# www.blender.org
v -0.348689 0.000000 -0.000000
v -0.331623 -0.107751 -0.000000
v -0.087172 0.331623 -0.063334
v -0.165811 0.282095 -0.120469
v -0.228220 0.204954 -0.165811
v -0.268288 0.107751 -0.194923
v -0.282095 0.000000 -0.204954
v -0.268288 -0.107751 -0.194923
v -0.228220 -0.204954 -0.165811
v -0.165811 -0.282095 -0.120469
v -0.087172 -0.331623 -0.063334
v -0.033297 0.331623 -0.102477
v -0.063334 0.282095 -0.194923
v -0.087172 0.204954 -0.268288
v -0.102477 0.107751 -0.315392
v -0.107751 0.000000 -0.331623
v -0.102477 -0.107751 -0.315392
v -0.087172 -0.204954 -0.268288
v -0.063334 -0.282095 -0.194923
v -0.033297 -0.331623 -0.102477
v 0.348689 0.000000 -0.000000
v 0.331623 -0.107751 -0.000000
v 0.087172 0.331623 -0.063334
v 0.165811 0.282095 -0.120469
v 0.228220 0.204954 -0.165811
v 0.268288 0.107751 -0.194923
v 0.282095 0.000000 -0.204954
v 0.268288 -0.107751 -0.194923
v 0.228220 -0.204954 -0.165811
v 0.165811 -0.282095 -0.120469
v 0.087172 -0.331623 -0.063334
v 0.033297 0.331623 -0.102477
v 0.063334 0.282095 -0.194923
v 0.087172 0.204954 -0.268288
v 0.102477 0.107751 -0.315392
v 0.107751 0.000000 -0.331623
v 0.102477 -0.107751 -0.315392
v 0.087172 -0.204954 -0.268288
v 0.063334 -0.282095 -0.194923
v 0.033297 -0.331623 -0.102477
v 0.033297 0.331623 0.102477
v 0.063334 0.282095 0.194923
v 0.087172 0.204954 0.268288
v 0.102477 0.107751 0.315392
v 0.107751 0.000000 0.331623
v 0.102477 -0.107751 0.315392
v 0.000000 -0.348689 -0.000000
v 0.087172 -0.204954 0.268288
v 0.063334 -0.282095 0.194923
v 0.033297 -0.331623 0.102477
v 0.087172 0.331623 0.063334
v 0.165811 0.282095 0.120469
v 0.228220 0.204954 0.165811
v 0.268288 0.107751 0.194923
v 0.282095 0.000000 0.204954
v 0.268288 -0.107751 0.194923
v 0.228220 -0.204954 0.165811
v 0.165811 -0.282095 0.120469
v 0.087172 -0.331623 0.063334
v 0.107751 0.331623 -0.000000
v 0.204954 0.282095 -0.000000
v 0.282095 0.204954 -0.000000
v 0.331623 0.107751 -0.000000
v 0.282095 -0.204954 -0.000000
v -0.033297 0.331623 0.102477
v -0.063334 0.282095 0.194923
v -0.087172 0.204954 0.268288
v -0.102477 0.107751 0.315392
v -0.107751 0.000000 0.331623
v -0.102477 -0.107751 0.315392
v -0.087172 -0.204954 0.268288
v -0.063334 -0.282095 0.194923
v -0.033297 -0.331623 0.102477
v 0.000000 0.348689 0.000000
v -0.087172 0.331623 0.063334
v -0.165811 0.282095 0.120469
v -0.228220 0.204954 0.165811
v -0.268288 0.107751 0.194923
v -0.282095 0.000000 0.204954
v -0.268288 -0.107751 0.194923
v -0.228220 -0.204954 0.165811
v -0.165811 -0.282095 0.120469
v -0.087172 -0.331623 0.063334
v -0.107751 0.331623 -0.000000
v -0.204954 0.282095 -0.000000
v -0.282095 0.204954 -0.000000
v -0.331623 0.107751 -0.000000
v -0.282095 -0.204954 -0.000000
v -0.204954 -0.282095 -0.000000
v -0.107751 -0.331623 -0.000000
v 0.000000 -0.331623 -0.102477
v 0.000000 -0.282095 -0.194923
v 0.000000 -0.204954 -0.268288
v 0.000000 -0.107751 -0.315392
v 0.000000 0.000000 -0.331623
v 0.000000 0.107751 -0.315392
v 0.000000 0.204954 -0.268288
v 0.000000 0.282095 -0.194923
v 0.000000 0.331623 -0.102477
v 0.000000 -0.331623 0.102477
v 0.000000 -0.282095 0.194923
v 0.000000 -0.204954 0.268288
v 0.000000 -0.107751 0.315392
v 0.000000 0.000000 0.331623
v 0.000000 0.107751 0.315392
v 0.000000 0.204954 0.268288
v 0.000000 0.282095 0.194923
v 0.000000 0.331623 0.102477
v 0.204954 -0.282095 -0.000000
v 0.107751 -0.331623 -0.000000
vt 0.1407 0.3315
vt 0.2092 0.2098
vt 0.2161 0.3255
vt 0.9387 0.5493
vt 0.9518 0.4533
vt 0.9720 0.5192
vt 0.2814 0.2027
vt 0.3470 0.1012
vt 0.3427 0.1891
vt 0.2872 0.0817
vt 0.1334 0.2098
vt 0.2161 0.0675
vt 0.0613 0.2026
vt 0.1407 0.0602
vt 0.0059 0.0680
vt 0.0682 0.0603
vt 0.3865 0.7089
vt 0.4377 0.8252
vt 0.3470 0.7517
vt 0.4401 0.6641
vt 0.4524 0.7623
vt 0.7623 0.1417
vt 0.7080 0.2536
vt 0.6606 0.2073
vt 0.1198 0.5928
vt 0.0607 0.4670
vt 0.1324 0.4776
vt 0.1949 0.6024
vt 0.2081 0.4813
vt 0.2804 0.4776
vt 0.3317 0.5650
vt 0.3423 0.4670
vt 0.2037 0.7634
vt 0.2203 0.6397
vt 0.2563 0.6936
vt 0.2707 0.7909
vt 0.2983 0.7542
vt 0.4529 0.3396
vt 0.5897 0.2895
vt 0.5736 0.3502
vt 0.6362 0.6817
vt 0.5492 0.6709
vt 0.6109 0.6446
vt 0.9653 0.6826
vt 0.9249 0.7726
vt 0.8885 0.7167
vt 0.4607 0.1295
vt 0.3809 0.0397
vt 0.4776 0.0590
vt 0.6794 0.7703
vt 0.5689 0.7951
vt 0.5973 0.7417
vt 0.6794 0.6968
vt 0.9036 0.8118
vt 0.8480 0.7913
vt 0.5983 0.0696
vt 0.4994 0.0000
vt 0.5871 0.0077
vt 0.6026 0.1419
vt 0.4504 0.2046
vt 0.5997 0.2177
vt 0.7467 0.3447
vt 0.6756 0.3333
vt 0.0000 0.3624
vt 0.0607 0.3458
vt 0.1324 0.3351
vt 0.2081 0.3315
vt 0.3423 0.3458
vt 0.2804 0.3351
vt 0.3400 0.6665
vt 0.3356 0.6024
vt 0.3423 0.7400
vt 0.8637 0.5273
vt 0.7567 0.6211
vt 0.7434 0.5466
vt 0.7738 0.4082
vt 0.8637 0.4549
vt 0.7492 0.4732
vt 0.8419 0.7866
vt 0.8196 0.7222
vt 0.8419 0.7256
vt 0.8480 0.8333
vt 0.7994 0.7803
vt 0.8995 0.0682
vt 0.8748 0.0083
vt 0.9241 0.0072
vt 0.8865 0.1400
vt 0.8415 0.0694
vt 0.8285 0.2169
vt 0.8256 0.1412
vt 0.8865 0.2157
vt 0.8502 0.2889
vt 0.8995 0.2879
vt 0.8883 0.3502
vt 0.2190 0.8157
vt 0.1942 0.8707
vt 0.1756 0.8197
vt 0.7868 0.6900
vt 0.7895 0.8246
vt 0.7371 0.7191
vt 0.6598 0.6116
vt 0.7434 0.4857
vt 0.7101 0.5837
vt 0.6379 0.5000
vt 0.6989 0.4963
vt 0.5273 0.6116
vt 0.5968 0.6211
vt 0.4914 0.4857
vt 0.5664 0.4963
vt 0.4581 0.5837
vt 0.4201 0.4691
vt 0.3470 0.4857
vt 0.3960 0.5403
vt 0.7784 0.6445
vt 0.7037 0.7403
vt 0.7211 0.6325
vt 0.5664 0.3539
vt 0.4201 0.3811
vt 0.4914 0.3645
vt 0.3597 0.4482
vt 1.0000 0.5890
vt 0.9297 0.5941
vt 0.8883 0.5107
vt 0.3470 0.2606
vt 0.2872 0.3011
vt 0.1196 0.6738
vt 0.0003 0.6261
vt 0.1260 0.6024
vt 0.1196 0.7495
vt 0.0000 0.6963
vt 0.1260 0.8224
vt 0.0179 0.7687
vt 0.4299 0.6211
vt 0.3670 0.6271
vt 0.5026 0.6219
vt 0.4748 0.6922
vt 0.9945 0.5171
vt 0.5026 0.6978
vt 0.8662 0.6681
vt 0.4478 0.2770
vt 0.2190 0.9341
vt 0.2171 0.8686
vt 0.8480 0.6560
vt 0.1587 0.9004
vt 0.6989 0.3539
vt 0.7434 0.3645
vt 0.6379 0.3502
vt 0.1470 0.9440
vt 0.4977 0.6935
vt 0.4960 0.7647
vt 0.4977 0.8284
vt 0.5026 0.8786
vt 0.4321 0.8748
vt 0.1502 0.0000
vt 0.2252 0.0103
vt 0.2950 0.0330
vt 1.0000 0.3925
vt 0.9945 0.4494
vt 0.7820 0.2060
vt 0.7638 0.3028
vt 0.5512 0.6280
vt 0.6120 0.6220
vt 0.8536 0.8345
vt 0.9066 0.8345
vt 0.6476 0.0686
vt 0.6229 0.0070
vt 0.6606 0.1407
vt 0.6606 0.2164
vt 0.6476 0.2883
vt 0.6229 0.3492
vt 0.3423 0.8157
vt 0.1470 0.7949
vt 0.1479 0.7358
vt 0.8162 0.0935
vt 0.7457 0.0914
vt 0.8256 0.2073
vt 0.8026 0.2778
vt 0.6818 0.6211
vt 0.9719 0.8302
vt 0.5054 0.6387
vt 0.8223 0.3502
vt 0.9487 0.0072
vt 0.9851 0.0805
vt 0.9271 0.0792
vt 0.2703 0.8135
vt 0.9851 0.1562
vt 0.9241 0.1549
vt 0.9653 0.7547
vt 0.8256 0.2785
vt 0.8223 0.1435
vt 0.9401 0.2268
vt 0.2030 0.8064
vt 0.0000 0.1890
vt 0.0500 0.5650
vt 0.2679 0.5928
vt 0.3470 0.1069
vt 0.6818 0.8345
vt 0.0000 0.4504
vt 0.8712 0.6028
vt 0.8712 0.3925
vt 0.9241 0.3494
vt 0.6818 0.6211
vt 0.3597 0.4019
vt 0.8712 0.5959
vt 0.0521 0.8363
vt 0.9719 0.6211
vt 0.0773 0.0031
vt 0.9411 0.3978
vt 0.9980 0.0083
vt 0.9980 0.2280
vn -1.0000 0.0000 0.0000
vn -0.7717 -0.3003 -0.5606
vn -0.9538 -0.3003 0.0000
vn -0.2724 -0.9416 -0.1979
vn -0.1877 -0.7944 -0.5777
vn -0.1040 -0.9416 -0.3202
vn -0.6627 -0.5735 -0.4815
vn -0.4914 -0.7944 -0.3570
vn -0.2531 -0.5735 -0.7791
vn -0.8090 0.0000 -0.5878
vn -0.2947 -0.3003 -0.9071
vn -0.7717 0.3003 -0.5606
vn -0.3090 0.0000 -0.9510
vn -0.2531 0.5735 -0.7791
vn -0.2947 0.3003 -0.9071
vn -0.4914 0.7944 -0.3570
vn -0.6627 0.5735 -0.4815
vn -0.2724 0.9416 -0.1979
vn -0.1877 0.7944 -0.5777
vn 0.2531 0.5735 -0.7791
vn 0.4914 0.7944 -0.3570
vn 0.6627 0.5735 -0.4815
vn 0.2947 0.3003 -0.9071
vn 0.7717 0.3003 -0.5606
vn 0.3090 0.0000 -0.9510
vn 0.8090 0.0000 -0.5878
vn 0.7717 -0.3003 -0.5606
vn 0.2531 -0.5735 -0.7791
vn 0.6627 -0.5735 -0.4815
vn 0.1877 -0.7944 -0.5777
vn 0.4914 -0.7944 -0.3570
vn 0.1040 -0.9416 -0.3202
vn 0.2724 -0.9416 -0.1979
vn 0.6627 -0.5735 0.4815
vn 0.2947 -0.3003 0.9071
vn 0.2531 -0.5735 0.7791
vn 0.2724 -0.9416 0.1979
vn 0.1877 -0.7944 0.5777
vn 0.1040 -0.9416 0.3202
vn 0.6074 0.7944 0.0000
vn 0.2724 0.9416 0.1979
vn 0.4914 0.7944 0.3570
vn 0.7717 0.3003 0.5606
vn 0.8192 0.5735 0.0000
vn 0.6627 0.5735 0.4815
vn 0.6074 -0.7944 0.0000
vn 0.4914 -0.7944 0.3570
vn 0.3367 -0.9416 0.0000
vn 0.1040 0.9416 0.3202
vn 0.1877 0.7944 0.5777
vn 0.2531 0.5735 0.7791
vn 0.2947 0.3003 0.9071
vn 0.8090 0.0000 0.5878
vn 0.3090 0.0000 0.9510
vn 0.3367 0.9416 0.0000
vn 0.9538 0.3003 0.0000
vn 1.0000 0.0000 0.0000
vn 0.8192 -0.5735 0.0000
vn 0.9538 -0.3003 0.0000
vn 0.7717 -0.3003 0.5606
vn 0.0000 -0.7954 0.6061
vn -0.1040 -0.9416 0.3202
vn 0.0000 -0.9465 0.3226
vn 0.0000 -0.5694 0.8220
vn -0.1877 -0.7944 0.5777
vn 0.0000 -0.2959 0.9552
vn -0.2531 -0.5735 0.7791
vn 0.0000 0.0000 1.0000
vn -0.2947 -0.3003 0.9071
vn -0.2947 0.3003 0.9071
vn -0.3090 0.0000 0.9510
vn 0.0000 0.2959 0.9552
vn -0.2531 0.5735 0.7791
vn 0.0000 0.5694 0.8220
vn -0.1877 0.7944 0.5777
vn 0.0000 0.7954 0.6061
vn -0.1040 0.9416 0.3202
vn -0.2724 -0.9416 0.1979
vn -0.4914 -0.7944 0.3570
vn -0.6627 -0.5735 0.4815
vn -0.8090 0.0000 0.5878
vn -0.7717 -0.3003 0.5606
vn -0.6627 0.5735 0.4815
vn -0.7717 0.3003 0.5606
vn -0.4914 0.7944 0.3570
vn -0.3367 -0.9416 0.0000
vn -0.6074 -0.7944 0.0000
vn -0.9538 0.3003 0.0000
vn -0.6074 0.7944 0.0000
vn -0.8192 0.5735 0.0000
vn -0.2724 0.9416 0.1979
vn 0.0000 -1.0000 0.0000
vn -0.8192 -0.5735 0.0000
vn -0.3367 0.9416 0.0000
vn 0.0000 1.0000 0.0000
vn -0.1040 0.9416 -0.3202
vn 0.0000 -0.9465 -0.3226
vn 0.0000 0.9465 0.3226
vn 0.0000 0.9465 -0.3226
vn 0.0000 0.7954 -0.6061
vn 0.0000 0.5694 -0.8220
vn 0.0000 0.2959 -0.9552
vn 0.0000 0.0000 -1.0000
vn 0.0000 -0.2959 -0.9552
vn 0.0000 -0.5694 -0.8220
vn 0.0000 -0.7954 -0.6061
vn 0.1877 0.7944 -0.5777
vn 0.2724 0.9416 -0.1979
vn 0.1040 0.9416 -0.3202
vn 0.2947 -0.3003 -0.9071
s 1
f 1/1/1 8/2/2 2/3/3
f 11/4/4 19/5/5 20/6/6
f 9/7/7 19/8/5 10/9/8
f 8/2/2 18/10/9 9/7/7
f 7/11/10 17/12/11 8/2/2
f 6/13/12 16/14/13 7/11/10
f 6/13/12 14/15/14 15/16/15
f 4/17/16 14/18/14 5/19/17
f 3/20/18 13/21/19 4/17/16
f 34/22/20 24/23/21 25/24/22
f 35/25/23 25/26/22 26/27/24
f 36/28/25 26/27/24 27/29/26
f 28/30/27 36/28/25 27/29/26
f 38/31/28 28/30/27 29/32/29
f 39/33/30 29/34/29 30/35/31
f 40/36/32 30/35/31 31/37/33
f 57/38/34 46/39/35 48/40/36
f 59/41/37 49/42/38 50/43/39
f 61/44/40 51/45/41 52/46/42
f 54/47/43 62/48/44 53/49/45
f 109/50/46 57/51/34 58/52/47
f 110/53/48 58/52/47 59/41/37
f 52/46/42 41/54/49 42/55/50
f 43/56/51 52/57/42 42/58/50
f 44/59/52 53/49/45 43/56/51
f 55/60/53 44/59/52 45/61/54
f 24/23/21 60/62/55 61/63/40
f 25/26/22 61/64/40 62/65/44
f 26/27/24 62/65/44 63/66/56
f 27/29/26 63/66/56 21/67/57
f 64/68/58 28/30/27 22/69/59
f 109/70/46 29/34/29 64/71/58
f 110/72/48 30/35/31 109/70/46
f 21/73/57 54/74/43 55/75/53
f 57/76/34 22/77/59 56/78/60
f 101/79/61 73/80/62 100/81/63
f 102/82/64 72/83/65 101/79/61
f 103/84/66 71/85/67 102/86/64
f 104/87/68 70/88/69 103/84/66
f 104/87/68 68/89/70 69/90/71
f 105/91/72 67/92/73 68/89/70
f 106/93/74 66/94/75 67/92/73
f 107/95/76 65/96/77 66/97/75
f 72/83/65 83/98/78 73/80/62
f 71/99/67 82/100/79 72/83/65
f 70/101/69 81/102/80 71/103/67
f 70/101/69 79/104/81 80/105/82
f 68/106/70 79/104/81 69/107/71
f 68/106/70 77/108/83 78/109/84
f 67/110/73 76/111/85 77/108/83
f 65/112/77 76/111/85 66/113/75
f 82/100/79 90/114/86 83/98/78
f 81/115/80 89/116/87 82/100/79
f 77/108/83 87/117/88 78/109/84
f 77/108/83 85/118/89 86/119/90
f 75/120/91 85/118/89 76/111/85
f 47/121/92 90/122/86 11/4/4
f 90/122/86 10/123/8 11/4/4
f 89/124/87 9/7/7 10/9/8
f 88/125/93 8/2/2 9/7/7
f 87/126/88 7/127/10 1/128/1
f 86/129/90 6/130/12 87/126/88
f 85/131/89 5/132/17 86/129/90
f 84/133/94 4/17/16 85/134/89
f 84/133/94 74/135/95 3/20/18
f 47/121/92 11/4/4 20/6/6
f 3/20/18 74/135/95 12/136/96
f 47/121/92 20/6/6 91/137/97
f 28/30/27 21/67/57 22/69/59
f 49/42/38 57/51/34 48/138/36
f 53/139/45 61/44/40 52/46/42
f 56/140/60 45/61/54 46/39/35
f 74/141/95 65/96/77 108/142/98
f 47/143/92 73/80/62 83/98/78
f 65/96/77 74/141/95 75/144/91
f 47/143/92 83/98/78 90/114/86
f 81/102/80 2/145/3 88/146/93
f 79/104/81 2/145/3 80/105/82
f 78/109/84 1/147/1 79/104/81
f 75/144/91 74/141/95 84/148/94
f 56/78/60 21/73/57 55/75/53
f 73/80/62 47/143/92 100/81/63
f 12/136/96 74/135/95 99/149/99
f 12/136/96 98/150/100 13/21/19
f 13/21/19 97/151/101 14/18/14
f 14/18/14 96/152/102 15/153/15
f 15/16/15 95/154/103 16/14/13
f 17/12/11 95/154/103 94/155/104
f 18/10/9 94/155/104 93/156/105
f 19/5/5 93/157/105 92/158/106
f 20/6/6 92/158/106 91/137/97
f 33/159/107 23/160/108 24/23/21
f 50/43/39 101/161/61 100/162/63
f 107/163/76 41/54/49 108/164/98
f 106/165/74 42/58/50 107/166/76
f 105/167/72 43/56/51 106/165/74
f 104/168/68 44/59/52 105/167/72
f 46/39/35 104/168/68 103/169/66
f 48/40/36 103/169/66 102/170/64
f 47/171/92 40/36/32 31/37/33
f 39/33/30 93/172/105 38/173/28
f 96/174/102 34/22/20 35/175/23
f 98/176/100 32/177/109 33/159/107
f 50/43/39 100/162/63 47/178/92
f 41/54/49 51/45/41 74/179/95
f 74/179/95 108/164/98 41/54/49
f 49/42/38 102/180/64 101/161/61
f 60/62/55 23/160/108 74/181/95
f 47/171/92 31/37/33 110/72/48
f 38/182/28 94/183/104 37/184/110
f 47/171/92 91/185/97 40/36/32
f 37/184/110 95/186/103 36/187/25
f 23/160/108 32/177/109 74/181/95
f 47/178/92 59/41/37 50/43/39
f 47/178/92 110/53/48 59/41/37
f 51/45/41 60/188/55 74/179/95
f 32/177/109 99/189/99 74/181/95
f 97/190/101 33/159/107 34/22/20
f 95/186/103 35/191/23 36/187/25
f 40/36/32 92/192/106 39/33/30
f 1/1/1 7/11/10 8/2/2
f 11/4/4 10/123/8 19/5/5
f 9/7/7 18/10/9 19/8/5
f 8/2/2 17/12/11 18/10/9
f 7/11/10 16/14/13 17/12/11
f 6/13/12 15/16/15 16/14/13
f 6/13/12 5/193/17 14/15/14
f 4/17/16 13/21/19 14/18/14
f 3/20/18 12/136/96 13/21/19
f 34/22/20 33/159/107 24/23/21
f 35/25/23 34/194/20 25/26/22
f 36/28/25 35/25/23 26/27/24
f 28/30/27 37/195/110 36/28/25
f 38/31/28 37/195/110 28/30/27
f 39/33/30 38/173/28 29/34/29
f 40/36/32 39/33/30 30/35/31
f 57/38/34 56/140/60 46/39/35
f 59/41/37 58/52/47 49/42/38
f 61/44/40 60/188/55 51/45/41
f 54/47/43 63/196/56 62/48/44
f 109/50/46 64/197/58 57/51/34
f 110/53/48 109/50/46 58/52/47
f 52/46/42 51/45/41 41/54/49
f 43/56/51 53/49/45 52/57/42
f 44/59/52 54/47/43 53/49/45
f 55/60/53 54/47/43 44/59/52
f 24/23/21 23/160/108 60/62/55
f 25/26/22 24/198/21 61/64/40
f 26/27/24 25/26/22 62/65/44
f 27/29/26 26/27/24 63/66/56
f 64/68/58 29/32/29 28/30/27
f 109/70/46 30/35/31 29/34/29
f 110/72/48 31/37/33 30/35/31
f 21/73/57 63/199/56 54/74/43
f 57/76/34 64/200/58 22/77/59
f 101/79/61 72/83/65 73/80/62
f 102/82/64 71/99/67 72/83/65
f 103/84/66 70/88/69 71/85/67
f 104/87/68 69/90/71 70/88/69
f 104/87/68 105/91/72 68/89/70
f 105/91/72 106/93/74 67/92/73
f 106/93/74 107/201/76 66/94/75
f 107/95/76 108/142/98 65/96/77
f 72/83/65 82/100/79 83/98/78
f 71/99/67 81/115/80 82/100/79
f 70/101/69 80/105/82 81/102/80
f 70/101/69 69/107/71 79/104/81
f 68/106/70 78/109/84 79/104/81
f 68/106/70 67/110/73 77/108/83
f 67/110/73 66/113/75 76/111/85
f 65/112/77 75/120/91 76/111/85
f 82/100/79 89/116/87 90/114/86
f 81/115/80 88/202/93 89/116/87
f 77/108/83 86/119/90 87/117/88
f 77/108/83 76/111/85 85/118/89
f 75/120/91 84/203/94 85/118/89
f 90/122/86 89/204/87 10/123/8
f 89/124/87 88/125/93 9/7/7
f 88/125/93 2/3/3 8/2/2
f 87/126/88 6/130/12 7/127/10
f 86/129/90 5/132/17 6/130/12
f 85/131/89 4/205/16 5/132/17
f 84/133/94 3/20/18 4/17/16
f 28/30/27 27/29/26 21/67/57
f 49/42/38 58/52/47 57/51/34
f 53/139/45 62/206/44 61/44/40
f 56/140/60 55/60/53 45/61/54
f 81/102/80 80/105/82 2/145/3
f 79/104/81 1/147/1 2/145/3
f 78/109/84 87/117/88 1/147/1
f 56/78/60 22/77/59 21/73/57
f 12/136/96 99/149/99 98/150/100
f 13/21/19 98/150/100 97/151/101
f 14/18/14 97/151/101 96/152/102
f 15/16/15 96/207/102 95/154/103
f 17/12/11 16/14/13 95/154/103
f 18/10/9 17/12/11 94/155/104
f 19/5/5 18/208/9 93/157/105
f 20/6/6 19/5/5 92/158/106
f 33/159/107 32/177/109 23/160/108
f 50/43/39 49/42/38 101/161/61
f 107/163/76 42/55/50 41/54/49
f 106/165/74 43/56/51 42/58/50
f 105/167/72 44/59/52 43/56/51
f 104/168/68 45/61/54 44/59/52
f 46/39/35 45/61/54 104/168/68
f 48/40/36 46/39/35 103/169/66
f 39/33/30 92/192/106 93/172/105
f 96/174/102 97/190/101 34/22/20
f 98/176/100 99/189/99 32/177/109
f 49/42/38 48/138/36 102/180/64
f 38/182/28 93/209/105 94/183/104
f 37/184/110 94/183/104 95/186/103
f 97/190/101 98/176/100 33/159/107
f 95/186/103 96/210/102 35/191/23
f 40/36/32 91/185/97 92/192/106
