# Blender v2.76 (sub 0) OBJ File: 'Billboard.blend'
# www.blender.org
v -3.085351 -0.838343 2.784767
v -3.085351 3.138343 2.784767
v 2.784767 -0.838343 -3.085351
v 2.784767 3.138343 -3.085351
v -2.784767 -0.838343 3.085351
v -2.784767 3.138343 3.085351
v 3.085351 -0.838343 -2.784767
v 3.085351 3.138343 -2.784767
v -2.601326 3.138343 2.901910
v 2.901910 -0.838343 -2.601326
v 2.901910 3.138343 -2.601326
v -2.601326 -0.838343 2.901910
v 2.601326 3.138343 -2.901910
v -2.901910 -0.838343 2.601326
v -2.901910 3.138343 2.601326
v 2.601326 -0.838343 -2.901910
v 3.085351 -0.838343 -2.784767
v 2.784767 -0.838343 -3.085351
v 2.901910 -0.838343 -2.601326
v 2.601326 -0.838343 -2.901910
v -3.396885 -3.138343 2.106351
v -3.580326 -3.138343 2.289793
v -2.289793 -3.138343 3.580326
v -2.106351 -3.138343 3.396885
v 3.580326 -3.138343 -2.289793
v 2.289793 -3.138343 -3.580326
v 3.396885 -3.138343 -2.106351
v 2.106351 -3.138343 -3.396885
v 2.760489 3.138343 -2.742748
v -2.742748 3.138343 2.760489
v -2.742748 -0.838343 2.760489
v 2.760489 -0.838343 -2.742748
v -2.760489 3.138343 2.742748
v 2.742748 3.138343 -2.760489
v 2.742748 -0.838343 -2.760489
v -2.760489 -0.838343 2.742748
v -2.289793 -2.850843 3.580326
v 3.396885 -2.850843 -2.106351
v 3.580326 -2.850843 -2.289793
v -2.106351 -2.850843 3.396885
v -3.580326 -2.850843 2.289793
v -3.396885 -2.850843 2.106351
v 2.289793 -2.850843 -3.580326
v 2.106351 -2.850843 -3.396885
v 3.419009 -2.850843 -2.451109
v 2.451109 -2.850843 -3.419009
v 2.935059 -0.838343 -2.935059
v 2.859913 -0.838343 -3.010205
v 3.010205 -0.838343 -2.859913
v 2.267668 -2.850843 -3.235568
v 3.235568 -2.850843 -2.267668
v 2.672037 -0.838343 -2.831199
v 2.831199 -0.838343 -2.672037
v -3.419009 -2.850843 2.451109
v -2.451109 -2.850843 3.419009
v -2.859913 -0.838343 3.010205
v -3.010205 -0.838343 2.859913
v -2.831199 -0.838343 2.672037
v -2.672037 -0.838343 2.831199
v -3.235568 -2.850843 2.267668
v -2.267668 -2.850843 3.235568
vt 0.000000 0.811086
vt 0.182824 0.811086
vt 0.182824 1.000000
vt 0.288564 0.500000
vt 0.105740 0.358315
vt 0.288564 0.311086
vt 0.371997 0.811086
vt 0.371997 1.000000
vt 0.366284 1.000000
vt 0.748526 0.974335
vt 0.748526 0.785421
vt 0.754240 0.785421
vt 0.377711 0.811086
vt 0.377711 1.000000
vt 0.268841 0.811086
vt 0.268841 1.000000
vt 0.225832 1.000000
vt 0.360571 1.000000
vt 0.354858 1.000000
vt 0.354858 0.811086
vt 0.311849 1.000000
vt 0.383424 0.811086
vt 0.383424 1.000000
vt 0.366284 0.811086
vt 0.000000 0.000000
vt 0.971433 0.811086
vt 0.971433 0.000000
vt 0.977147 0.000000
vt 0.577129 0.811086
vt 0.563911 0.811086
vt 0.563911 0.709700
vt 0.982860 0.000000
vt 0.982860 0.811086
vt 0.748526 0.797228
vt 0.748526 0.986142
vt 0.577129 0.986142
vt 0.471388 0.355527
vt 0.471388 0.399968
vt 0.288564 0.399968
vt 0.577129 0.797228
vt 0.577129 0.608315
vt 0.748526 0.608315
vt 0.759317 0.608315
vt 0.759317 0.785421
vt 0.288564 0.411118
vt 0.471388 0.411118
vt 0.471388 0.455559
vt 0.400564 0.811086
vt 0.400564 0.824744
vt 0.394850 0.824744
vt 0.994287 0.000000
vt 1.000000 0.000000
vt 1.000000 0.311086
vt 0.582842 0.298582
vt 0.754240 0.298582
vt 0.754240 0.309732
vt 0.982860 0.608315
vt 0.988573 0.608315
vt 0.988573 0.919401
vt 0.406277 0.811086
vt 0.406277 0.824744
vt 0.394850 0.811086
vt 0.389137 0.824744
vt 0.994287 0.919401
vt 0.389137 0.811086
vt 0.383424 0.824744
vt 0.994287 0.311086
vt 1.000000 0.622172
vt 0.878911 0.709700
vt 0.865693 0.811086
vt 0.878911 0.101386
vt 0.759953 0.311086
vt 0.852475 0.000000
vt 0.852475 0.101386
vt 0.852476 0.709700
vt 0.852476 0.811086
vt 0.759953 0.500000
vt 0.971433 0.455559
vt 0.971433 0.500000
vt 0.971433 0.311086
vt 0.971433 0.355527
vt 0.759953 0.000000
vt 0.759953 0.256929
vt 0.754240 0.254141
vt 0.759953 0.608315
vt 0.754240 0.608315
vt 0.754240 0.354173
vt 0.759953 0.304157
vt 0.759953 0.351386
vt 0.865693 0.000000
vt 0.988573 0.000000
vt 0.563911 0.101386
vt 0.471388 0.311086
vt 0.471389 0.500000
vt 0.105740 0.500000
vt 0.013218 0.811086
vt 0.013218 0.709700
vt 0.013218 0.101386
vt 0.013218 0.000000
vt 0.105740 0.311086
vt 0.577129 0.351386
vt 0.582842 0.354173
vt 0.582842 0.254141
vt 0.577129 0.256929
vt 0.577129 0.000000
vt 0.582842 0.309732
vt 0.994287 0.608315
vt 0.000000 1.000000
vt 0.105740 0.452772
vt 0.754240 0.974335
vt 0.360571 0.811086
vt 0.977147 0.811086
vt 0.563911 0.000000
vt 0.982860 0.919401
vt 0.994287 0.622172
vt 0.878911 0.000000
vt 0.878911 0.811086
vt 0.759953 0.358315
vt 0.759953 0.452772
vt 0.754240 0.000000
vt 0.582842 0.608315
vt 0.582842 0.000000
vn 0.816500 0.577300 0.000000
vn 0.577300 0.000000 0.816500
vn 0.000000 0.000000 1.000000
vn -0.816500 0.577300 0.000000
vn -0.822900 -0.399800 0.403600
vn 0.000000 0.577300 0.816500
vn 0.000000 0.577300 -0.816500
vn -0.577300 0.000000 0.816500
vn 0.000000 -0.904500 0.426400
vn -0.826800 -0.387200 0.408000
vn 0.064100 0.110800 -0.991800
vn -0.991800 0.110800 0.064100
vn -0.408000 -0.387200 0.826800
vn -0.426400 -0.904500 0.000000
vn 0.991800 0.110800 -0.064100
vn -0.053500 0.092600 0.994200
vn 0.312500 0.540900 0.780800
vn -0.567300 0.122100 0.814400
vn -0.029800 -0.821300 -0.569600
vn 0.865700 0.494400 0.077800
vn 0.000000 -0.577300 -0.816500
vn 0.816500 -0.577300 0.000000
vn 0.000000 -0.577300 0.816500
vn -0.041900 0.123400 -0.991500
vn 0.861300 0.213900 -0.460900
vn -0.816500 -0.577300 0.000000
vn 0.408000 -0.387200 -0.826800
vn 0.426400 -0.904500 0.000000
vn 0.000000 -0.904500 -0.426400
vn 0.826800 -0.387200 -0.408000
vn 0.041900 0.123400 0.991500
vn 0.991500 0.123400 0.041900
vn 0.638400 0.137500 0.757300
vn -0.991500 0.123400 -0.041900
vn -0.460900 0.213900 0.861300
vn -0.861300 0.213900 0.460900
vn 0.460900 0.213800 -0.861300
vn 0.861300 0.213800 -0.460900
vn 0.000000 -1.000000 0.000000
vn 0.460900 0.213900 -0.861300
vn -0.460900 0.213800 0.861300
vn -0.861300 0.213800 0.460900
vn -0.064100 0.110800 0.991800
vn -0.403600 -0.399800 0.822900
s 1
f 8/1/1 7/2/2 3/3/3
f 2/4/4 56/5/5 6/6/6
f 9/7/1 15/8/7 2/9/4
f 16/10/8 13/11/4 4/12/7
f 10/7/3 7/13/2 8/14/1
f 29/15/6 32/16/9 53/17/10
f 14/18/11 1/19/12 2/20/4
f 52/21/13 35/16/14 34/15/4
f 12/22/15 9/23/1 6/14/6
f 8/24/1 4/9/7 13/18/4
f 7/25/2 10/25/3 19/25/16
f 16/25/8 3/25/3 18/25/17
f 10/25/3 16/25/8 20/25/18
f 7/25/2 49/25/19 48/25/20
f 21/26/21 24/27/22 23/28/23
f 21/29/21 42/30/24 60/31/25
f 28/28/26 26/32/21 25/33/22
f 32/34/9 29/35/6 30/36/1
f 59/37/27 31/38/28 30/39/1
f 36/40/29 33/41/7 34/42/4
f 30/43/1 29/44/6 34/11/4
f 33/45/7 36/46/29 58/47/30
f 38/48/31 27/49/23 25/50/22
f 38/51/31 39/52/32 17/53/33
f 36/54/29 35/55/14 32/56/9
f 37/57/31 40/58/32 12/59/15
f 37/60/31 23/61/23 24/49/22
f 42/62/24 21/50/21 22/63/26
f 42/64/24 41/59/34 1/58/12
f 43/65/24 26/63/21 28/66/26
f 43/67/24 44/53/34 20/68/18
f 50/69/35 28/70/26 51/71/36
f 17/72/33 39/73/32 45/74/37
f 46/75/38 43/76/24 18/77/17
f 50/69/35 52/78/13 20/79/18
f 19/80/16 53/81/10 51/71/36
f 46/82/38 48/83/20 52/84/13
f 45/85/37 51/86/36 53/87/10
f 47/88/39 49/89/19 32/56/9
f 46/75/38 25/90/22 26/70/21
f 50/57/35 51/32/36 45/91/37
f 61/92/40 59/37/27 12/93/15
f 60/31/25 42/30/24 14/94/11
f 1/95/12 41/96/34 54/97/41
f 55/98/42 37/99/31 5/100/43
f 55/41/42 56/101/5 59/102/27
f 58/103/30 57/104/44 54/105/41
f 55/98/42 22/1/26 23/25/23
f 57/104/44 36/54/29 31/106/28
f 55/91/42 61/51/40 60/107/25
f 4/108/7 8/1/1 3/3/3
f 5/100/43 6/6/6 56/5/5
f 2/4/4 1/95/12 57/109/44
f 57/109/44 56/5/5 2/4/4
f 6/24/6 9/7/1 2/9/4
f 3/110/3 16/10/8 4/12/7
f 11/8/6 10/7/3 8/14/1
f 53/17/10 10/3/3 11/2/6
f 11/2/6 29/15/6 53/17/10
f 15/111/7 14/18/11 2/20/4
f 34/15/4 13/20/4 52/21/13
f 16/19/8 52/21/13 13/20/4
f 5/13/43 12/22/15 6/14/6
f 11/111/6 8/24/1 13/18/4
f 17/25/33 7/25/2 19/25/16
f 20/25/18 16/25/8 18/25/17
f 19/25/16 10/25/3 20/25/18
f 18/25/17 3/25/3 7/25/2
f 7/25/2 17/25/33 49/25/19
f 49/25/19 47/25/39 48/25/20
f 48/25/20 18/25/17 7/25/2
f 22/112/26 21/26/21 23/28/23
f 61/92/40 40/113/32 24/105/22
f 24/105/22 21/29/21 60/31/25
f 60/31/25 61/92/40 24/105/22
f 27/112/23 28/28/26 25/33/22
f 31/40/28 32/34/9 30/36/1
f 30/39/1 9/6/1 59/37/27
f 12/93/15 59/37/27 9/6/1
f 35/34/14 36/40/29 34/42/4
f 33/42/7 30/43/1 34/11/4
f 58/47/30 14/94/11 15/4/7
f 15/4/7 33/45/7 58/47/30
f 39/62/32 38/48/31 25/50/22
f 19/67/16 38/51/31 17/53/33
f 31/106/28 36/54/29 32/56/9
f 5/114/43 37/57/31 12/59/15
f 40/48/32 37/60/31 24/49/22
f 41/65/34 42/62/24 22/63/26
f 14/107/11 42/64/24 1/58/12
f 44/22/34 43/65/24 28/66/26
f 18/115/17 43/67/24 20/68/18
f 27/90/23 38/116/31 51/71/36
f 50/69/35 44/117/34 28/70/26
f 27/90/23 51/71/36 28/70/26
f 49/118/19 17/72/33 45/74/37
f 48/119/20 46/75/38 18/77/17
f 44/117/34 50/69/35 20/79/18
f 38/116/31 19/80/16 51/71/36
f 50/120/35 46/82/38 52/84/13
f 49/89/19 45/85/37 53/87/10
f 35/55/14 52/84/13 48/83/20
f 48/83/20 47/88/39 35/55/14
f 49/89/19 53/87/10 32/56/9
f 32/56/9 35/55/14 47/88/39
f 26/70/21 43/76/24 46/75/38
f 46/75/38 45/74/37 25/90/22
f 39/73/32 25/90/22 45/74/37
f 46/58/38 50/57/35 45/91/37
f 40/113/32 61/92/40 12/93/15
f 58/47/30 60/31/25 14/94/11
f 57/109/44 1/95/12 54/97/41
f 56/5/5 55/98/42 5/100/43
f 61/121/40 55/41/42 59/102/27
f 60/122/25 58/103/30 54/105/41
f 23/25/23 37/99/31 55/98/42
f 55/98/42 54/97/41 22/1/26
f 41/96/34 22/1/26 54/97/41
f 31/106/28 59/102/27 56/101/5
f 56/101/5 57/104/44 31/106/28
f 58/103/30 36/54/29 57/104/44
f 54/58/41 55/91/42 60/107/25
