# Blender v2.76 (sub 0) OBJ File: 'Shadow.blend'
# www.blender.org
v 0.000000 0.000000 -2.000000
v -0.390181 0.000000 -1.961571
v -0.765367 0.000000 -1.847759
v -1.111140 0.000000 -1.662939
v -1.414214 0.000000 -1.414214
v -1.662939 0.000000 -1.111140
v -1.847759 0.000000 -0.765367
v -1.961571 0.000000 -0.390181
v -2.000000 0.000000 -0.000000
v -1.961571 0.000000 0.390180
v -1.847759 0.000000 0.765367
v -1.662939 0.000000 1.111140
v -1.414214 0.000000 1.414214
v -1.111140 0.000000 1.662939
v -0.765367 0.000000 1.847759
v -0.390180 0.000000 1.961571
v 0.000001 0.000000 2.000000
v 0.390181 0.000000 1.961570
v 0.765368 0.000000 1.847759
v 1.111141 0.000000 1.662939
v 1.414214 0.000000 1.414213
v 1.662940 0.000000 1.111139
v 1.847760 0.000000 0.765365
v 1.961571 0.000000 0.390179
v 2.000000 0.000000 -0.000002
v 1.961570 0.000000 -0.390183
v 1.847758 0.000000 -0.765369
v 1.662938 0.000000 -1.111143
v 1.414212 0.000000 -1.414215
v 1.111138 0.000000 -1.662941
v 0.765364 0.000000 -1.847760
v 0.390178 0.000000 -1.961571
vt 0.263161 0.056906
vt 0.943094 0.263161
vt 0.056906 0.736839
vt 0.736839 0.943094
vt 0.645845 0.980785
vt 0.354156 0.980785
vt 0.549246 1.000000
vt 0.450755 1.000000
vt 0.263162 0.943095
vt 0.181269 0.888376
vt 0.111625 0.818732
vt 0.019215 0.645845
vt 0.000000 0.549246
vt 0.000000 0.450755
vt 0.019215 0.354156
vt 0.056905 0.263162
vt 0.111624 0.181269
vt 0.181268 0.111625
vt 0.354155 0.019215
vt 0.450754 0.000000
vt 0.549245 0.000000
vt 0.645844 0.019215
vt 0.736839 0.056906
vt 0.818731 0.111624
vt 0.888375 0.181268
vt 0.980785 0.354155
vt 1.000000 0.450754
vt 1.000000 0.549246
vt 0.980785 0.645845
vt 0.943094 0.736839
vt 0.888375 0.818731
vt 0.818731 0.888375
vn 0.000000 1.000000 0.000000
s off
f 17/1/1 25/2/1 9/3/1
f 1/4/1 2/5/1 5/6/1
f 3/7/1 4/8/1 5/6/1
f 5/6/1 6/9/1 7/10/1
f 7/10/1 8/11/1 5/6/1
f 9/3/1 10/12/1 11/13/1
f 11/13/1 12/14/1 13/15/1
f 13/15/1 14/16/1 15/17/1
f 15/17/1 16/18/1 13/15/1
f 17/1/1 18/19/1 19/20/1
f 19/20/1 20/21/1 21/22/1
f 21/22/1 22/23/1 23/24/1
f 23/24/1 24/25/1 21/22/1
f 25/2/1 26/26/1 27/27/1
f 27/27/1 28/28/1 29/29/1
f 29/29/1 30/30/1 31/31/1
f 31/31/1 32/32/1 29/29/1
f 2/5/1 3/7/1 5/6/1
f 5/6/1 8/11/1 9/3/1
f 9/3/1 11/13/1 17/1/1
f 13/15/1 16/18/1 17/1/1
f 17/1/1 19/20/1 25/2/1
f 21/22/1 24/25/1 25/2/1
f 25/2/1 27/27/1 29/29/1
f 29/29/1 32/32/1 1/4/1
f 1/4/1 5/6/1 9/3/1
f 11/13/1 13/15/1 17/1/1
f 19/20/1 21/22/1 25/2/1
f 25/2/1 29/29/1 1/4/1
f 1/4/1 9/3/1 25/2/1
