# Blender v2.76 (sub 0) OBJ File: 'fence.blend'
# www.blender.org
v 0.079267 -1.000000 -8.005246
v 0.079267 -1.000000 8.005245
v -0.079267 -1.000000 8.005245
v -0.079267 -1.000000 -8.005246
v 0.079268 1.000000 -8.005245
v 0.079266 1.000000 8.005246
v -0.079268 1.000000 8.005245
v -0.079267 1.000000 -8.005246
v 0.079267 -1.000000 -0.000000
v 0.079267 1.000000 0.000001
v 0.079267 -1.000000 4.002622
v 0.079267 1.000000 4.002623
v 0.079267 -1.000000 -4.002624
v 0.079267 1.000000 -4.002623
v 0.079267 -1.000000 6.003933
v 0.079267 1.000000 6.003934
v 0.079267 -1.000000 -2.001312
v 0.079267 1.000000 -2.001311
v 0.079267 -1.000000 2.001311
v 0.079267 1.000000 2.001312
v 0.079267 -1.000000 -6.003935
v 0.079267 1.000000 -6.003934
v 0.079267 -1.000000 7.004590
v 0.079267 1.000000 7.004591
v 0.079267 -1.000000 -1.000656
v 0.079267 1.000000 -1.000655
v 0.079267 -1.000000 3.001967
v 0.079267 1.000000 3.001968
v 0.079267 -1.000000 -5.003279
v 0.079267 1.000000 -5.003278
v 0.079267 0.625000 0.000000
v 0.079267 0.625000 -4.002623
v 0.079267 0.625000 4.002623
v 0.079267 -1.000000 5.003278
v 0.079267 0.625000 -8.005246
v 0.079267 0.625000 8.005246
v 0.079267 1.000000 5.003279
v 0.079267 -1.000000 -3.001967
v 0.079267 1.000000 -3.001966
v 0.079267 -1.000000 1.000655
v 0.079267 1.000000 1.000656
v 0.079267 -1.000000 -7.004591
v 0.079268 1.000000 -7.004590
v 0.079267 0.625000 2.001312
v 0.079267 0.625000 -6.003935
v 0.079267 0.625000 -2.001311
v 0.079267 0.625000 6.003934
v 0.079267 0.625000 5.003278
v 0.079267 0.625000 7.004590
v 0.079267 0.625000 -3.001967
v 0.079267 0.625000 -1.000656
v 0.079267 0.625000 -7.004591
v 0.079267 0.625000 -5.003279
v 0.079267 0.625000 1.000656
v 0.079267 0.625000 3.001967
v 0.079267 -1.000000 7.504918
v 0.079267 1.000000 7.504919
v 0.079267 -1.000000 -0.500328
v 0.079267 1.000000 -0.500327
v 0.079267 -1.000000 3.502295
v 0.079267 1.000000 3.502296
v 0.079267 -1.000000 -4.502951
v 0.079267 1.000000 -4.502950
v 0.079267 -1.000000 5.503605
v 0.079267 1.000000 5.503606
v 0.079267 -1.000000 -2.501639
v 0.079267 1.000000 -2.501638
v 0.079267 -1.000000 1.500983
v 0.079267 1.000000 1.500984
v 0.079267 -1.000000 -6.504263
v 0.079267 1.000000 -6.504262
v 0.079267 0.812500 0.000001
v 0.079267 0.812500 -4.002623
v 0.079267 0.812500 4.002623
v 0.079267 0.812500 2.001312
v 0.079267 0.812500 -6.003934
v 0.079267 0.812500 -2.001311
v 0.079267 0.812500 6.003934
v 0.079267 -1.000000 6.504261
v 0.079268 0.812500 -8.005246
v 0.079267 0.812500 8.005246
v 0.079267 1.000000 6.504262
v 0.079267 -1.000000 -1.500984
v 0.079267 1.000000 -1.500983
v 0.079267 -1.000000 2.501639
v 0.079267 1.000000 2.501640
v 0.079267 -1.000000 -5.503607
v 0.079267 1.000000 -5.503606
v 0.079267 -1.000000 4.502950
v 0.079267 1.000000 4.502951
v 0.079267 -1.000000 -3.502295
v 0.079267 1.000000 -3.502294
v 0.079267 -1.000000 0.500328
v 0.079267 1.000000 0.500329
v 0.079267 -1.000000 -7.504919
v 0.079268 1.000000 -7.504918
v 0.079267 0.812500 5.003279
v 0.079267 0.625000 5.503606
v 0.079267 0.625000 4.502950
v 0.079267 0.625000 7.504918
v 0.079267 0.625000 6.504262
v 0.079267 0.812500 -3.001967
v 0.079267 0.625000 -2.501639
v 0.079267 0.625000 -3.502295
v 0.079267 0.625000 -0.500328
v 0.079267 0.625000 -1.500983
v 0.079267 0.812500 -7.004591
v 0.079267 0.625000 -6.504262
v 0.079267 0.625000 -7.504919
v 0.079267 0.625000 -4.502951
v 0.079267 0.625000 -5.503607
v 0.079267 0.812500 1.000656
v 0.079267 0.625000 1.500984
v 0.079267 0.625000 0.500328
v 0.079267 0.625000 3.502295
v 0.079267 0.625000 2.501640
v 0.079267 0.812500 3.001968
v 0.079267 0.812500 -5.003279
v 0.079267 0.812500 -1.000655
v 0.079267 0.812500 7.004590
v 0.079267 0.812500 6.504262
v 0.079267 0.812500 7.504918
v 0.079267 0.812500 -1.500983
v 0.079267 0.812500 -0.500327
v 0.079267 0.812500 -5.503607
v 0.079267 0.812500 -4.502951
v 0.079267 0.812500 2.501640
v 0.079267 0.812500 3.502296
v 0.079267 0.812500 0.500328
v 0.079267 0.812500 1.500984
v 0.079268 0.812500 -7.504919
v 0.079267 0.812500 -6.504262
v 0.079267 0.812500 -3.502295
v 0.079267 0.812500 -2.501639
v 0.079267 0.812500 4.502951
v 0.079267 0.812500 5.503606
vt 0.964578 0.875000
vt 0.964578 0.906250
vt 0.929156 1.000000
vt 0.929156 0.000000
vt 0.893734 0.250000
vt 0.893734 0.218750
vt 0.964578 0.148340
vt 1.000000 0.124918
vt 1.000000 0.249836
vt 1.000000 0.023422
vt 0.964578 0.124918
vt 0.964578 0.000000
vt 0.893734 1.000000
vt 0.446867 1.000000
vt 0.446867 0.000000
vt 0.363079 0.843750
vt 0.363079 0.875000
vt 0.000000 0.875000
vt 0.446867 0.781250
vt 0.404973 0.781250
vt 0.404973 0.750000
vt 0.363079 0.343750
vt 0.363079 0.375000
vt 0.000000 0.375000
vt 0.363079 0.281250
vt 0.363079 0.312500
vt 0.000000 0.312500
vt 0.000000 0.343750
vt 0.363079 0.406250
vt 0.000000 0.406250
vt 0.446867 0.062500
vt 0.446867 0.093750
vt 0.404973 0.093750
vt 0.446867 0.031250
vt 0.404973 0.031250
vt 0.446867 0.125000
vt 0.404973 0.125000
vt 0.363079 0.593750
vt 0.363079 0.625000
vt 0.000000 0.625000
vt 0.363079 0.531250
vt 0.363079 0.562500
vt 0.000000 0.562500
vt 0.363079 0.500000
vt 0.000000 0.531250
vt 0.363079 0.687500
vt 0.363079 0.718750
vt 0.000000 0.718750
vt 0.363079 0.656250
vt 0.000000 0.656250
vt 0.363079 0.750000
vt 0.000000 0.750000
vt 0.000000 0.687500
vt 0.446867 0.187500
vt 0.446867 0.218750
vt 0.404973 0.218750
vt 0.446867 0.156250
vt 0.404973 0.156250
vt 0.363079 0.468750
vt 0.000000 0.500000
vt 0.363079 0.437500
vt 0.000000 0.437500
vt 0.363079 0.968750
vt 0.363079 1.000000
vt 0.000000 1.000000
vt 0.363079 0.906250
vt 0.363079 0.937500
vt 0.000000 0.937500
vt 0.000000 0.906250
vt 0.446867 0.343750
vt 0.446867 0.375000
vt 0.404973 0.375000
vt 0.363079 0.156250
vt 0.000000 0.156250
vt 0.000000 0.125000
vt 0.446867 0.593750
vt 0.446867 0.625000
vt 0.404973 0.625000
vt 0.446867 0.656250
vt 0.404973 0.656250
vt 0.446867 0.687500
vt 0.446867 0.718750
vt 0.404973 0.718750
vt 0.446867 0.468750
vt 0.446867 0.500000
vt 0.404973 0.500000
vt 0.446867 0.531250
vt 0.404973 0.531250
vt 0.000000 0.593750
vt 0.446867 0.562500
vt 0.404973 0.593750
vt 0.446867 0.906250
vt 0.404973 0.906250
vt 0.404973 0.875000
vt 0.446867 0.843750
vt 0.446867 0.875000
vt 0.446867 0.937500
vt 0.446866 0.968750
vt 0.404973 0.968750
vt 0.363079 0.781250
vt 0.000000 0.781250
vt 0.446867 0.812500
vt 0.404973 0.812500
vt 0.404973 0.843750
vt 0.363079 0.812500
vt 0.000000 0.812500
vt 0.404973 0.187500
vt 0.363079 0.093750
vt 0.363079 0.125000
vt 0.446867 0.250000
vt 0.446867 0.281250
vt 0.404973 0.281250
vt 0.363079 0.187500
vt 0.000000 0.187500
vt 0.404973 0.062500
vt 0.446867 0.406250
vt 0.404973 0.406250
vt 0.000000 0.468750
vt 0.000000 0.281250
vt 0.000000 0.250000
vt 0.404973 1.000000
vt 0.363079 0.062500
vt 0.000000 0.062500
vt 0.000000 0.031250
vt 0.363079 0.000000
vt 0.363079 0.031250
vt 0.446867 0.437500
vt 0.404973 0.468750
vt 0.363079 0.218750
vt 0.363079 0.250000
vt 0.446867 0.312500
vt 0.404973 0.343750
vt 0.404973 0.250000
vt 0.404973 0.937500
vt 0.446867 0.750000
vt 0.000000 0.843750
vt 0.404973 0.312500
vt 0.000000 0.093750
vt 0.404973 0.562500
vt 0.404973 0.687500
vt 0.000000 0.218750
vt 0.404973 0.437500
vt 0.000000 0.968750
vt 0.964578 0.031250
vt 0.964578 0.062500
vt 0.964578 0.093750
vt 0.964578 0.125000
vt 0.964578 0.156250
vt 0.964578 0.187500
vt 0.964578 0.218750
vt 0.964578 0.250000
vt 0.964578 0.343750
vt 0.964578 0.375000
vt 0.964578 0.437500
vt 0.964578 0.468750
vt 0.964578 0.281250
vt 0.964578 0.406250
vt 0.964578 0.312500
vt 0.964578 0.500000
vt 0.964578 0.625000
vt 0.964578 0.656250
vt 0.964578 0.593750
vt 0.964578 0.562500
vt 0.964578 0.687500
vt 0.964578 0.531250
vt 0.964578 0.718750
vt 0.964578 0.750000
vt 0.964578 0.781250
vt 0.964578 0.812500
vt 0.964578 0.843750
vt 0.964578 0.937500
vt 0.964578 0.968750
vt 0.964578 1.000000
vt 0.893734 0.031250
vt 0.893734 0.000000
vt 0.893734 0.500000
vt 0.893734 0.468750
vt 0.893734 0.968750
vt 0.893734 0.937500
vt 0.893734 0.906250
vt 0.893734 0.843750
vt 0.893734 0.812500
vt 0.893734 0.875000
vt 0.893734 0.062500
vt 0.893734 0.156250
vt 0.893734 0.125000
vt 0.893734 0.093750
vt 0.893734 0.781250
vt 0.893734 0.718750
vt 0.893734 0.687500
vt 0.893734 0.750000
vt 0.893734 0.656250
vt 0.893734 0.593750
vt 0.893734 0.562500
vt 0.893734 0.625000
vt 0.893734 0.187500
vt 0.893734 0.531250
vt 0.893734 0.437500
vt 0.893734 0.406250
vt 0.893734 0.343750
vt 0.893734 0.312500
vt 0.893734 0.375000
vt 0.893734 0.281250
vt 0.964578 0.249836
vt 0.964578 0.136629
vt 1.000000 0.000000
vt 1.000000 0.011711
vt 0.404973 0.000000
vt 0.000000 0.000000
vn 0.707100 -0.707100 0.000000
vn -0.577300 -0.577400 0.577300
vn -0.577300 0.577400 -0.577300
vn 0.707100 0.707100 0.000000
vn 0.707100 0.000000 0.707100
vn -0.577300 0.577400 0.577300
vn 0.707100 0.000000 -0.707100
vn -0.577300 -0.577300 -0.577300
vn 1.000000 0.000000 0.000000
vn 0.577300 0.577300 -0.577300
vn 0.577300 -0.577300 0.577300
vn 0.577300 0.577300 0.577300
vn 0.577300 -0.577300 -0.577300
s 1
f 15/1/1 79/2/1 3/3/2
f 8/4/3 14/5/4 63/6/4
f 36/7/5 7/8/6 3/9/2
f 35/10/7 4/11/8 8/12/3
f 3/13/2 7/14/6 8/15/3
f 98/16/9 47/17/9 15/18/1
f 90/19/4 135/20/9 74/21/9
f 103/22/9 46/23/9 17/24/1
f 104/25/9 50/26/9 38/27/1
f 50/26/9 103/22/9 66/28/1
f 46/23/9 106/29/9 83/30/1
f 43/31/4 71/32/4 132/33/9
f 5/15/10 96/34/4 131/35/9
f 71/32/4 22/36/4 76/37/9
f 113/38/9 44/39/9 19/40/1
f 114/41/9 54/42/9 40/43/1
f 31/44/9 114/41/9 93/45/1
f 55/46/9 115/47/9 60/48/1
f 44/39/9 116/49/9 85/50/1
f 115/47/9 33/51/9 11/52/1
f 116/49/9 55/46/9 27/53/1
f 30/54/4 63/55/4 126/56/9
f 22/36/4 88/57/4 125/58/9
f 105/59/9 31/44/9 9/60/1
f 106/29/9 51/61/9 25/62/1
f 100/63/9 36/64/5 2/65/11
f 101/66/9 49/67/9 23/68/1
f 47/17/9 101/66/9 79/69/1
f 67/70/4 18/71/4 77/72/9
f 111/73/9 87/74/1 21/75/1
f 69/76/4 20/77/4 75/78/9
f 20/77/4 86/79/4 127/80/9
f 28/81/4 61/82/4 128/83/9
f 59/84/4 10/85/4 72/86/9
f 10/85/4 94/87/4 129/88/9
f 54/42/9 113/38/9 68/89/1
f 41/90/4 69/76/4 130/91/9
f 82/92/4 121/93/9 78/94/9
f 65/95/4 16/96/4 78/94/9
f 24/97/4 57/98/4 122/99/9
f 99/100/9 89/101/1 11/52/1
f 90/19/4 37/102/4 97/103/9
f 37/102/4 65/95/4 136/104/9
f 48/105/9 34/106/1 89/101/1
f 88/57/4 30/54/4 118/107/9
f 108/108/9 45/109/9 21/75/1
f 14/110/4 92/111/4 133/112/9
f 53/113/9 29/114/1 87/74/1
f 96/34/4 43/31/4 107/115/9
f 18/71/4 84/116/4 123/117/9
f 51/61/9 105/59/9 58/118/1
f 104/25/9 91/119/1 13/120/1
f 57/98/4 6/14/12 81/121/5
f 52/122/9 42/123/1 95/124/1
f 35/125/7 109/126/9 95/124/1
f 26/127/4 59/84/4 124/128/9
f 110/129/9 32/130/9 13/120/1
f 39/131/4 67/70/4 134/132/9
f 63/55/4 14/110/4 73/133/9
f 82/92/4 24/97/4 120/134/9
f 61/82/4 12/135/4 74/21/9
f 48/105/9 98/16/9 64/136/1
f 92/111/4 39/131/4 102/137/9
f 52/122/9 108/108/9 70/138/1
f 94/87/4 41/90/4 112/139/9
f 86/79/4 28/81/4 117/140/9
f 110/129/9 62/141/1 29/114/1
f 84/116/4 26/127/4 119/142/9
f 100/63/9 56/143/1 23/68/1
f 52/122/9 132/33/9 108/108/9
f 4/4/8 1/12/13 95/144/1
f 95/144/1 42/145/1 4/4/8
f 70/146/1 21/147/1 4/4/8
f 87/148/1 29/149/1 4/4/8
f 62/150/1 13/151/1 4/4/8
f 66/152/1 17/153/1 4/4/8
f 29/149/1 62/150/1 4/4/8
f 25/154/1 58/155/1 4/4/8
f 13/151/1 91/156/1 4/4/8
f 83/157/1 25/154/1 4/4/8
f 91/156/1 38/158/1 4/4/8
f 58/155/1 9/159/1 4/4/8
f 42/145/1 70/146/1 4/4/8
f 19/160/1 85/161/1 3/3/2
f 21/147/1 87/148/1 4/4/8
f 68/162/1 19/160/1 3/3/2
f 4/4/8 38/158/1 66/152/1
f 40/163/1 68/162/1 3/3/2
f 4/4/8 17/153/1 83/157/1
f 85/161/1 27/164/1 3/3/2
f 4/4/8 9/159/1 3/3/2
f 93/165/1 40/163/1 3/3/2
f 60/166/1 11/167/1 3/3/2
f 89/168/1 34/169/1 3/3/2
f 64/170/1 15/1/1 3/3/2
f 79/2/1 23/171/1 3/3/2
f 56/172/1 2/173/11 3/3/2
f 3/3/2 9/159/1 93/165/1
f 27/164/1 60/166/1 3/3/2
f 34/169/1 64/170/1 3/3/2
f 23/171/1 56/172/1 3/3/2
f 3/3/2 11/167/1 89/168/1
f 96/174/4 5/175/10 8/4/3
f 8/4/3 10/176/4 59/177/4
f 6/13/12 57/178/4 7/3/6
f 24/179/4 82/180/4 7/3/6
f 65/181/4 37/182/4 7/3/6
f 82/180/4 16/183/4 7/3/6
f 7/3/6 57/178/4 24/179/4
f 43/184/4 96/174/4 8/4/3
f 88/185/4 22/186/4 8/4/3
f 71/187/4 43/184/4 8/4/3
f 7/3/6 16/183/4 65/181/4
f 37/182/4 90/188/4 7/3/6
f 61/189/4 28/190/4 7/3/6
f 90/188/4 12/191/4 7/3/6
f 22/186/4 71/187/4 8/4/3
f 7/3/6 12/191/4 61/189/4
f 28/190/4 86/192/4 7/3/6
f 69/193/4 41/194/4 7/3/6
f 86/192/4 20/195/4 7/3/6
f 30/196/4 88/185/4 8/4/3
f 7/3/6 20/195/4 69/193/4
f 41/194/4 94/197/4 7/3/6
f 26/198/4 84/199/4 8/4/3
f 94/197/4 10/176/4 7/3/6
f 59/177/4 26/198/4 8/4/3
f 67/200/4 39/201/4 8/4/3
f 7/3/6 10/176/4 8/4/3
f 18/202/4 67/200/4 8/4/3
f 8/4/3 84/199/4 18/202/4
f 63/6/4 30/196/4 8/4/3
f 92/203/4 14/5/4 8/4/3
f 8/4/3 39/201/4 92/203/4
f 3/9/2 2/204/11 36/7/5
f 36/7/5 81/205/5 7/8/6
f 6/11/12 7/8/6 81/205/5
f 8/12/3 5/206/10 80/207/7
f 35/10/7 1/8/13 4/11/8
f 8/12/3 80/207/7 35/10/7
f 4/175/8 3/13/2 8/15/3
f 64/136/1 98/16/9 15/18/1
f 12/135/4 90/19/4 74/21/9
f 66/28/1 103/22/9 17/24/1
f 91/119/1 104/25/9 38/27/1
f 38/27/1 50/26/9 66/28/1
f 17/24/1 46/23/9 83/30/1
f 107/115/9 43/31/4 132/33/9
f 80/208/7 5/15/10 131/35/9
f 132/33/9 71/32/4 76/37/9
f 68/89/1 113/38/9 19/40/1
f 93/45/1 114/41/9 40/43/1
f 9/60/1 31/44/9 93/45/1
f 27/53/1 55/46/9 60/48/1
f 19/40/1 44/39/9 85/50/1
f 60/48/1 115/47/9 11/52/1
f 85/50/1 116/49/9 27/53/1
f 118/107/9 30/54/4 126/56/9
f 76/37/9 22/36/4 125/58/9
f 58/118/1 105/59/9 9/60/1
f 83/30/1 106/29/9 25/62/1
f 56/143/1 100/63/9 2/65/11
f 79/69/1 101/66/9 23/68/1
f 15/18/1 47/17/9 79/69/1
f 134/132/9 67/70/4 77/72/9
f 45/109/9 111/73/9 21/75/1
f 130/91/9 69/76/4 75/78/9
f 75/78/9 20/77/4 127/80/9
f 117/140/9 28/81/4 128/83/9
f 124/128/9 59/84/4 72/86/9
f 72/86/9 10/85/4 129/88/9
f 40/43/1 54/42/9 68/89/1
f 112/139/9 41/90/4 130/91/9
f 16/96/4 82/92/4 78/94/9
f 136/104/9 65/95/4 78/94/9
f 120/134/9 24/97/4 122/99/9
f 33/51/9 99/100/9 11/52/1
f 135/20/9 90/19/4 97/103/9
f 97/103/9 37/102/4 136/104/9
f 99/100/9 48/105/9 89/101/1
f 125/58/9 88/57/4 118/107/9
f 70/138/1 108/108/9 21/75/1
f 73/133/9 14/110/4 133/112/9
f 111/73/9 53/113/9 87/74/1
f 131/35/9 96/34/4 107/115/9
f 77/72/9 18/71/4 123/117/9
f 25/62/1 51/61/9 58/118/1
f 32/130/9 104/25/9 13/120/1
f 122/99/9 57/98/4 81/121/5
f 109/126/9 52/122/9 95/124/1
f 1/209/13 35/125/7 95/124/1
f 119/142/9 26/127/4 124/128/9
f 62/141/1 110/129/9 13/120/1
f 102/137/9 39/131/4 134/132/9
f 126/56/9 63/55/4 73/133/9
f 121/93/9 82/92/4 120/134/9
f 128/83/9 61/82/4 74/21/9
f 34/106/1 48/105/9 64/136/1
f 133/112/9 92/111/4 102/137/9
f 42/123/1 52/122/9 70/138/1
f 129/88/9 94/87/4 112/139/9
f 127/80/9 86/79/4 117/140/9
f 53/113/9 110/129/9 29/114/1
f 123/117/9 84/116/4 119/142/9
f 49/67/9 100/63/9 23/68/1
f 117/140/9 128/83/9 115/47/9
f 74/21/9 135/20/9 99/100/9
f 97/103/9 136/104/9 98/16/9
f 78/94/9 121/93/9 101/66/9
f 120/134/9 122/99/9 100/63/9
f 81/121/5 36/64/5 100/63/9
f 100/63/9 49/67/9 120/134/9
f 101/66/9 47/17/9 78/94/9
f 98/16/9 48/105/9 97/103/9
f 99/100/9 33/51/9 74/21/9
f 115/47/9 55/46/9 117/140/9
f 116/49/9 44/39/9 75/78/9
f 113/38/9 54/42/9 112/139/9
f 31/44/9 105/59/9 72/86/9
f 54/42/9 114/41/9 112/139/9
f 55/46/9 116/49/9 117/140/9
f 48/105/9 135/20/9 97/103/9
f 49/67/9 101/66/9 120/134/9
f 122/99/9 81/121/5 100/63/9
f 136/104/9 78/94/9 98/16/9
f 128/83/9 74/21/9 115/47/9
f 75/78/9 127/80/9 116/49/9
f 112/139/9 130/91/9 113/38/9
f 72/86/9 129/88/9 114/41/9
f 119/142/9 124/128/9 51/61/9
f 134/132/9 77/72/9 46/23/9
f 123/117/9 119/142/9 51/61/9
f 129/88/9 112/139/9 114/41/9
f 127/80/9 117/140/9 116/49/9
f 78/94/9 47/17/9 98/16/9
f 99/100/9 135/20/9 48/105/9
f 120/134/9 101/66/9 121/93/9
f 130/91/9 75/78/9 113/38/9
f 77/72/9 123/117/9 106/29/9
f 133/112/9 102/137/9 50/26/9
f 126/56/9 73/133/9 32/130/9
f 125/58/9 118/107/9 53/113/9
f 132/33/9 76/37/9 45/109/9
f 131/35/9 107/115/9 52/122/9
f 35/125/7 80/208/7 131/35/9
f 52/122/9 109/126/9 131/35/9
f 45/109/9 108/108/9 132/33/9
f 53/113/9 111/73/9 125/58/9
f 32/130/9 110/129/9 126/56/9
f 50/26/9 104/25/9 133/112/9
f 106/29/9 46/23/9 77/72/9
f 103/22/9 50/26/9 102/137/9
f 111/73/9 45/109/9 125/58/9
f 104/25/9 32/130/9 133/112/9
f 51/61/9 106/29/9 123/117/9
f 114/41/9 31/44/9 72/86/9
f 33/51/9 115/47/9 74/21/9
f 124/128/9 105/59/9 51/61/9
f 118/107/9 126/56/9 53/113/9
f 102/137/9 134/132/9 103/22/9
f 44/39/9 113/38/9 75/78/9
f 45/109/9 76/37/9 125/58/9
f 105/59/9 124/128/9 72/86/9
f 109/126/9 35/125/7 131/35/9
f 46/23/9 103/22/9 134/132/9
f 126/56/9 110/129/9 53/113/9
f 107/115/9 132/33/9 52/122/9
f 32/130/9 73/133/9 133/112/9
