# Blender v2.77 (sub 0) OBJ File: 'fountain.blend'
# www.blender.org
v 0.590336 -3.901726 -1.022491
v -0.590336 -2.218805 -1.022491
v 1.180671 -3.901726 0.000001
v -1.180672 -2.218805 0.000000
v 0.590335 -3.901726 1.022492
v -0.590337 -2.218805 1.022492
v -0.590337 -3.901726 1.022492
v 0.590335 -2.218805 1.022492
v -1.180672 -3.901726 0.000000
v 1.180671 -2.218805 0.000001
v -0.590336 -3.901726 -1.022491
v 0.590336 -2.218805 -1.022491
v -0.323579 -1.686605 -0.560453
v -0.647157 -1.686604 0.000000
v -0.323579 -1.686604 0.560454
v 0.323578 -1.686604 0.560454
v 0.323578 -1.686605 -0.560453
v -1.113574 -0.492523 -1.928765
v -2.227147 -0.492523 -0.000001
v -1.113574 -0.492523 1.928766
v 1.113572 -0.492523 1.928766
v 2.227146 -0.492523 0.000001
v 1.113573 -0.492523 -1.928765
v -0.347453 0.502774 -0.601806
v -0.694906 0.502774 -0.000000
v -0.347453 0.502774 0.601805
v 0.347452 0.502774 0.601806
v 0.694905 0.502774 0.000000
v 0.347452 0.502774 -0.601806
v -0.183794 1.331341 -0.318340
v -0.367588 1.331341 -0.000000
v -0.183794 1.331341 0.318340
v 0.183793 1.331341 0.318340
v 0.367587 1.331341 -0.000000
v 0.183793 1.331341 -0.318340
v -0.641541 1.981655 -1.111180
v -1.283080 1.981655 -0.000001
v -0.641541 1.981655 1.111179
v 0.641539 1.981655 1.111179
v 1.283079 1.981655 0.000000
v 0.641539 1.981655 -1.111180
v -0.289841 2.406638 -0.502018
v -0.579680 2.406638 -0.000001
v -0.289841 2.406638 0.502016
v 0.289839 2.406638 0.502017
v 0.579679 2.406638 -0.000000
v 0.289839 2.406638 -0.502018
v -0.150642 3.289938 -0.260918
v -0.301283 3.289938 -0.000001
v -0.150642 3.289938 0.260917
v 0.150640 3.289938 0.260917
v 0.301281 3.289938 -0.000000
v 0.150640 3.289938 -0.260918
v -0.381086 4.116898 -0.660061
v -0.381086 4.116898 0.660060
v 0.381086 4.116898 0.660061
v 0.762173 4.116898 0.000000
v 0.381087 4.116898 -0.660060
v -0.435204 3.749148 -0.753796
v -0.870409 3.749149 -0.000000
v 0.435204 3.749149 0.753796
v 0.870409 3.749149 0.000000
v -0.435205 3.749149 0.753796
v 0.435205 3.749148 -0.753796
v -0.000000 -4.116898 -5.630383
v -0.000000 -2.418328 -4.531090
v 3.981282 -4.116898 -3.981281
v 3.203965 -2.418328 -3.203964
v 5.630383 -4.116898 0.000001
v 4.531090 -2.418328 0.000001
v 3.981282 -4.116897 3.981283
v 3.203965 -2.418327 3.203966
v -0.000001 -4.116897 5.630384
v -0.000001 -2.418327 4.531092
v -3.981283 -4.116897 3.981283
v -3.203966 -2.418327 3.203965
v -5.630383 -4.116898 0.000001
v -4.531090 -2.418328 0.000001
v -3.981283 -4.116898 -3.981281
v -3.203966 -2.418328 -3.203964
v 3.981282 -3.174693 -3.981282
v -0.000000 -3.174694 -5.630383
v 5.630383 -3.174693 0.000001
v 3.981282 -3.174693 3.981283
v -0.000001 -3.174693 5.630384
v -3.981283 -3.174693 3.981282
v -5.630383 -3.174693 0.000001
v -3.981283 -3.174693 -3.981281
v 3.203965 -3.901727 -3.203964
v -0.000000 -3.901727 -4.531090
v 4.531090 -3.901726 0.000001
v 3.203965 -3.901726 3.203966
v -0.000001 -3.901726 4.531092
v -3.203966 -3.049146 3.203965
v -4.531090 -3.901726 0.000001
v -3.203966 -3.901727 -3.203964
v 0.590336 -3.901726 -1.022491
v 1.180671 -3.901726 0.000001
v 0.590335 -3.901726 1.022492
v -0.590337 -3.901726 1.022492
v -1.180672 -3.901726 0.000000
v -0.590336 -3.901726 -1.022491
v 0.647156 -1.686604 0.000001
v -1.382126 0.701558 -2.393913
v 1.382126 0.701558 -2.393912
v -2.764252 0.701558 -0.000001
v -1.382127 0.701559 2.393913
v 1.382125 0.701559 2.393913
v 2.764251 0.701558 0.000001
v -0.183794 1.331341 -0.318340
v 0.183793 1.331341 -0.318340
v -0.367588 1.331341 -0.000000
v -0.183794 1.331341 0.318340
v 0.183793 1.331341 0.318340
v 0.367587 1.331341 -0.000000
v -0.785818 2.631968 -1.361076
v 0.785816 2.631968 -1.361076
v -1.571635 2.631968 -0.000001
v -0.785818 2.631968 1.361074
v 0.785816 2.631968 1.361075
v 1.571634 2.631968 -0.000000
v -0.150642 3.289938 -0.260918
v 0.150640 3.289938 -0.260918
v -0.301283 3.289938 -0.000001
v -0.150642 3.289938 0.260917
v 0.150640 3.289938 0.260917
v 0.301281 3.289938 -0.000000
v -0.762172 4.116898 -0.000000
v 3.203965 -2.418328 -3.203964
v -0.000000 -2.418328 -4.531090
v 4.531090 -2.418328 0.000001
v 3.203965 -2.418327 3.203966
v -0.000001 -2.418327 4.531092
v -3.203966 -2.418327 3.203965
v -4.531090 -2.418328 0.000001
v -3.203966 -2.418328 -3.203964
v 3.203965 -3.049147 -3.203964
v -0.000000 -3.049147 -4.531090
v 4.531090 -3.049147 0.000001
v 3.203965 -3.049146 3.203966
v -0.000001 -3.049146 4.531092
v -3.203966 -3.901726 3.203965
v -4.531090 -3.049147 0.000001
v -3.203966 -3.049147 -3.203964
v 1.146381 0.701558 -1.985590
v -1.146381 0.701558 -1.985590
v -2.292762 0.701558 -0.000001
v -1.146382 0.701559 1.985590
v 1.146380 0.701559 1.985590
v 2.292761 0.701558 0.000001
v 0.974597 0.522225 -2.037829
v -1.318166 0.522225 -2.037829
v -2.464546 0.522226 -0.052240
v -1.318166 0.522226 1.933351
v 0.974596 0.522226 1.933351
v 2.120977 0.522226 -0.052239
v 0.596348 2.631968 -1.032907
v -0.596349 2.631968 -1.032907
v -1.192698 2.631968 -0.000001
v -0.596350 2.631968 1.032905
v 0.596348 2.631968 1.032906
v 1.192697 2.631968 -0.000000
v 0.596348 2.417646 -1.032906
v -0.596349 2.417646 -1.032906
v -1.192698 2.417646 -0.000001
v -0.596350 2.417646 1.032906
v 0.596348 2.417646 1.032906
v 1.192697 2.417646 -0.000000
v -0.956245 4.116898 -0.000000
v -0.478122 4.116898 -0.828133
v 0.956246 4.116898 0.000000
v 0.478123 4.116898 0.828133
v -0.478122 4.116898 0.828133
v 0.478123 4.116898 -0.828133
v -0.762172 4.002723 -0.000000
v -0.381086 4.002723 -0.660061
v 0.762173 4.002723 0.000000
v 0.381086 4.002723 0.660061
v -0.381086 4.002723 0.660060
v 0.381087 4.002723 -0.660060
vt 0.2341 0.5153
vt 0.2399 0.5234
vt 0.2341 0.5234
vt 0.2399 0.5153
vt 0.2432 0.5234
vt 0.2491 0.5152
vt 0.2522 0.5235
vt 0.2491 0.5233
vt 0.3090 0.5110
vt 0.3031 0.5028
vt 0.3090 0.5029
vt 0.2432 0.5152
vt 0.2432 0.5233
vt 0.3031 0.5110
vt 0.3003 0.5027
vt 0.2677 0.5173
vt 0.2654 0.5217
vt 0.2654 0.5160
vt 0.2290 0.5127
vt 0.2341 0.5213
vt 0.2239 0.5156
vt 0.2750 0.4870
vt 0.2846 0.4848
vt 0.2778 0.4886
vt 0.3077 0.5135
vt 0.2981 0.5163
vt 0.2958 0.5207
vt 0.2958 0.5151
vt 0.2356 0.5127
vt 0.2958 0.5163
vt 0.2935 0.5207
vt 0.2935 0.5151
vt 0.2478 0.5127
vt 0.3090 0.4999
vt 0.3153 0.4954
vt 0.3151 0.5010
vt 0.2778 0.4917
vt 0.2750 0.5009
vt 0.2750 0.4933
vt 0.2654 0.4955
vt 0.2722 0.4886
vt 0.2722 0.4917
vt 0.2654 0.4848
vt 0.3243 0.4638
vt 0.3251 0.4536
vt 0.3251 0.4646
vt 0.2792 0.5009
vt 0.2850 0.5085
vt 0.2790 0.5072
vt 0.3153 0.5004
vt 0.3213 0.4955
vt 0.3213 0.5015
vt 0.3153 0.5118
vt 0.3093 0.5132
vt 0.2792 0.5206
vt 0.2852 0.5192
vt 0.3153 0.5137
vt 0.3213 0.5122
vt 0.2964 0.5098
vt 0.2948 0.5151
vt 0.2948 0.5106
vt 0.2846 0.4935
vt 0.2887 0.4909
vt 0.2887 0.4928
vt 0.3131 0.5148
vt 0.3091 0.5149
vt 0.3132 0.5132
vt 0.2597 0.5153
vt 0.2638 0.5127
vt 0.2637 0.5145
vt 0.3091 0.5175
vt 0.3132 0.5182
vt 0.2597 0.5171
vt 0.2638 0.5178
vt 0.2846 0.4953
vt 0.2887 0.4962
vt 0.2852 0.5127
vt 0.2885 0.5057
vt 0.2885 0.5119
vt 0.2892 0.5120
vt 0.2932 0.5080
vt 0.2932 0.5098
vt 0.2948 0.5027
vt 0.2964 0.5080
vt 0.2948 0.5071
vt 0.3003 0.5120
vt 0.2892 0.5058
vt 0.2892 0.4882
vt 0.2880 0.4824
vt 0.2891 0.4824
vt 0.2852 0.5051
vt 0.2885 0.5023
vt 0.3247 0.5034
vt 0.3213 0.4965
vt 0.3246 0.4972
vt 0.3247 0.4943
vt 0.2848 0.4909
vt 0.2879 0.4840
vt 0.2880 0.4902
vt 0.2846 0.4834
vt 0.2880 0.4807
vt 0.3224 0.5065
vt 0.3244 0.5045
vt 0.3243 0.5067
vt 0.2890 0.4977
vt 0.2846 0.4975
vt 0.2890 0.4962
vt 0.2921 0.5193
vt 0.2920 0.5151
vt 0.2935 0.5193
vt 0.3174 0.5137
vt 0.3197 0.5180
vt 0.3182 0.5179
vt 0.2898 0.5151
vt 0.2892 0.5193
vt 0.3153 0.5180
vt 0.2846 0.4998
vt 0.2890 0.5005
vt 0.2884 0.5148
vt 0.2878 0.5184
vt 0.2878 0.5148
vt 0.2872 0.5193
vt 0.2852 0.5149
vt 0.2871 0.5151
vt 0.3244 0.5109
vt 0.3224 0.5183
vt 0.3243 0.5139
vt 0.3243 0.5181
vt 0.3224 0.5137
vt 0.3243 0.5116
vt 0.2853 0.5127
vt 0.2872 0.5131
vt 0.2559 0.5184
vt 0.2522 0.5190
vt 0.2546 0.5176
vt 0.2597 0.5148
vt 0.2572 0.5176
vt 0.2572 0.5162
vt 0.2559 0.5127
vt 0.2559 0.5155
vt 0.2522 0.5148
vt 0.2546 0.5162
vt 0.2559 0.5211
vt 0.2991 0.4896
vt 0.3090 0.5027
vt 0.2997 0.5026
vt 0.3071 0.4321
vt 0.3165 0.4124
vt 0.3165 0.4321
vt 0.3071 0.4507
vt 0.2898 0.4528
vt 0.2986 0.4658
vt 0.2892 0.4659
vt 0.2986 0.4865
vt 0.2892 0.4865
vt 0.2991 0.5026
vt 0.2898 0.5027
vt 0.3242 0.4686
vt 0.3169 0.4527
vt 0.3243 0.4527
vt 0.2991 0.4689
vt 0.3085 0.4896
vt 0.3090 0.4528
vt 0.3085 0.4689
vt 0.2654 0.4772
vt 0.2288 0.5127
vt 0.2502 0.4625
vt 0.2187 0.4291
vt 0.2136 0.4478
vt 0.2136 0.4271
vt 0.2309 0.4576
vt 0.2187 0.4458
vt 0.2481 0.4576
vt 0.2288 0.4625
vt 0.2603 0.4458
vt 0.2502 0.4625
vt 0.2603 0.4291
vt 0.2654 0.4478
vt 0.2481 0.4173
vt 0.2654 0.4271
vt 0.2309 0.4173
vt 0.2502 0.4124
vt 0.2288 0.4124
vt 0.7414 0.4059
vt 0.7869 0.4241
vt 0.7680 0.4682
vt 0.3164 0.4633
vt 0.3095 0.4528
vt 0.3168 0.4527
vt 0.3168 0.4929
vt 0.3090 0.4799
vt 0.3164 0.4799
vt 0.3243 0.4124
vt 0.3165 0.4254
vt 0.3169 0.4124
vt 0.3243 0.4525
vt 0.3165 0.4420
vt 0.3239 0.4420
vt 0.3243 0.4836
vt 0.3168 0.4686
vt 0.3090 0.4633
vt 0.3239 0.4254
vt 0.2674 0.4716
vt 0.2654 0.4594
vt 0.2674 0.4605
vt 0.2773 0.4527
vt 0.2773 0.4550
vt 0.2872 0.4605
vt 0.2892 0.4594
vt 0.2892 0.4727
vt 0.2872 0.4716
vt 0.2773 0.4794
vt 0.2773 0.4771
vt 0.2654 0.4727
vt 0.7253 0.4790
vt 0.7558 0.4790
vt 0.7405 0.5045
vt 0.3224 0.5204
vt 0.3213 0.5096
vt 0.3222 0.5094
vt 0.2771 0.4763
vt 0.2869 0.4708
vt 0.2885 0.5119
vt 0.2891 0.5015
vt 0.2891 0.5126
vt 0.3215 0.5043
vt 0.3224 0.5041
vt 0.3251 0.4757
vt 0.3243 0.4652
vt 0.3251 0.4646
vt 0.2773 0.5113
vt 0.2722 0.5160
vt 0.2722 0.5142
vt 0.2654 0.5123
vt 0.2670 0.5113
vt 0.2654 0.5047
vt 0.2670 0.5056
vt 0.2722 0.5027
vt 0.2722 0.5009
vt 0.2790 0.5047
vt 0.2773 0.5056
vt 0.2790 0.5123
vt 0.6426 0.5740
vt 0.6426 0.5652
vt 0.6585 0.5652
vt 0.3254 0.4213
vt 0.3243 0.4156
vt 0.3254 0.4156
vt 0.3255 0.5196
vt 0.3243 0.5139
vt 0.3253 0.5139
vt 0.2881 0.4794
vt 0.2892 0.4794
vt 0.3243 0.4124
vt 0.3254 0.4124
vt 0.3244 0.5112
vt 0.3255 0.5111
vt 0.3210 0.4919
vt 0.3168 0.4905
vt 0.3177 0.4900
vt 0.3242 0.4863
vt 0.3210 0.4836
vt 0.3251 0.4859
vt 0.3168 0.4859
vt 0.3177 0.4863
vt 0.3242 0.4900
vt 0.3210 0.4928
vt 0.3251 0.4905
vt 0.3210 0.4845
vt 0.7865 0.5704
vt 0.7815 0.5732
vt 0.7764 0.5647
vt 0.2877 0.5145
vt 0.2872 0.5127
vt 0.2878 0.5127
vt 0.2891 0.5145
vt 0.2886 0.5126
vt 0.2891 0.5126
vt 0.2891 0.5182
vt 0.2885 0.5145
vt 0.2878 0.5127
vt 0.2884 0.5127
vt 0.2878 0.5181
vt 0.2872 0.5145
vt 0.2432 0.5153
vt 0.2522 0.5154
vt 0.3003 0.5108
vt 0.2677 0.5205
vt 0.2239 0.5213
vt 0.2341 0.5156
vt 0.2290 0.5241
vt 0.2750 0.4794
vt 0.3045 0.5135
vt 0.2981 0.5195
vt 0.2388 0.5127
vt 0.2958 0.5195
vt 0.2446 0.5127
vt 0.3093 0.4929
vt 0.2846 0.4955
vt 0.3243 0.4527
vt 0.2852 0.5034
vt 0.3153 0.4929
vt 0.2846 0.4925
vt 0.3090 0.5157
vt 0.2597 0.5144
vt 0.3003 0.5058
vt 0.2881 0.4882
vt 0.2852 0.5009
vt 0.3214 0.5041
vt 0.3214 0.4929
vt 0.2848 0.4794
vt 0.3225 0.5041
vt 0.2846 0.4983
vt 0.2913 0.5151
vt 0.3182 0.5137
vt 0.3159 0.5137
vt 0.2884 0.5184
vt 0.2853 0.5195
vt 0.3225 0.5111
vt 0.3224 0.5111
vt 0.2597 0.5190
vt 0.3071 0.4124
vt 0.3165 0.4507
vt 0.2991 0.4527
vt 0.2997 0.4527
vt 0.2136 0.4980
vt 0.2136 0.4772
vt 0.2288 0.4625
vt 0.2654 0.4980
vt 0.2502 0.5127
vt 0.7414 0.4682
vt 0.7225 0.4499
vt 0.7225 0.4241
vt 0.7680 0.4059
vt 0.7869 0.4499
vt 0.3095 0.4929
vt 0.3169 0.4525
vt 0.3169 0.4836
vt 0.7253 0.4960
vt 0.7405 0.4704
vt 0.7558 0.4960
vt 0.3215 0.5206
vt 0.2885 0.5009
vt 0.3243 0.4763
vt 0.6585 0.5740
vt 0.6506 0.5785
vt 0.6506 0.5607
vt 0.3243 0.4213
vt 0.3244 0.5197
vt 0.7815 0.5619
vt 0.7865 0.5647
vt 0.7764 0.5704
vt 0.2886 0.5182
vt 0.2872 0.5181
vn 0.0000 -0.0000 -1.0000
vn 0.8660 -0.0000 -0.5000
vn -0.8660 -0.0000 -0.5000
vn 0.8660 0.0000 0.5000
vn -0.8660 0.0000 0.5000
vn -0.0000 0.0000 1.0000
vn -0.6540 0.6556 -0.3776
vn -0.0000 -1.0000 -0.0000
vn 0.5694 -0.7534 0.3288
vn 0.6540 0.6556 0.3776
vn -0.0000 0.6556 0.7551
vn 0.0000 0.6556 -0.7551
vn 0.6540 0.6556 -0.3776
vn -0.6540 0.6556 0.3776
vn -0.8070 -0.3630 -0.4659
vn -0.5694 -0.7534 0.3288
vn 0.0000 -0.7534 -0.6575
vn 0.5694 -0.7534 -0.3288
vn 0.0000 -0.7534 0.6575
vn -0.5694 -0.7534 -0.3288
vn 0.0000 0.2797 -0.9601
vn 0.0000 -0.3630 0.9318
vn 0.8070 -0.3630 -0.4659
vn -0.8070 -0.3630 0.4659
vn 0.8070 -0.3630 0.4659
vn 0.0000 -0.3630 -0.9318
vn 0.5492 -0.7732 0.3171
vn 0.8194 0.3237 -0.4731
vn 0.0000 0.3237 0.9462
vn -0.8194 0.3237 -0.4731
vn 0.8194 0.3237 0.4731
vn -0.8194 0.3237 0.4731
vn 0.0000 0.3237 -0.9462
vn 0.0000 -0.3587 -0.9335
vn -0.5492 -0.7732 0.3171
vn 0.0000 -0.7732 -0.6342
vn 0.5492 -0.7732 -0.3171
vn 0.0000 -0.7732 0.6342
vn -0.5492 -0.7732 -0.3171
vn 0.8084 -0.3587 -0.4667
vn 0.8084 -0.3587 0.4667
vn -0.0000 -0.3587 0.9335
vn -0.8084 -0.3587 0.4667
vn -0.8084 -0.3587 -0.4667
vn -0.8489 -0.1981 -0.4901
vn 0.8355 0.2633 -0.4824
vn -0.0000 0.2633 0.9647
vn -0.8355 0.2633 -0.4824
vn 0.8355 0.2633 0.4824
vn -0.8355 0.2633 0.4824
vn 0.0000 0.2633 -0.9647
vn 0.8489 -0.1981 0.4901
vn -0.8489 -0.1981 0.4901
vn 0.0000 -0.1981 -0.9802
vn 0.8489 -0.1981 -0.4901
vn 0.0000 -0.1981 0.9802
vn 0.0000 -0.7317 0.6817
vn 0.5903 -0.7317 -0.3408
vn 0.0000 -0.7317 -0.6817
vn -0.5903 -0.7317 0.3408
vn 0.5903 -0.7317 0.3408
vn -0.5903 -0.7317 -0.3408
vn 0.9239 -0.0000 -0.3827
vn 0.3827 0.0000 -0.9239
vn -0.3827 0.0000 -0.9239
vn -0.9239 0.0000 -0.3827
vn -0.9239 0.0000 0.3827
vn -0.3827 0.0000 0.9239
vn 0.9239 0.0000 0.3827
vn 0.3827 0.0000 0.9239
vn 0.2286 0.8020 -0.5518
vn 0.5518 0.8020 -0.2286
vn 0.5518 0.8020 0.2286
vn 0.2286 0.8020 0.5518
vn -0.2286 0.8020 0.5518
vn -0.5518 0.8020 0.2286
vn -0.5518 0.8020 -0.2286
vn -0.2286 0.8020 -0.5518
vn 0.0000 1.0000 -0.0000
vn 0.6200 -0.6982 0.3580
vn -0.6200 0.6982 -0.3580
vn 0.7148 -0.5645 -0.4127
vn -0.0000 -0.2797 0.9601
vn -0.7148 0.5645 0.4127
s off
f 2/1/1 97/2/1 102/3/1
f 12/4/2 98/5/2 97/2/2
f 4/6/3 102/7/3 101/8/3
f 10/9/4 99/10/4 98/11/4
f 6/12/5 101/8/5 100/13/5
f 8/14/6 100/15/6 99/10/6
f 14/16/7 2/17/7 4/18/7
f 3/19/8 7/20/8 1/21/8
f 103/22/9 21/23/9 16/24/9
f 103/25/10 8/14/10 10/9/10
f 16/26/11 6/27/11 8/28/11
f 13/29/12 12/4/12 2/1/12
f 17/30/13 10/31/13 12/32/13
f 6/12/14 14/33/14 4/6/14
f 106/34/15 18/35/15 19/36/15
f 15/37/16 19/38/16 14/39/16
f 18/40/17 17/41/17 13/42/17
f 23/43/18 103/22/18 17/41/18
f 21/23/19 15/37/19 16/24/19
f 14/39/20 18/40/20 13/42/20
f 148/44/21 155/45/21 154/46/21
f 107/47/22 21/48/22 108/49/22
f 105/50/23 22/51/23 23/52/23
f 106/34/24 20/53/24 107/54/24
f 109/55/25 21/48/25 22/56/25
f 104/57/26 23/52/26 18/58/26
f 115/59/27 39/60/27 33/61/27
f 111/62/28 28/63/28 29/64/28
f 27/65/29 113/66/29 26/67/29
f 112/68/30 24/69/30 25/70/30
f 34/71/31 27/65/31 28/72/31
f 113/73/32 25/70/32 26/74/32
f 110/75/33 29/64/33 24/76/33
f 116/77/34 41/78/34 36/79/34
f 38/80/35 31/81/35 32/82/35
f 36/83/36 35/84/36 30/85/36
f 35/84/37 40/86/37 115/59/37
f 39/60/38 32/82/38 33/61/38
f 37/87/39 30/85/39 31/81/39
f 157/88/5 168/89/5 162/90/5
f 117/91/40 40/92/40 41/78/40
f 40/93/41 120/94/41 39/95/41
f 120/94/42 38/96/42 39/95/42
f 119/97/43 37/98/43 38/99/43
f 118/100/44 36/101/44 37/98/44
f 169/102/45 59/103/45 60/104/45
f 47/105/46 127/106/46 46/107/46
f 45/108/47 125/109/47 44/110/47
f 124/111/48 42/112/48 43/113/48
f 127/114/49 45/108/49 46/115/49
f 44/116/50 124/111/50 43/113/50
f 122/117/51 47/105/51 42/118/51
f 55/119/1 178/120/1 179/121/1
f 62/122/52 172/123/52 61/124/52
f 63/125/53 169/102/53 60/104/53
f 170/126/54 64/127/54 59/128/54
f 174/129/55 62/130/55 64/127/55
f 61/124/56 173/131/56 63/132/56
f 51/133/57 63/134/57 50/135/57
f 64/136/58 52/137/58 53/138/58
f 59/139/59 53/138/59 48/140/59
f 50/135/60 60/141/60 49/142/60
f 52/137/61 61/143/61 51/133/61
f 49/142/62 59/139/62 48/140/62
f 83/144/63 67/145/63 81/146/63
f 82/147/64 67/148/64 65/149/64
f 65/149/65 88/150/65 82/147/65
f 88/151/66 77/152/66 87/153/66
f 87/153/67 75/154/67 86/155/67
f 86/155/68 73/156/68 85/157/68
f 74/158/64 142/159/64 134/160/64
f 84/161/69 69/162/69 83/144/69
f 84/161/70 73/163/70 71/164/70
f 71/165/8 77/166/8 69/167/8
f 130/168/71 81/169/71 82/170/71
f 131/171/72 81/169/72 129/172/72
f 132/173/73 83/174/73 131/171/73
f 133/175/74 84/176/74 132/173/74
f 76/177/75 85/178/75 133/175/75
f 135/179/76 86/180/76 76/177/76
f 136/181/77 87/182/77 135/179/77
f 130/168/78 88/183/78 136/181/78
f 143/184/79 141/185/79 139/186/79
f 70/187/66 92/188/66 72/189/66
f 66/190/68 89/191/68 68/192/68
f 66/193/70 96/194/70 90/195/70
f 134/196/63 95/197/63 78/198/63
f 72/199/65 93/200/65 74/158/65
f 68/192/67 91/201/67 70/187/67
f 78/198/69 96/194/69 80/202/69
f 145/203/79 104/204/79 146/205/79
f 146/205/79 106/206/79 147/207/79
f 148/208/79 106/206/79 107/209/79
f 148/208/79 108/210/79 149/211/79
f 149/211/79 109/212/79 150/213/79
f 150/213/79 105/214/79 145/203/79
f 152/215/79 154/216/79 156/217/79
f 147/218/80 152/219/80 146/220/80
f 149/211/81 156/221/81 155/222/81
f 147/223/82 154/224/82 153/225/82
f 146/220/83 151/226/83 145/227/83
f 145/228/84 156/229/84 150/230/84
f 157/231/79 116/232/79 158/233/79
f 158/233/79 118/234/79 159/235/79
f 159/235/79 119/236/79 160/237/79
f 161/238/79 119/236/79 120/239/79
f 161/238/79 121/240/79 162/241/79
f 162/241/79 117/242/79 157/231/79
f 165/243/79 166/244/79 168/245/79
f 161/246/1 166/247/1 160/248/1
f 159/249/4 164/250/4 158/251/4
f 162/90/3 167/252/3 161/253/3
f 160/248/2 165/254/2 159/255/2
f 158/251/6 163/256/6 157/257/6
f 54/258/79 169/259/79 128/260/79
f 57/261/79 172/262/79 171/263/79
f 128/260/79 173/264/79 55/265/79
f 58/266/79 170/267/79 54/258/79
f 57/261/79 174/268/79 58/266/79
f 55/265/79 172/262/79 56/269/79
f 178/270/79 177/271/79 176/272/79
f 54/273/6 180/274/6 58/275/6
f 57/276/3 178/277/3 56/278/3
f 58/279/5 177/280/5 57/276/5
f 55/119/2 175/281/2 128/282/2
f 128/283/4 176/284/4 54/273/4
f 2/1/1 12/4/1 97/2/1
f 12/4/2 10/285/2 98/5/2
f 4/6/3 2/286/3 102/7/3
f 10/9/4 8/14/4 99/10/4
f 6/12/5 4/6/5 101/8/5
f 8/14/6 6/287/6 100/15/6
f 14/16/7 13/288/7 2/17/7
f 11/289/8 1/21/8 7/20/8
f 3/19/8 5/290/8 7/20/8
f 7/20/8 9/291/8 11/289/8
f 103/22/9 22/292/9 21/23/9
f 103/25/10 16/293/10 8/14/10
f 16/26/11 15/294/11 6/27/11
f 13/29/12 17/295/12 12/4/12
f 17/30/13 103/296/13 10/31/13
f 6/12/14 15/297/14 14/33/14
f 106/34/15 104/298/15 18/35/15
f 15/37/16 20/299/16 19/38/16
f 18/40/17 23/43/17 17/41/17
f 23/43/18 22/292/18 103/22/18
f 21/23/19 20/299/19 15/37/19
f 14/39/20 19/38/20 18/40/20
f 148/44/21 149/300/21 155/45/21
f 107/47/22 20/301/22 21/48/22
f 105/50/23 109/302/23 22/51/23
f 106/34/24 19/36/24 20/53/24
f 109/55/25 108/49/25 21/48/25
f 104/57/26 105/50/26 23/52/26
f 115/59/27 40/86/27 39/60/27
f 111/62/28 34/303/28 28/63/28
f 27/65/29 114/304/29 113/66/29
f 112/68/30 110/305/30 24/69/30
f 34/71/31 114/304/31 27/65/31
f 113/73/32 112/68/32 25/70/32
f 110/75/33 111/62/33 29/64/33
f 116/77/34 117/91/34 41/78/34
f 38/80/35 37/87/35 31/81/35
f 36/83/36 41/306/36 35/84/36
f 35/84/37 41/306/37 40/86/37
f 39/60/38 38/80/38 32/82/38
f 37/87/39 36/83/39 30/85/39
f 157/88/5 163/307/5 168/89/5
f 117/91/40 121/308/40 40/92/40
f 40/93/41 121/309/41 120/94/41
f 120/94/42 119/310/42 38/96/42
f 119/97/43 118/100/43 37/98/43
f 118/100/44 116/311/44 36/101/44
f 169/102/45 170/312/45 59/103/45
f 47/105/46 123/313/46 127/106/46
f 45/108/47 126/314/47 125/109/47
f 124/111/48 122/315/48 42/112/48
f 127/114/49 126/314/49 45/108/49
f 44/116/50 125/316/50 124/111/50
f 122/117/51 123/313/51 47/105/51
f 55/119/1 56/317/1 178/120/1
f 62/122/52 171/318/52 172/123/52
f 63/125/53 173/319/53 169/102/53
f 170/126/54 174/129/54 64/127/54
f 174/129/55 171/320/55 62/130/55
f 61/124/56 172/123/56 173/131/56
f 51/133/57 61/143/57 63/134/57
f 64/136/58 62/321/58 52/137/58
f 59/139/59 64/136/59 53/138/59
f 50/135/60 63/134/60 60/141/60
f 52/137/61 62/321/61 61/143/61
f 49/142/62 60/141/62 59/139/62
f 83/144/63 69/162/63 67/145/63
f 82/147/64 81/322/64 67/148/64
f 65/149/65 79/323/65 88/150/65
f 88/151/66 79/324/66 77/152/66
f 87/153/67 77/152/67 75/154/67
f 86/155/68 75/154/68 73/156/68
f 74/158/64 93/200/64 142/159/64
f 84/161/69 71/164/69 69/162/69
f 84/161/70 85/325/70 73/163/70
f 79/326/8 65/327/8 67/328/8
f 67/328/8 69/167/8 77/166/8
f 71/165/8 73/329/8 77/166/8
f 75/330/8 77/166/8 73/329/8
f 79/326/8 67/328/8 77/166/8
f 130/168/71 129/172/71 81/169/71
f 131/171/72 83/174/72 81/169/72
f 132/173/73 84/176/73 83/174/73
f 133/175/74 85/178/74 84/176/74
f 76/177/75 86/180/75 85/178/75
f 135/179/76 87/182/76 86/180/76
f 136/181/77 88/183/77 87/182/77
f 130/168/78 82/170/78 88/183/78
f 139/186/79 137/331/79 138/332/79
f 138/332/79 144/333/79 143/184/79
f 143/184/79 94/334/79 141/185/79
f 141/185/79 140/335/79 139/186/79
f 139/186/79 138/332/79 143/184/79
f 70/187/66 91/201/66 92/188/66
f 66/190/68 90/336/68 89/191/68
f 66/193/70 80/202/70 96/194/70
f 134/196/63 142/337/63 95/197/63
f 72/199/65 92/338/65 93/200/65
f 68/192/67 89/191/67 91/201/67
f 78/198/69 95/197/69 96/194/69
f 145/203/79 105/214/79 104/204/79
f 146/205/79 104/204/79 106/206/79
f 148/208/79 147/207/79 106/206/79
f 148/208/79 107/209/79 108/210/79
f 149/211/79 108/210/79 109/212/79
f 150/213/79 109/212/79 105/214/79
f 156/217/79 151/339/79 152/215/79
f 152/215/79 153/340/79 154/216/79
f 154/216/79 155/341/79 156/217/79
f 147/218/80 153/342/80 152/219/80
f 149/211/81 150/213/81 156/221/81
f 147/223/82 148/343/82 154/224/82
f 146/220/83 152/219/83 151/226/83
f 145/228/84 151/344/84 156/229/84
f 157/231/79 117/242/79 116/232/79
f 158/233/79 116/232/79 118/234/79
f 159/235/79 118/234/79 119/236/79
f 161/238/79 160/237/79 119/236/79
f 161/238/79 120/239/79 121/240/79
f 162/241/79 121/240/79 117/242/79
f 168/245/79 163/345/79 164/346/79
f 164/346/79 165/243/79 168/245/79
f 166/244/79 167/347/79 168/245/79
f 161/246/1 167/348/1 166/247/1
f 159/249/4 165/349/4 164/250/4
f 162/90/3 168/89/3 167/252/3
f 160/248/2 166/247/2 165/254/2
f 158/251/6 164/250/6 163/256/6
f 54/258/79 170/267/79 169/259/79
f 57/261/79 56/269/79 172/262/79
f 128/260/79 169/259/79 173/264/79
f 58/266/79 174/268/79 170/267/79
f 57/261/79 171/263/79 174/268/79
f 55/265/79 173/264/79 172/262/79
f 176/272/79 175/350/79 179/351/79
f 179/351/79 178/270/79 176/272/79
f 177/271/79 180/352/79 176/272/79
f 54/273/6 176/284/6 180/274/6
f 57/276/3 177/280/3 178/277/3
f 58/279/5 180/353/5 177/280/5
f 55/119/2 179/121/2 175/281/2
f 128/283/4 175/354/4 176/284/4
