# Blender v2.76 (sub 0) OBJ File: 'house.blend'
# www.blender.org
v 3.772249 -2.689830 -3.989608
v -3.772248 -2.689830 -3.989609
v 3.772251 1.149053 -3.989607
v -3.772249 1.149053 -3.989608
v 0.000001 -2.689830 -3.989609
v 0.000001 2.689830 -3.989608
v -3.772249 -1.053163 -3.989609
v -3.772250 -2.689830 3.989605
v 3.772249 -2.689830 3.989607
v 3.109375 0.703768 3.989608
v -0.000000 -0.569978 3.819632
v -1.652399 -0.569978 3.819632
v -0.000000 -2.689830 3.819632
v -1.643445 -2.689830 3.819632
v -1.652399 -0.569978 3.941633
v -1.676487 -0.545991 3.983180
v -1.658853 -0.563551 3.965620
v -0.000000 -0.569978 3.941633
v 0.710846 0.121512 3.989607
v 0.006427 -0.565433 3.965620
v 0.023987 -0.553017 3.983180
v 0.047974 -2.689830 3.989606
v -0.000000 -2.689830 3.941632
v -0.047974 -2.689830 3.989606
v 0.023987 -2.689830 3.983178
v 0.006427 -2.689830 3.965619
v -1.643445 -2.689830 3.941632
v -1.691420 -2.689830 3.989606
v -1.595471 -2.689830 3.989606
v -1.649872 -2.689830 3.965619
v -1.667432 -2.689830 3.983178
v -0.047974 -2.689830 3.989606
v -1.595471 -2.689830 3.989606
v -3.772249 1.010241 -4.336636
v -4.119277 0.802025 -3.989608
v -4.119279 0.802025 3.989605
v -3.772251 1.010522 4.336633
v 0.000001 2.481614 -4.336636
v 3.772251 1.010241 -4.336635
v -0.000002 2.481894 4.336635
v 3.772247 1.010241 4.336636
v 4.119275 0.802025 3.989608
v 4.119279 0.802025 -3.989607
v 3.772247 1.149053 3.989608
v 3.109376 -2.026958 3.989607
v -3.772251 1.149053 3.989605
v -0.000002 2.689830 3.989607
v 0.047974 -0.536055 3.989606
v -1.700576 -0.522004 3.989606
v 0.710846 -2.026958 3.989606
v 3.109375 0.106422 3.989607
v 1.910111 -2.026958 3.989606
v 0.710846 -0.952723 3.989606
v 1.910111 0.113967 3.989607
v 3.109376 -0.960268 3.989607
v 1.910111 -0.956495 3.989607
v 3.109376 -0.960268 3.989607
v 1.910111 -0.956495 3.989607
v 1.910111 -2.026958 3.989606
v 0.710846 -0.952723 3.989606
v 1.910111 0.113967 3.989607
v 3.109376 -0.960268 3.989607
v 1.910111 -0.956495 3.989607
v 1.910111 -2.026958 3.989606
v 0.710846 -0.952723 3.989606
v 1.910111 0.113967 3.989607
v 1.910111 -0.956495 3.989607
v 3.109376 -0.960268 3.989607
v 1.910111 -0.956495 3.989607
v 1.910111 -2.026958 3.989606
v 3.109376 -2.026958 3.989607
v 0.710846 -0.952723 3.989606
v 0.710846 0.121512 3.989607
v 1.910111 0.113967 3.989607
v 3.109375 0.106422 3.989607
v 3.109376 -0.960268 3.989607
v 0.710846 -2.026958 3.989606
v 1.910111 -0.956495 3.989607
v 1.910111 -2.026958 3.989606
v 1.910111 0.113967 3.989607
v 0.710846 -0.952723 3.989606
v 1.910111 -0.956495 3.989607
v 3.109376 -0.960268 3.989607
v 1.910111 -2.026958 3.789606
v 3.109376 -2.026958 3.789606
v 0.710846 -0.952723 3.789606
v 0.710846 0.121512 3.789606
v 1.910111 0.113967 3.789607
v 3.109375 0.106422 3.789607
v 3.109376 -0.960268 3.789607
v 0.710846 -2.026958 3.789606
v 1.910111 -0.956495 3.789606
v 1.910111 -0.956495 3.789606
v 1.910111 -2.026958 3.789606
v 1.910111 0.113967 3.789607
v 0.710846 -0.952723 3.789606
v 1.910111 -0.956495 3.789606
v 3.109376 -0.960268 3.789607
vt 0.244163 0.542798
vt 0.253056 0.542798
vt 0.253056 0.599533
vt 0.638062 0.770571
vt 0.637895 0.713836
vt 0.685652 0.713836
vt 0.215207 0.643072
vt 0.216284 0.643072
vt 0.216284 0.743359
vt 0.221704 0.643071
vt 0.221704 0.743358
vt 0.221704 0.744160
vt 0.222518 0.643658
vt 0.243069 0.722682
vt 0.241996 0.722376
vt 0.242003 0.644204
vt 0.703421 0.764478
vt 0.694537 0.764478
vt 0.694537 0.713836
vt 0.254679 0.377484
vt 0.590136 0.377498
vt 0.590136 0.754893
vt 0.590472 0.770571
vt 0.590137 0.713836
vt 0.422408 0.000000
vt 0.590137 0.000000
vt 0.236573 0.725359
vt 0.236287 0.724224
vt 0.236573 0.720820
vt 0.235506 0.723393
vt 0.234440 0.723089
vt 0.234440 0.645341
vt 0.235506 0.645037
vt 0.236573 0.647610
vt 0.236287 0.644206
vt 0.236573 0.643071
vt 0.732927 0.454925
vt 0.733998 0.456065
vt 0.734311 0.536512
vt 0.829304 0.537646
vt 0.733552 0.537647
vt 0.214393 0.643073
vt 0.215207 0.743664
vt 0.254679 0.530967
vt 0.121258 0.421177
vt 0.829309 0.734047
vt 0.829308 0.356918
vt 0.927227 0.356918
vt 0.829303 0.455359
vt 0.829308 0.456493
vt 0.590137 0.535377
vt 0.658636 0.356918
vt 0.590137 0.178459
vt 0.829337 0.178459
vt 0.000000 0.000000
vt 0.253056 0.656269
vt 0.244163 0.656269
vt 0.000000 0.274199
vt 0.010960 0.285717
vt 0.000460 0.297548
vt 0.216207 0.744496
vt 0.221704 0.761167
vt 0.206281 0.761167
vt 0.186318 0.821411
vt 0.170691 0.821393
vt 0.172173 0.643071
vt 0.229015 0.723089
vt 0.229015 0.645341
vt 0.242055 0.725359
vt 0.242055 0.745105
vt 0.229015 0.736298
vt 0.187733 0.643071
vt 0.196624 0.643072
vt 0.196624 0.699808
vt 0.006172 0.542798
vt 0.015452 0.559911
vt 0.000000 0.559200
vt 0.172173 0.999988
vt 0.752076 0.569006
vt 0.704318 0.569006
vt 0.658636 0.713836
vt 0.678433 0.682476
vt 0.799834 0.682476
vt 0.254679 0.000000
vt 0.000000 0.936329
vt 0.170691 0.559189
vt 0.205508 0.743998
vt 0.205508 0.693534
vt 0.214393 0.693534
vt 0.205508 0.643071
vt 0.638230 0.827306
vt 0.685652 0.770571
vt 0.244163 0.643071
vt 0.170691 0.643071
vt 0.171089 0.542798
vt 0.222518 0.744160
vt 0.223596 0.643873
vt 0.590807 0.827306
vt 0.253056 0.713004
vt 0.229015 0.643873
vt 0.229015 0.744160
vt 0.253056 0.769740
vt 0.244165 0.769740
vt 0.205508 0.693892
vt 0.205508 0.744712
vt 0.196624 0.744711
vt 0.685652 0.764478
vt 0.196624 0.693891
vt 0.236573 0.722376
vt 0.236580 0.644204
vt 0.243719 0.000000
vt 1.000000 0.356918
vt 1.000000 0.734047
vt 0.658645 0.000000
vt 0.829337 0.000000
vt 0.704654 0.625741
vt 0.704989 0.682476
vt 0.799834 0.569006
vt 0.243866 0.723518
vt 0.243074 0.643901
vt 0.829304 0.713836
vt 0.799834 0.625741
vt 0.187733 0.756543
vt 0.187733 0.699807
vt 0.244163 0.599533
vt 0.703421 0.713836
vt 0.254679 0.754879
vt 0.422408 0.377484
vt 0.829308 0.536512
vt 0.214393 0.744496
vt 0.131708 0.409394
vt 0.187733 1.000000
vt 0.170691 0.936318
vt 0.214393 0.743998
vt 0.685652 0.827307
vt 0.223596 0.744160
vt 0.244165 0.713004
vt 0.015452 0.937040
vt 0.254679 0.011518
vt 0.243866 0.643071
vt 0.196624 0.756543
vn 0.577300 0.577300 0.577300
vn 0.408200 0.408200 0.816500
vn 0.000000 0.707100 0.707100
vn 0.000000 0.000000 1.000000
vn 0.707100 0.000000 0.707100
vn 0.551200 0.771400 0.318000
vn 0.667800 0.739100 0.087900
vn 0.694700 -0.691800 0.196900
vn 0.576000 0.578400 0.577600
vn 0.578700 -0.576200 0.577100
vn -0.318900 0.770200 0.552300
vn -0.222100 -0.261800 0.939200
vn -0.519900 -0.582600 0.624700
vn 0.513700 -0.512100 0.688300
vn -0.686400 -0.707800 0.167200
vn -0.001000 -0.316200 0.948700
vn -0.003100 -1.000000 0.000000
vn -1.000000 0.000000 0.000000
vn 0.577300 -0.577300 0.577300
vn -0.577300 -0.577300 0.577300
vn -0.577300 -0.577300 -0.577300
vn -0.004400 -0.707100 0.707100
vn 0.575700 -0.579300 0.577000
vn 0.000000 0.552200 -0.833600
vn 0.180900 -0.884000 -0.431100
vn 0.181000 -0.883700 0.431600
vn -0.130100 0.083700 0.987900
vn 0.000000 0.894400 0.447200
vn -0.552300 0.770300 0.318900
vn -0.669300 0.737700 0.088100
vn 0.318800 0.770900 0.551400
vn 0.130400 0.084300 0.987900
vn 0.032900 -0.032800 0.998900
vn 0.207900 -0.208000 0.955700
vn -0.040400 -0.036700 0.998500
vn 0.809300 0.443800 0.384700
vn 0.422000 -0.841700 -0.336700
vn 0.000000 -0.862000 -0.506800
vn 0.000000 0.551200 0.834300
vn 0.000000 0.000000 -1.000000
vn -0.408200 0.408200 0.816500
vn -0.577300 0.577300 0.577300
vn 0.704400 -0.704400 -0.087900
vn 0.497300 -0.805700 -0.321600
vn 0.497200 -0.805500 0.322200
vn 0.704300 -0.704300 0.088100
vn 0.000000 -0.861700 0.507300
vn -0.497200 -0.805500 0.322200
vn 0.688100 0.688100 0.229900
vn 0.872800 0.090900 -0.479500
vn 0.406100 -0.408600 0.817300
vn 0.704300 0.704300 0.088100
vn -0.410400 -0.407800 0.815600
vn -0.002200 -0.707000 0.707200
vn -0.707100 0.000000 0.707100
vn -0.579000 -0.575400 0.577700
vn -0.002200 -0.707100 0.707100
vn 0.577300 -0.577300 -0.577300
vn 1.000000 0.000000 0.000000
s 1
f 91/1/1 77/2/2 70/3/3
f 92/4/4 86/5/5 91/6/1
f 30/7/6 27/8/7 15/9/8
f 27/8/7 14/10/9 12/11/10
f 25/12/11 21/10/12 20/13/13
f 17/14/14 15/15/8 18/16/15
f 78/17/16 93/18/17 94/19/18
f 9/20/19 8/21/20 2/22/21
f 88/23/22 87/24/23 86/5/5
f 6/25/24 4/26/25 46/21/26
f 22/27/27 25/28/11 24/29/28
f 25/28/11 26/30/29 24/29/28
f 26/30/29 23/31/30 24/29/28
f 27/32/7 30/33/6 29/34/28
f 30/33/6 31/35/31 29/34/28
f 31/35/31 28/36/32 29/34/28
f 49/37/33 16/38/34 21/39/12
f 22/40/27 48/41/35 21/39/12
f 31/42/31 30/7/6 17/43/14
f 44/44/36 41/1/37 40/45/38
f 46/46/26 4/47/25 7/48/18
f 28/49/32 31/50/31 16/38/34
f 47/51/39 46/52/26 49/37/33
f 4/52/25 6/53/24 5/54/40
f 29/55/28 24/55/28 32/55/4
f 50/55/4 52/55/4 70/55/3
f 70/3/3 71/56/41 85/57/42
f 36/58/43 46/59/26 37/60/44
f 34/61/45 4/62/25 35/63/46
f 38/64/47 6/65/24 4/66/25
f 24/29/28 13/67/42 14/68/9
f 39/69/48 43/70/49 3/71/50
f 73/72/51 87/73/23 88/74/22
f 41/75/37 42/76/52 44/77/36
f 3/78/50 6/65/24 38/64/47
f 40/45/38 37/60/44 46/59/26
f 48/41/35 53/79/4 19/80/4
f 44/81/36 10/82/4 45/83/4
f 55/55/4 51/55/4 75/55/53
f 68/55/4 69/55/4 82/55/54
f 45/55/4 55/55/4 76/55/55
f 55/55/4 56/55/4 58/55/4
f 57/55/4 58/55/4 63/55/4
f 62/55/4 63/55/4 69/55/4
f 56/55/4 53/55/4 65/55/4
f 54/55/4 56/55/4 67/55/4
f 52/55/4 56/55/4 67/55/4
f 44/20/36 3/84/50 6/25/24
f 3/85/50 44/77/36 9/86/19
f 71/87/41 76/88/55 90/89/55
f 75/90/53 89/42/56 90/89/55
f 64/55/4 67/55/4 78/55/16
f 52/55/4 45/55/4 71/55/41
f 66/55/4 67/55/4 78/55/16
f 19/55/4 53/55/4 72/55/5
f 53/55/4 50/55/4 77/55/2
f 51/55/4 54/55/4 74/55/22
f 67/55/4 65/55/4 81/55/57
f 54/55/4 19/55/4 73/55/51
f 90/91/55 92/4/4 84/92/3
f 11/93/20 12/94/10 14/95/9
f 26/96/29 20/13/13 18/97/15
f 89/98/56 88/23/22 92/4/4
f 82/57/54 97/56/17 98/99/17
f 18/97/15 11/100/20 13/101/42
f 78/99/16 81/102/57 96/103/17
f 72/104/5 77/105/2 91/106/1
f 80/107/5 78/6/16 93/19/17
f 3/85/50 44/77/36 42/76/52
f 72/104/5 86/108/5 87/73/23
f 15/15/8 12/109/10 11/110/20
f 46/59/26 36/58/43 35/111/46
f 2/112/21 8/113/20 7/48/18
f 3/114/50 1/115/58 5/54/40
f 14/68/9 27/32/7 29/34/28
f 23/31/30 13/67/42 24/29/28
f 48/41/35 49/37/33 21/39/12
f 49/37/33 28/49/32 16/38/34
f 33/55/4 29/55/28 32/55/4
f 77/55/2 50/55/4 70/55/3
f 10/82/4 44/81/36 47/51/39
f 54/116/4 51/117/4 10/82/4
f 50/118/4 53/79/4 48/41/35
f 19/80/4 54/116/4 47/51/39
f 10/82/4 47/51/39 54/116/4
f 16/119/34 17/14/14 20/120/13
f 22/40/27 9/121/19 52/122/4
f 9/121/19 45/83/4 52/122/4
f 8/47/20 28/49/32 49/37/33
f 22/40/27 52/122/4 50/118/4
f 48/41/35 22/40/27 50/118/4
f 19/80/4 49/37/33 48/41/35
f 9/121/19 44/81/36 45/83/4
f 76/55/55 55/55/4 75/55/53
f 83/55/57 68/55/4 82/55/54
f 71/55/41 45/55/4 76/55/55
f 57/55/4 55/55/4 58/55/4
f 62/55/4 57/55/4 63/55/4
f 68/55/4 62/55/4 69/55/4
f 67/55/4 56/55/4 65/55/4
f 66/55/4 54/55/4 67/55/4
f 64/55/4 52/55/4 67/55/4
f 79/55/55 64/55/4 78/55/16
f 70/55/3 52/55/4 71/55/41
f 80/55/5 66/55/4 78/55/16
f 73/55/51 19/55/4 72/55/5
f 72/55/5 53/55/4 77/55/2
f 75/55/53 51/55/4 74/55/22
f 78/55/16 67/55/4 81/55/57
f 74/55/22 54/55/4 73/55/51
f 75/123/53 74/124/22 88/74/22
f 84/125/3 91/1/1 70/3/3
f 84/92/3 92/4/4 91/6/1
f 17/43/14 30/7/6 15/9/8
f 15/9/8 27/8/7 12/11/10
f 26/96/29 25/12/11 20/13/13
f 20/120/13 17/14/14 18/16/15
f 79/126/55 78/17/16 94/19/18
f 1/127/58 9/20/19 2/22/21
f 92/4/4 88/23/22 86/5/5
f 47/128/39 6/25/24 46/21/26
f 25/129/11 22/40/27 21/39/12
f 16/130/34 31/42/31 17/43/14
f 47/131/39 44/44/36 40/45/38
f 8/113/20 46/46/26 7/48/18
f 19/80/4 47/51/39 49/37/33
f 2/47/21 4/52/25 5/54/40
f 84/125/3 70/3/3 85/57/42
f 34/72/45 38/64/47 4/66/25
f 29/34/28 24/29/28 14/68/9
f 74/124/22 73/72/51 88/74/22
f 39/132/48 3/78/50 38/64/47
f 47/131/39 40/45/38 46/59/26
f 47/128/39 44/20/36 6/25/24
f 1/133/58 3/85/50 9/86/19
f 85/134/42 71/87/41 90/89/55
f 76/88/55 75/90/53 90/89/55
f 85/135/42 90/91/55 84/92/3
f 13/1/42 11/93/20 14/95/9
f 23/136/30 26/96/29 18/97/15
f 90/91/55 89/98/56 92/4/4
f 83/137/57 82/57/54 98/99/17
f 23/136/30 18/97/15 13/101/42
f 93/137/17 78/99/16 96/103/17
f 86/108/5 72/104/5 91/106/1
f 95/18/59 80/107/5 93/19/17
f 43/138/49 3/85/50 42/76/52
f 73/90/51 72/104/5 87/73/23
f 18/16/15 15/15/8 11/110/20
f 4/139/25 46/59/26 35/111/46
f 6/53/24 3/114/50 5/54/40
f 21/140/12 16/119/34 20/120/13
f 46/52/26 8/47/20 49/37/33
f 89/141/56 75/123/53 88/74/22
