# Blender v2.77 (sub 0) OBJ File: 'MediumHouse.blend'
# www.blender.org
v -7.118787 1.566746 -4.889085
v -7.118787 2.724500 -4.889085
v -5.961033 1.566746 -4.889084
v -5.961033 2.724500 -4.889084
v -7.118787 1.566746 -3.731331
v -7.118787 2.724500 -3.731331
v -5.961034 1.566746 -3.731330
v -5.961034 2.724500 -3.731330
v -7.249046 2.631734 -5.019345
v -5.830772 2.631734 -5.019344
v -5.830774 2.631734 -3.601070
v -7.249048 2.631734 -3.601071
v -7.249046 3.641767 -5.019345
v -5.830772 3.641767 -5.019344
v -5.830774 3.641767 -3.601070
v -7.249048 3.641767 -3.601071
v -7.094536 3.641767 -4.864834
v -5.985284 3.641767 -4.864833
v -5.985285 3.641767 -3.755581
v -7.094537 3.641767 -3.755582
v -7.094536 2.756300 -4.864834
v -5.985284 2.756300 -4.864833
v -5.985285 2.756300 -3.755581
v -7.094537 2.756300 -3.755582
v -0.012903 -3.641766 -5.414000
v -0.012903 -3.641766 -5.414000
v -0.012903 -3.641766 -5.414000
v -0.012903 -3.641766 -5.414000
v -0.012902 0.929802 -5.414001
v 2.987098 -3.641766 -5.413998
v -8.387822 -3.641767 -5.414005
v -0.012904 -3.641766 -2.413999
v -0.012902 0.929802 -5.414001
v 2.987098 0.929802 -5.413999
v 2.987098 -3.641766 -5.413998
v 2.987096 -3.641766 -2.413998
v -8.387822 -3.641767 -5.414005
v -0.012904 -3.641766 -2.413999
v -8.387823 -3.641767 -2.414005
v -4.560957 -2.672902 -5.414002
v -3.944929 -2.672902 -5.414002
v -0.990656 -2.672902 -5.414001
v -0.990656 -0.625120 -5.414001
v -7.515230 -2.672902 -5.414004
v -0.012902 0.929802 -5.414001
v 2.987098 0.929802 -5.413999
v 5.987097 0.929802 -5.413997
v 5.987098 -3.641766 -5.413996
v 5.987098 -3.641766 -5.413996
v 5.987096 -3.641766 -2.413997
v 2.987095 -3.641766 0.586002
v -0.012905 -3.641766 0.586001
v -8.387822 0.929801 -5.414006
v -0.012905 -3.641766 0.586001
v -8.387825 -3.641767 0.585996
v -8.387823 -2.630890 -2.414005
v -8.387822 -2.630890 -3.866449
v -8.387824 -0.583108 -3.866449
v -8.387824 -0.583108 -2.414006
v -8.387824 2.296258 -2.414006
v -8.387822 0.929801 -5.414006
v -7.515230 -2.672902 -5.295544
v -4.560957 -2.672902 -5.295542
v -4.560957 -0.625120 -5.414003
v -7.515230 -0.625120 -5.414004
v -3.944929 -0.625120 -5.414002
v -3.944929 -2.672902 -5.295542
v -0.990657 -2.672902 -5.295540
v -0.990657 -0.625120 -5.295540
v -0.012902 0.929802 -5.414001
v 5.987097 0.929802 -5.413997
v 5.987098 -3.641766 -5.413996
v 5.987096 -3.641766 -2.413997
v 5.987095 -3.641766 0.586003
v 2.987095 -3.641766 0.586002
v -8.387825 -3.641767 0.585996
v -8.387827 0.929801 0.585994
v -8.387825 -0.583108 -0.912177
v -8.387825 -2.630890 -0.912177
v -4.560957 -0.625120 -5.295542
v -7.515230 -0.625120 -5.295544
v -3.944929 -0.625120 -5.295542
v 5.987098 -3.641766 -5.413996
v 5.987097 0.929802 -5.413997
v 5.987097 0.929802 -5.413997
v 5.987095 -3.641766 0.586003
v -0.012905 -3.641766 0.586001
v -0.012905 -3.641766 0.586001
v 8.904468 -3.641766 0.586005
v 5.987095 -3.641766 0.586003
v 2.987092 -3.641766 5.093123
v 2.081967 -3.641766 5.093123
v 2.081967 -3.641766 5.204245
v -0.012908 -3.641766 5.204244
v 5.987091 -3.641766 5.204246
v 3.898390 -3.641766 5.204246
v 3.898390 -3.641766 5.093124
v -4.560961 -2.672902 0.585998
v -7.515234 -2.672902 0.585996
v -0.012907 0.929802 0.585999
v -0.990660 -0.625120 0.585999
v -0.990660 -2.672902 0.586000
v -3.944933 -2.672902 0.585998
v -8.387827 0.929801 0.585994
v 5.987091 -3.641766 5.204246
v 2.081967 -0.977665 5.093123
v 3.898390 -0.977665 5.093124
v 2.081967 -0.977665 5.204245
v 2.987091 -0.977665 5.204245
v 2.987090 2.371290 5.204245
v -0.012910 0.929802 5.204242
v 5.987091 0.929802 5.204247
v 3.898390 -0.977665 5.204246
v -3.944933 -0.625120 0.585997
v -7.515234 -0.625120 0.585995
v -4.560961 -0.625120 0.585997
v -4.560961 -2.672902 0.425453
v -7.515234 -2.672902 0.425451
v -0.012908 -3.641766 5.204244
v -0.012910 0.929802 5.204242
v -0.990660 -0.625120 0.425455
v -0.990660 -2.672902 0.425455
v -3.944933 -2.672902 0.425453
v -0.012907 0.929802 0.585999
v 5.987093 0.929802 0.586004
v 5.987090 0.929802 5.204247
v -4.560961 -0.625120 0.425453
v -3.944933 -0.625120 0.425453
v -7.515234 -0.625120 0.425451
v -0.012907 0.929802 0.585999
v 5.987093 0.929802 0.586004
v 5.987093 0.929802 0.586004
v -0.012907 0.929802 0.585999
v 5.987093 0.929802 0.586004
v 2.987093 1.250947 0.586001
v 3.119863 1.043730 0.640373
v 2.987096 2.210416 -2.413998
v -0.149161 2.210416 -2.413999
v -0.149160 0.815212 -5.550257
v 2.987098 0.826201 -5.550256
v 2.987095 2.210416 0.722259
v -8.904464 2.210416 -2.414005
v -8.904463 0.815211 -5.550262
v 6.123354 2.210416 -2.413996
v -0.149160 1.510388 -5.550258
v 2.987098 1.521377 -5.550256
v -0.149163 0.815212 0.722258
v 6.123352 0.815212 0.722261
v -8.904463 1.510387 -5.550263
v -8.904465 0.815211 0.722253
v -8.904466 2.905591 -2.414006
v 6.123356 0.815212 -5.550254
v 2.987095 2.905592 -2.413999
v 6.123355 1.510388 -5.550255
v 2.987092 2.210416 5.550260
v -0.149166 0.815212 5.550259
v 6.123350 0.815212 5.550261
v -0.149162 2.905592 -2.414001
v -0.149165 1.510388 0.722256
v -8.904468 1.510387 0.722251
v -0.149168 1.510388 5.550256
v 2.987090 2.905593 5.550260
v 6.123351 1.510388 0.722262
v 6.123348 1.510388 5.550262
v 6.123353 2.905592 -2.413996
v 2.987093 2.905592 0.722259
v -8.242311 -0.583108 -3.866449
v -8.242311 -2.630890 -3.866449
v -8.242313 -2.630890 -0.912177
v -8.242313 -0.583108 -0.912177
v 5.865912 0.816114 -5.550254
v 5.865911 2.210416 -2.413997
v 5.865909 0.929739 0.722260
v 5.865911 1.511290 -5.550255
v 5.865905 1.624915 5.550262
v 5.865906 0.929739 5.550261
v 5.865907 1.624915 0.722262
v 5.987096 -3.641766 -2.413997
vt 0.146197 0.853803
vt 0.016303 0.983697
vt 0.016303 0.853803
vt 0.146197 0.853803
vt 0.016303 0.983697
vt 0.016303 0.853803
vt 0.146197 0.853803
vt 0.016303 0.983697
vt 0.016303 0.853803
vt 0.146197 0.853803
vt 0.016303 0.983697
vt 0.016303 0.853803
vt 0.146197 0.853803
vt 0.016303 0.853803
vt 0.146197 0.983697
vt 0.016303 0.983697
vt 0.146197 0.853803
vt 0.016303 0.983697
vt 0.016303 0.853803
vt 0.146197 0.983697
vt 0.016303 0.983697
vt 0.146197 0.983697
vt 0.016303 0.983697
vt 0.016303 0.983697
vt 0.016303 0.853803
vt 0.146197 0.983697
vt 0.016303 0.983697
vt 0.146197 0.853803
vt 0.016303 0.983697
vt 0.016303 0.853803
vt 0.146197 0.853803
vt 0.016303 0.983697
vt 0.016303 0.853803
vt 0.146197 0.853803
vt 0.016303 0.983697
vt 0.016303 0.853803
vt 0.146197 0.853803
vt 0.016303 0.983697
vt 0.016303 0.853803
vt 0.016303 0.853803
vt 0.146197 0.983697
vt 0.016303 0.983697
vt 0.146197 0.853803
vt 0.016303 0.983697
vt 0.016303 0.853803
vt 0.146197 0.853803
vt 0.016303 0.983697
vt 0.016303 0.853803
vt 0.146197 0.853803
vt 0.016303 0.983697
vt 0.016303 0.853803
vt 0.146197 0.853803
vt 0.016303 0.983697
vt 0.016303 0.853803
vt 0.146197 0.853803
vt 0.016303 0.853803
vt 0.146197 0.853803
vt 0.016303 0.983697
vt 0.016303 0.853803
vt 0.081331 0.879942
vt 0.081635 0.880191
vt 0.081223 0.879599
vt 0.083781 0.853908
vt 0.084594 0.853813
vt 0.081870 0.879902
vt 0.097321 0.883094
vt 0.096954 0.882882
vt 0.048381 0.875561
vt 0.079767 0.893141
vt 0.079832 0.893306
vt 0.092993 0.895765
vt 0.045903 0.884447
vt 0.049113 0.874760
vt 0.076665 0.874111
vt 0.062935 0.873146
vt 0.084187 0.853861
vt 0.084594 0.853813
vt 0.103928 0.857051
vt 0.103928 0.857051
vt 0.110731 0.888073
vt 0.110505 0.887887
vt 0.105273 0.899790
vt 0.089912 0.907083
vt 0.037529 0.862015
vt 0.039537 0.861563
vt 0.077081 0.906321
vt 0.037400 0.873219
vt 0.050280 0.872556
vt 0.058648 0.872043
vt 0.059631 0.872952
vt 0.061057 0.863570
vt 0.076643 0.873519
vt 0.077090 0.862962
vt 0.077716 0.862457
vt 0.125626 0.865699
vt 0.110640 0.888076
vt 0.105691 0.899284
vt 0.099780 0.911041
vt 0.080085 0.906435
vt 0.078075 0.906244
vt 0.042656 0.894408
vt 0.077151 0.906986
vt 0.042152 0.891595
vt 0.029073 0.888383
vt 0.039526 0.888928
vt 0.055577 0.865549
vt 0.054611 0.865223
vt 0.048541 0.866328
vt 0.050127 0.872628
vt 0.929869 0.176998
vt 0.927770 0.175910
vt 0.929221 0.175629
vt 0.048691 0.866881
vt 0.061800 0.863622
vt 0.062812 0.873143
vt 0.933662 0.177309
vt 0.930533 0.175223
vt 0.933756 0.175084
vt 0.126221 0.866193
vt 0.126618 0.866523
vt 0.090062 0.906537
vt 0.086911 0.914312
vt 0.091897 0.915574
vt 0.089206 0.914631
vt 0.088925 0.914541
vt 0.057020 0.901688
vt 0.016313 0.898846
vt 0.100247 0.912643
vt 0.098917 0.910879
vt 0.085420 0.912809
vt 0.051528 0.135628
vt 0.052281 0.135505
vt 0.051225 0.137295
vt 0.086946 0.914214
vt 0.086309 0.917621
vt 0.086268 0.917728
vt 0.083135 0.919874
vt 0.084315 0.913792
vt 0.086513 0.921777
vt 0.087312 0.917913
vt 0.088427 0.918129
vt 0.088429 0.917983
vt 0.073957 0.923637
vt 0.050663 0.909375
vt 0.040810 0.894673
vt 0.052849 0.900575
vt 0.040418 0.893593
vt 0.083810 0.921216
vt 0.069869 0.915640
vt 0.071085 0.907412
vt 0.071413 0.907902
vt 0.057179 0.901616
vt 0.017477 0.896609
vt 0.097854 0.926467
vt 0.091356 0.914440
vt 0.090430 0.921249
vt 0.089807 0.922046
vt 0.048541 0.909057
vt 0.053651 0.900434
vt 0.052202 0.909921
vt 0.068498 0.915743
vt 0.032339 0.899250
vt 0.030200 0.898012
vt 0.047501 0.908856
vt 0.926026 0.181541
vt 0.927519 0.184758
vt 0.924323 0.182733
vt 0.076020 0.924680
vt 0.929559 0.183232
vt 0.931945 0.186209
vt 0.928510 0.184982
vt 0.075334 0.924350
vt 0.074645 0.923994
vt 0.094949 0.927439
vt 0.096111 0.927050
vt 0.085261 0.928886
vt 0.095530 0.927244
vt 0.085578 0.929618
vt 0.937803 0.073641
vt 0.925502 0.082175
vt 0.931460 0.070233
vt 0.044032 0.877818
vt 0.036907 0.874155
vt 0.033762 0.881368
vt 0.030273 0.887451
vt 0.039253 0.889188
vt 0.041979 0.883196
vt 0.043969 0.877950
vt 0.932707 0.921484
vt 0.927239 0.916016
vt 0.932707 0.916016
vt 0.146197 0.853803
vt 0.016303 0.983697
vt 0.016303 0.853803
vt 0.932707 0.921484
vt 0.927239 0.916016
vt 0.932707 0.916016
vt 0.888253 0.926961
vt 0.901602 0.922949
vt 0.901600 0.924025
vt 0.895249 0.920324
vt 0.896076 0.919497
vt 0.896076 0.920324
vt 0.914773 0.926961
vt 0.915148 0.926037
vt 0.895249 0.920324
vt 0.896076 0.919497
vt 0.896076 0.920324
vt 0.927239 0.916016
vt 0.932707 0.916016
vt 0.896076 0.920324
vt 0.895249 0.919497
vt 0.896076 0.919497
vt 0.896076 0.920324
vt 0.895249 0.920324
vt 0.895249 0.919497
vt 0.896076 0.919910
vt 0.895249 0.919497
vt 0.896076 0.919497
vt 0.901502 0.904304
vt 0.914644 0.917447
vt 0.901502 0.917447
vt 0.914644 0.904304
vt 0.908073 0.917447
vt 0.908073 0.904304
vt 0.896076 0.920324
vt 0.896076 0.919497
vt 0.895249 0.920324
vt 0.896076 0.919497
vt 0.896076 0.920324
vt 0.895249 0.920324
vt 0.896076 0.919497
vt 0.896076 0.920324
vt 0.895249 0.920324
vt 0.895663 0.920324
vt 0.895249 0.919497
vt 0.896076 0.920324
vt 0.895249 0.920324
vt 0.896076 0.919497
vt 0.896076 0.920324
vt 0.896076 0.920324
vt 0.895249 0.919497
vt 0.896076 0.919497
vt 0.895249 0.920324
vt 0.896076 0.919497
vt 0.896076 0.920324
vt 0.895249 0.919910
vt 0.896076 0.919497
vt 0.896076 0.919910
vt 0.895249 0.920324
vt 0.896076 0.919497
vt 0.895249 0.919497
vt 0.896076 0.920324
vt 0.895249 0.920324
vt 0.896076 0.919497
vt 0.896076 0.920324
vt 0.895663 0.920324
vt 0.895249 0.919497
vt 0.895663 0.919497
vt 0.896076 0.920324
vt 0.895249 0.920324
vt 0.914696 0.923640
vt 0.888499 0.923671
vt 0.888052 0.926072
vt 0.110857 0.888038
vt 0.896076 0.919497
vt 0.895249 0.920324
vt 0.896076 0.920324
vt 0.901502 0.917447
vt 0.901502 0.904304
vt 0.896076 0.920324
vt 0.895249 0.919910
vt 0.932707 0.921484
vt 0.927239 0.918750
vt 0.932707 0.918750
vt 0.927239 0.921484
vt 0.932707 0.918750
vt 0.932707 0.921484
vt 0.063636 0.938545
vt 0.051069 0.919394
vt 0.063636 0.919394
vt 0.076204 0.919394
vt 0.076204 0.938545
vt 0.146197 0.983697
vt 0.146197 0.983697
vt 0.146197 0.983697
vt 0.146197 0.983697
vt 0.146197 0.983697
vt 0.146197 0.983697
vt 0.146197 0.853803
vt 0.146197 0.983697
vt 0.146197 0.983697
vt 0.146197 0.983697
vt 0.146197 0.983697
vt 0.146197 0.853803
vt 0.146197 0.983697
vt 0.146197 0.983697
vt 0.146197 0.983697
vt 0.146197 0.983697
vt 0.146197 0.983697
vt 0.018111 0.872902
vt 0.928073 0.177122
vt 0.930746 0.177230
vt 0.126419 0.866358
vt 0.088406 0.914068
vt 0.052293 0.137477
vt 0.052542 0.135743
vt 0.928646 0.183012
vt 0.932490 0.184454
vt 0.933567 0.083735
vt 0.927239 0.921484
vt 0.146197 0.983697
vt 0.927239 0.921484
vt 0.895249 0.919497
vt 0.895249 0.919497
vt 0.927239 0.921484
vt 0.895249 0.920324
vt 0.914644 0.904304
vt 0.914644 0.917447
vt 0.895249 0.919497
vt 0.895249 0.919497
vt 0.895249 0.919497
vt 0.895249 0.920324
vt 0.895249 0.919497
vt 0.895249 0.920324
vt 0.901598 0.920204
vt 0.927239 0.921484
vt 0.927239 0.918750
vt 0.051069 0.938545
vn 0.000000 0.000000 -1.000000
vn 1.000000 0.000000 0.000000
vn -0.000000 0.000000 1.000000
vn -1.000000 0.000000 0.000000
vn 0.000000 -1.000000 0.000000
vn 0.000000 -0.814600 -0.580100
vn 0.000000 -0.814600 0.580100
vn 0.580100 -0.814500 0.000000
vn -0.580100 -0.814600 -0.000000
vn 0.000000 1.000000 0.000000
vn 0.110400 -0.993900 0.000000
vn -0.029000 -0.271000 -0.962100
vn -0.000000 -0.914900 0.403800
vn -0.000000 -0.913700 0.406500
vn 0.000000 -0.913800 0.406200
vn -0.376500 -0.846400 -0.376500
vn 0.000000 -0.913700 -0.406500
vn -0.003200 0.914900 -0.403800
vn 0.406500 -0.913700 0.000000
vn -0.406500 -0.913700 -0.000000
vn 0.000000 0.913700 -0.406500
vn 0.003200 0.914900 -0.403800
vn -0.000000 0.913700 0.406500
vn -0.406500 0.913700 -0.000000
vn 0.406500 0.913700 0.000000
vn -0.380800 -0.856000 -0.349600
vn 0.999300 0.020700 0.031500
vn 0.580100 -0.814600 0.000000
vn 0.025500 -0.238400 -0.970800
vn 0.003200 -0.913700 0.406500
vn 0.376500 -0.846400 -0.376500
vn -0.003200 -0.913700 0.406500
vn 0.000000 -0.925800 -0.378000
vn -0.003200 -0.913800 0.406200
vn 0.999300 0.020700 -0.031500
s off
f 4/1/1 1/2/1 2/3/1
f 8/4/2 3/5/2 4/6/2
f 6/7/3 7/8/3 8/9/3
f 2/10/4 5/11/4 6/12/4
f 3/13/5 5/11/5 1/14/5
f 6/12/6 11/15/6 12/16/6
f 10/17/2 15/18/2 11/19/2
f 4/6/7 9/20/7 10/21/7
f 2/3/8 12/22/8 9/23/8
f 4/1/9 11/24/9 8/9/9
f 13/25/10 20/26/10 17/27/10
f 11/28/3 16/29/3 12/30/3
f 9/31/1 14/32/1 10/33/1
f 12/34/4 13/35/4 9/36/4
f 19/37/1 24/38/1 20/39/1
f 15/40/10 18/41/10 19/42/10
f 15/43/10 20/44/10 16/45/10
f 13/46/10 18/47/10 14/48/10
f 23/49/10 21/50/10 24/51/10
f 17/52/3 22/53/3 18/54/3
f 20/55/2 21/50/2 17/56/2
f 18/57/4 23/58/4 19/59/4
f 26/60/3 28/61/3 25/62/3
f 26/60/3 33/63/3 29/64/3
f 27/65/3 35/66/3 30/67/3
f 28/61/3 37/68/3 25/62/3
f 27/65/3 38/69/3 28/61/3
f 29/64/1 35/66/1 26/60/1
f 32/70/5 30/67/5 36/71/5
f 28/61/5 39/72/5 31/73/5
f 42/74/1 25/62/1 41/75/1
f 29/64/3 70/76/3 45/77/3
f 34/78/3 45/77/3 46/79/3
f 30/67/3 48/80/3 49/81/3
f 36/71/5 49/81/5 50/82/5
f 51/83/5 32/70/5 36/71/5
f 37/68/3 61/84/3 53/85/3
f 54/86/5 39/72/5 38/69/5
f 58/87/4 61/84/4 31/73/4
f 32/70/3 54/86/3 38/69/3
f 44/88/10 63/89/10 40/90/10
f 53/85/1 33/63/1 66/91/1
f 41/75/10 68/92/10 42/74/10
f 42/74/4 69/93/4 43/94/4
f 46/79/3 47/95/3 34/78/3
f 34/78/1 48/80/1 35/66/1
f 50/82/3 83/96/3 73/97/3
f 51/83/5 50/82/5 74/98/5
f 51/83/3 87/99/3 52/100/3
f 55/101/3 88/102/3 76/103/3
f 55/101/4 78/104/4 79/105/4
f 40/90/4 80/106/4 64/107/4
f 65/108/2 62/109/2 44/88/2
f 63/110/1 81/111/1 80/112/1
f 64/107/5 81/113/5 65/108/5
f 33/63/3 61/84/3 70/76/3
f 43/94/5 82/114/5 66/91/5
f 66/91/2 67/115/2 41/75/2
f 68/116/1 82/117/1 69/118/1
f 71/119/3 85/120/3 47/95/3
f 74/98/3 75/121/3 51/83/3
f 75/121/5 92/122/5 87/99/5
f 95/123/5 96/124/5 97/125/5
f 88/102/3 52/100/3 87/99/3
f 76/103/3 88/102/3 103/126/3
f 104/127/3 55/101/3 76/103/3
f 90/128/3 95/123/3 86/129/3
f 87/99/3 119/130/3 88/102/3
f 92/131/3 91/132/3 106/133/3
f 93/134/2 106/135/2 108/136/2
f 111/137/3 94/138/3 108/136/3
f 110/139/3 109/140/3 113/141/3
f 97/125/4 113/141/4 107/142/4
f 100/143/3 104/127/3 114/144/3
f 99/145/10 117/146/10 118/147/10
f 88/102/4 120/148/4 100/143/4
f 101/149/4 122/150/4 102/151/4
f 102/151/10 123/152/10 103/126/10
f 100/143/3 77/153/3 104/127/3
f 125/154/2 105/155/2 90/128/2
f 109/140/5 106/135/5 107/142/5
f 111/137/3 119/130/3 94/138/3
f 112/156/1 105/155/1 126/157/1
f 116/158/4 117/146/4 98/159/4
f 103/126/2 128/160/2 114/144/2
f 114/144/5 121/161/5 101/149/5
f 99/145/2 129/162/2 115/163/2
f 115/163/5 127/164/5 116/158/5
f 118/165/3 127/166/3 129/167/3
f 120/148/3 130/168/3 100/143/3
f 123/169/3 121/170/3 128/171/3
f 100/143/3 133/172/3 124/173/3
f 126/157/5 132/174/5 112/156/5
f 131/175/3 132/174/3 125/154/3
f 135/176/11 133/172/11 130/168/11
f 135/176/12 134/177/12 136/178/12
f 168/179/4 170/180/4 167/181/4
f 57/182/3 167/183/3 58/87/3
f 59/184/5 167/183/5 170/185/5
f 78/104/1 169/186/1 79/105/1
f 57/182/10 56/187/10 168/188/10
f 138/189/13 140/190/13 137/191/13
f 141/192/5 138/193/5 137/194/5
f 139/195/14 142/196/14 143/197/14
f 171/198/15 144/199/15 172/200/15
f 145/201/1 140/202/1 139/203/1
f 173/204/16 144/199/16 148/205/16
f 139/206/1 149/207/1 145/208/1
f 138/189/17 150/209/17 142/210/17
f 142/211/4 149/212/4 143/213/4
f 153/214/18 146/215/18 145/216/18
f 171/217/1 154/218/1 152/219/1
f 147/220/19 155/221/19 156/222/19
f 148/223/20 176/224/20 173/225/20
f 158/226/21 149/212/21 151/227/21
f 159/228/3 150/229/3 147/230/3
f 160/231/4 142/232/4 150/233/4
f 158/226/21 153/234/21 145/216/21
f 174/235/22 153/236/22 154/237/22
f 147/238/4 161/239/4 159/240/4
f 155/241/3 161/242/3 156/243/3
f 163/244/2 157/245/2 148/246/2
f 175/247/3 155/248/3 176/249/3
f 158/250/23 160/251/23 159/240/23
f 153/214/23 158/250/23 159/252/23
f 165/253/21 154/254/21 153/236/21
f 159/228/24 162/255/24 166/256/24
f 177/257/25 162/258/25 175/259/25
f 166/256/24 153/234/24 159/252/24
f 163/260/23 165/261/23 153/236/23
f 177/257/25 153/236/25 166/256/25
f 144/199/2 163/262/2 148/205/2
f 154/263/2 144/199/2 152/264/2
f 49/81/3 72/265/3 83/96/3
f 177/257/25 164/266/25 163/260/25
f 164/267/3 176/249/3 157/268/3
f 173/225/20 155/269/20 141/270/20
f 140/271/1 174/272/1 171/217/1
f 141/273/26 172/274/26 173/275/26
f 140/276/13 172/277/13 137/278/13
f 178/279/27 85/280/27 172/281/27
f 178/279/2 125/282/2 90/283/2
f 4/1/1 3/284/1 1/2/1
f 8/4/2 7/285/2 3/5/2
f 6/7/3 5/286/3 7/8/3
f 2/10/4 1/287/4 5/11/4
f 3/13/5 7/285/5 5/11/5
f 6/12/6 8/4/6 11/15/6
f 10/17/2 14/288/2 15/18/2
f 4/6/7 2/10/7 9/20/7
f 2/3/28 6/7/28 12/22/28
f 4/1/9 10/289/9 11/24/9
f 13/25/10 16/290/10 20/26/10
f 11/28/3 15/291/3 16/29/3
f 9/31/1 13/292/1 14/32/1
f 12/34/4 16/293/4 13/35/4
f 19/37/1 23/294/1 24/38/1
f 15/40/10 14/295/10 18/41/10
f 15/43/10 19/296/10 20/44/10
f 13/46/10 17/297/10 18/47/10
f 23/49/10 22/298/10 21/50/10
f 17/52/3 21/299/3 22/53/3
f 20/55/2 24/300/2 21/50/2
f 18/57/4 22/298/4 23/58/4
f 26/60/3 27/65/3 28/61/3
f 26/60/3 25/62/3 33/63/3
f 27/65/3 26/60/3 35/66/3
f 28/61/3 31/73/3 37/68/3
f 27/65/3 32/70/3 38/69/3
f 29/64/1 34/78/1 35/66/1
f 32/70/5 27/65/5 30/67/5
f 28/61/5 38/69/5 39/72/5
f 44/88/1 40/90/1 37/68/1
f 42/74/1 43/94/1 25/62/1
f 37/68/1 40/90/1 41/75/1
f 43/94/1 33/63/1 25/62/1
f 37/68/1 41/75/1 25/62/1
f 29/64/3 33/63/3 70/76/3
f 34/78/3 29/64/3 45/77/3
f 30/67/3 35/66/3 48/80/3
f 36/71/5 30/67/5 49/81/5
f 51/83/5 52/100/5 32/70/5
f 37/68/3 31/73/3 61/84/3
f 54/86/5 55/101/5 39/72/5
f 31/73/4 39/72/4 57/182/4
f 39/72/4 56/187/4 57/182/4
f 60/301/4 61/84/4 58/87/4
f 58/87/4 59/184/4 60/301/4
f 31/73/4 57/182/4 58/87/4
f 32/70/3 52/100/3 54/86/3
f 44/88/10 62/109/10 63/89/10
f 41/75/1 40/90/1 64/107/1
f 65/108/1 44/88/1 37/68/1
f 66/91/1 41/75/1 64/107/1
f 65/108/1 37/68/1 53/85/1
f 43/94/1 66/91/1 33/63/1
f 64/107/1 65/108/1 53/85/1
f 53/85/1 66/91/1 64/107/1
f 41/75/10 67/115/10 68/92/10
f 42/74/4 68/92/4 69/93/4
f 46/79/3 71/119/3 47/95/3
f 34/78/1 47/95/1 48/80/1
f 50/82/3 49/81/3 83/96/3
f 51/83/5 36/71/5 50/82/5
f 51/83/3 75/121/3 87/99/3
f 55/101/3 54/86/3 88/102/3
f 77/153/4 60/301/4 78/104/4
f 60/301/4 59/184/4 78/104/4
f 56/187/4 39/72/4 79/105/4
f 77/153/4 78/104/4 55/101/4
f 79/105/4 39/72/4 55/101/4
f 40/90/4 63/89/4 80/106/4
f 65/108/2 81/113/2 62/109/2
f 63/110/1 62/302/1 81/111/1
f 64/107/5 80/106/5 81/113/5
f 33/63/3 53/85/3 61/84/3
f 43/94/5 69/93/5 82/114/5
f 66/91/2 82/114/2 67/115/2
f 68/116/1 67/303/1 82/117/1
f 71/119/3 84/304/3 85/120/3
f 74/98/3 86/129/3 75/121/3
f 94/138/5 87/99/5 92/122/5
f 75/121/5 91/305/5 92/122/5
f 92/122/5 93/134/5 94/138/5
f 91/305/5 75/121/5 97/125/5
f 86/129/5 95/123/5 97/125/5
f 97/125/5 75/121/5 86/129/5
f 88/102/3 54/86/3 52/100/3
f 98/159/3 99/145/3 76/103/3
f 88/102/3 100/143/3 101/149/3
f 102/151/3 103/126/3 88/102/3
f 88/102/3 101/149/3 102/151/3
f 98/159/3 76/103/3 103/126/3
f 104/127/3 77/153/3 55/101/3
f 90/128/3 105/155/3 95/123/3
f 87/99/3 94/138/3 119/130/3
f 107/306/3 106/133/3 91/132/3
f 91/132/3 97/307/3 107/306/3
f 93/134/2 92/122/2 106/135/2
f 108/136/3 109/140/3 110/139/3
f 110/139/3 111/137/3 108/136/3
f 94/138/3 93/134/3 108/136/3
f 96/124/3 95/123/3 113/141/3
f 112/156/3 110/139/3 113/141/3
f 113/141/3 95/123/3 112/156/3
f 97/125/4 96/124/4 113/141/4
f 116/158/3 98/159/3 103/126/3
f 114/144/3 101/149/3 100/143/3
f 116/158/3 103/126/3 114/144/3
f 76/103/3 99/145/3 115/163/3
f 116/158/3 114/144/3 104/127/3
f 104/127/3 76/103/3 115/163/3
f 115/163/3 116/158/3 104/127/3
f 99/145/10 98/159/10 117/146/10
f 88/102/4 119/130/4 120/148/4
f 101/149/4 121/161/4 122/150/4
f 102/151/10 122/150/10 123/152/10
f 100/143/5 124/173/5 77/153/5
f 125/154/2 126/157/2 105/155/2
f 107/142/5 113/141/5 109/140/5
f 109/140/5 108/136/5 106/135/5
f 111/137/3 120/148/3 119/130/3
f 112/156/3 95/123/3 105/155/3
f 116/158/4 127/164/4 117/146/4
f 103/126/2 123/152/2 128/160/2
f 114/144/5 128/160/5 121/161/5
f 99/145/2 118/147/2 129/162/2
f 115/163/5 129/162/5 127/164/5
f 118/165/3 117/308/3 127/166/3
f 120/148/10 111/137/10 130/168/10
f 123/169/3 122/309/3 121/170/3
f 100/143/3 130/168/3 133/172/3
f 126/157/3 125/154/3 132/174/3
f 131/175/3 134/177/3 132/174/3
f 135/176/29 136/178/29 133/172/29
f 135/176/3 132/174/3 134/177/3
f 168/179/4 169/310/4 170/180/4
f 57/182/3 168/188/3 167/183/3
f 170/185/5 78/104/5 59/184/5
f 59/184/5 58/87/5 167/183/5
f 78/104/1 170/185/1 169/186/1
f 169/186/10 168/188/10 56/187/10
f 56/187/10 79/105/10 169/186/10
f 138/189/30 139/311/30 140/190/30
f 141/192/31 147/312/31 138/193/31
f 139/195/14 138/313/14 142/196/14
f 171/198/32 152/264/32 144/199/32
f 145/201/1 146/314/1 140/202/1
f 173/204/33 172/200/33 144/199/33
f 139/206/1 143/315/1 149/207/1
f 138/189/17 147/316/17 150/209/17
f 142/211/4 151/317/4 149/212/4
f 171/217/1 174/272/1 154/218/1
f 147/220/19 141/318/19 155/221/19
f 148/223/20 157/319/20 176/224/20
f 158/226/21 145/201/21 149/212/21
f 159/228/3 160/320/3 150/229/3
f 160/231/4 151/321/4 142/232/4
f 174/235/22 146/215/22 153/236/22
f 147/238/4 156/322/4 161/239/4
f 155/241/3 162/323/3 161/242/3
f 163/244/2 164/324/2 157/245/2
f 175/247/3 162/258/3 155/248/3
f 158/250/23 151/321/23 160/251/23
f 159/228/24 161/242/24 162/255/24
f 177/257/25 166/325/25 162/258/25
f 177/257/25 163/244/25 153/236/25
f 144/199/2 165/326/2 163/262/2
f 154/263/2 165/326/2 144/199/2
f 49/81/3 48/80/3 72/265/3
f 177/257/25 175/259/25 164/266/25
f 164/267/3 175/247/3 176/249/3
f 173/225/20 176/224/20 155/269/20
f 140/271/1 146/215/1 174/272/1
f 141/273/5 137/327/5 172/274/5
f 140/276/34 171/328/34 172/277/34
f 178/279/2 48/329/2 85/280/2
f 178/279/35 172/281/35 125/282/35
