# Blender v2.77 (sub 0) OBJ File: 'PizzaBox.blend'
# www.blender.org
v 1.000000 -0.100000 -1.000000
v 1.000000 -0.100000 1.000000
v -1.000000 -0.100000 1.000000
v -1.000000 -0.100000 -1.000000
v 1.000000 0.100000 -1.000000
v 0.999999 0.100000 1.000000
v -1.000000 0.100000 1.000000
v -1.000000 0.100000 -1.000000
vt 1.000000 0.000000
vt 0.500000 0.500000
vt 0.500000 0.000000
vt 0.500000 0.500000
vt 0.000000 0.000000
vt 0.500000 0.000000
vt 0.000000 1.000000
vt 0.025000 0.500000
vt 0.025000 1.000000
vt 0.075000 1.000000
vt 0.100000 0.500000
vt 0.100000 1.000000
vt 0.050000 1.000000
vt 0.075000 0.500000
vt 0.075000 1.000000
vt 0.050000 0.500000
vt 0.025000 1.000000
vt 0.025000 0.500000
vt 1.000000 0.500000
vt 0.000000 0.500000
vt 0.000000 0.500000
vt 0.075000 0.500000
vt 0.050000 0.500000
vt 0.050000 1.000000
vn 0.000000 -1.000000 0.000000
vn 0.000000 1.000000 -0.000000
vn 1.000000 -0.000000 0.000000
vn -0.000000 -0.000000 1.000000
vn -1.000000 -0.000000 -0.000000
vn 0.000000 0.000000 -1.000000
s off
f 2/1/1 4/2/1 1/3/1
f 8/4/2 6/5/2 5/6/2
f 5/7/3 2/8/3 1/9/3
f 6/10/4 3/11/4 2/12/4
f 7/13/5 4/14/5 3/15/5
f 1/16/6 8/17/6 5/18/6
f 2/1/1 3/19/1 4/2/1
f 8/4/2 7/20/2 6/5/2
f 5/7/3 6/21/3 2/8/3
f 6/10/4 7/22/4 3/11/4
f 7/13/5 8/23/5 4/14/5
f 1/16/6 4/24/6 8/17/6
