# Blender v2.76 (sub 0) OBJ File: 'ramp.blend'
# www.blender.org
v 5.499704 -1.730121 -3.031868
v 5.499704 -1.730121 3.031869
v -5.499703 -1.730121 3.031869
v -5.499701 -1.730121 -3.031869
v -5.499704 1.730121 3.031868
v -5.499703 1.730121 -3.031868
vt 0.321028 0.000000
vt 0.642057 0.000000
vt 0.642057 0.644630
vt 0.000000 0.000000
vt 0.321028 0.675775
vt 0.825250 0.000000
vt 0.825250 0.644630
vt 0.504221 1.000000
vt 0.321028 1.000000
vt 0.321028 0.644630
vt 0.825250 0.060855
vt 1.000000 0.000000
vt 1.000000 0.675775
vt 0.000000 0.675775
vt 0.504222 0.644630
vn 0.000000 -1.000000 0.000000
vn 0.300100 0.953900 0.000000
vn -0.000000 0.000000 1.000000
vn -1.000000 -0.000000 -0.000000
vn 0.000000 0.000000 -1.000000
s off
f 1/1/1 2/2/1 3/3/1
f 6/4/2 5/1/2 2/5/2
f 5/2/3 3/6/3 2/7/3
f 3/8/4 5/9/4 6/10/4
f 4/11/5 6/12/5 1/13/5
f 4/10/1 1/1/1 3/3/1
f 1/14/2 6/4/2 2/5/2
f 4/15/4 3/8/4 6/10/4
