# Blender v2.77 (sub 0) OBJ File: ''
# www.blender.org
v -2.301119 -0.850270 -0.077634
v -2.301119 -0.850270 -0.987267
v -2.301119 -1.000000 -0.987267
v 2.301119 -0.850270 -0.987267
v 2.301119 -1.000000 -0.987267
v 2.301119 -0.850270 0.987266
v 2.301119 -1.000000 0.987266
v 2.301119 -1.000000 0.072071
v -2.301119 -0.850270 0.987266
v -2.301119 -1.000000 0.987266
v 2.301119 -1.000000 -0.077634
v 2.301119 1.000000 -0.207428
v -2.301119 1.000000 -0.207428
v -2.301119 1.000000 -0.077632
v -2.301119 -0.466435 -0.077633
v 2.301119 -0.466435 -0.459822
v 2.301119 -0.466435 0.072071
v 2.301119 -0.466435 0.459824
v -2.301119 -0.466435 0.459824
v -2.301119 -0.466435 -0.459822
v 2.301119 1.000000 0.072073
v 2.301119 1.000000 0.207431
v -2.301119 1.000000 0.207431
v -2.301119 -0.850270 0.072071
v -2.301119 -1.000000 0.072071
v 2.301119 -0.850270 0.072071
v 2.163183 -1.000000 0.069889
v 2.301119 -0.850270 -0.077634
v 2.163183 -1.000000 -0.075452
v -2.163183 -1.000000 -0.075452
v -2.163183 0.941692 -0.075450
v 2.163183 0.941692 -0.075450
v -2.301119 1.000000 0.072073
v -2.163183 -0.854635 -0.075452
v -2.301119 -0.466435 0.072071
v 2.163183 -0.854635 0.069889
v 2.301119 -0.466435 -0.077633
v -2.163183 -0.854635 0.069889
v -2.163183 -1.000000 0.069889
v -2.163183 -0.481990 -0.075451
v 2.301119 1.000000 -0.077632
v 2.163183 -0.854635 -0.075452
v -2.163183 0.941692 0.069891
v -2.163183 -0.481990 0.069889
v 2.163183 -0.481990 0.069889
v 2.163183 0.941692 0.069891
v 2.163183 -0.481990 -0.075451
v -2.301119 -1.000000 -0.077634
vt 0.792762 0.738440
vt 0.665497 0.738404
vt 0.665505 0.717449
vt 0.001994 0.022754
vt 0.002001 0.001772
vt 0.645892 0.002017
vt 0.650133 0.022723
vt 0.650140 0.001772
vt 0.778183 0.001808
vt 0.645670 0.695598
vt 0.645663 0.716566
vt 0.001772 0.716320
vt 0.001772 0.720993
vt 0.645663 0.720993
vt 0.645663 0.848258
vt 0.001878 0.322315
vt 0.645770 0.322267
vt 0.645763 0.340377
vt 0.792752 0.792127
vt 0.001959 0.114083
vt 0.645885 0.022934
vt 0.778165 0.076445
vt 0.723916 0.076450
vt 0.645705 0.604288
vt 0.001779 0.695391
vt 0.792847 0.997285
vt 0.774688 0.997294
vt 0.739281 0.792134
vt 0.645850 0.114136
vt 0.778244 0.281603
vt 0.759306 0.281610
vt 0.645785 0.396040
vt 0.001814 0.604168
vt 0.834608 0.394943
vt 0.834600 0.373999
vt 0.962644 0.373958
vt 0.920707 0.738401
vt 0.920705 0.717453
vt 0.941088 0.717452
vt 0.869877 0.022760
vt 0.869869 0.001817
vt 0.997134 0.001772
vt 0.626364 0.848564
vt 0.021070 0.848564
vt 0.001772 0.869208
vt 0.645663 0.869208
vt 0.645663 0.997251
vt 0.626475 0.348494
vt 0.021182 0.348724
vt 0.001901 0.377173
vt 0.645792 0.377038
vt 0.846572 0.795476
vt 0.846570 0.741274
vt 0.865828 0.740704
vt 0.834617 0.448632
vt 0.962651 0.394912
vt 0.920710 0.792103
vt 0.941093 0.738401
vt 0.869887 0.076447
vt 0.997142 0.022726
vt 0.905344 0.741269
vt 0.886086 0.740701
vt 0.886093 0.720108
vt 0.834536 0.653791
vt 0.888867 0.448639
vt 0.846583 0.997038
vt 0.865860 0.793527
vt 0.869796 0.281606
vt 0.923357 0.076455
vt 0.982949 0.738398
vt 0.962562 0.738399
vt 0.962564 0.717450
vt 0.865818 0.720109
vt 0.626364 0.868901
vt 0.626488 0.368832
vt 0.886061 0.793524
vt 0.941138 0.792103
vt 0.866381 0.997037
vt 0.941676 0.997268
vt 0.962524 0.792101
vt 0.982964 0.997266
vt 0.962011 0.997267
vt 0.846568 0.720110
vt 0.905358 0.997034
vt 0.885561 0.997035
vt 0.982952 0.792100
vt 0.905347 0.795474
vt 0.021195 0.369052
vt 0.021070 0.868901
vt 0.920722 0.997269
vt 0.792770 0.717498
vt 0.778176 0.022754
vt 0.001772 0.848258
vt 0.001872 0.340521
vt 0.001894 0.396049
vt 0.001772 0.997251
vt 0.905343 0.720107
vt 0.853474 0.653798
vt 0.887956 0.281614
vt 0.982947 0.717449
vn -1.000000 -0.000000 0.000000
vn 0.000000 0.000000 -1.000000
vn 1.000000 0.000000 0.000000
vn 0.000000 -0.000000 1.000000
vn 0.000000 -1.000000 -0.000000
vn 0.000000 1.000000 0.000000
vn 0.000000 0.808600 -0.588400
vn 0.000000 0.808600 0.588400
vn 0.000000 0.169600 -0.985500
vn 0.000000 0.169600 0.985500
vn 0.015800 0.000000 -0.999900
vn 0.000000 0.037400 0.999300
vn -0.015800 -0.000000 0.999900
vn -0.015800 0.000000 -0.999900
vn 0.015800 -0.000000 0.999900
vn 0.000000 0.037400 -0.999300
s off
f 1/1/1 2/2/1 3/3/1
f 4/4/2 5/5/2 3/6/2
f 6/7/3 7/8/3 8/9/3
f 9/10/4 10/11/4 7/12/4
f 3/13/5 5/14/5 11/15/5
f 12/16/6 13/17/6 14/18/6
f 2/2/1 1/1/1 15/19/1
f 16/20/7 4/4/7 2/21/7
f 17/22/3 18/23/3 6/7/3
f 19/24/8 9/10/8 6/25/8
f 14/26/1 13/27/1 20/28/1
f 12/16/9 16/20/9 20/29/9
f 21/30/3 22/31/3 18/23/3
f 23/32/10 19/24/10 18/33/10
f 24/34/1 25/35/1 10/36/1
f 26/37/11 8/38/11 27/39/11
f 28/40/3 11/41/3 5/42/3
f 11/15/5 29/43/5 30/44/5
f 25/45/5 8/46/5 7/47/5
f 14/18/12 31/48/12 32/49/12
f 21/50/6 33/51/6 23/32/6
f 15/52/13 1/53/13 34/54/13
f 35/55/1 24/34/1 9/56/1
f 17/57/11 26/37/11 36/58/11
f 37/59/3 28/40/3 4/60/3
f 24/61/14 38/62/14 39/63/14
f 33/64/1 35/55/1 19/65/1
f 14/66/13 15/52/13 40/67/13
f 41/68/3 37/59/3 16/69/3
f 28/70/15 42/71/15 29/72/15
f 38/62/1 34/54/1 30/73/1
f 36/58/3 27/39/3 29/72/3
f 30/44/5 29/43/5 27/74/5
f 32/49/6 31/48/6 43/75/6
f 44/76/1 40/67/1 34/54/1
f 45/77/3 36/58/3 42/71/3
f 31/78/1 40/67/1 44/76/1
f 46/79/3 45/77/3 47/80/3
f 41/81/15 32/82/15 47/80/15
f 1/53/13 48/83/13 30/73/13
f 33/84/14 43/85/14 44/76/14
f 37/86/15 47/80/15 42/71/15
f 35/87/14 44/76/14 38/62/14
f 21/50/16 46/88/16 43/75/16
f 25/45/5 39/89/5 27/74/5
f 21/90/11 17/57/11 45/77/11
f 48/91/1 1/1/1 3/3/1
f 2/21/2 4/4/2 3/6/2
f 26/92/3 6/7/3 8/9/3
f 6/25/4 9/10/4 7/12/4
f 48/93/5 3/13/5 11/15/5
f 41/94/6 12/16/6 14/18/6
f 20/28/1 2/2/1 15/19/1
f 20/29/7 16/20/7 2/21/7
f 26/92/3 17/22/3 6/7/3
f 18/33/8 19/24/8 6/25/8
f 15/19/1 14/26/1 20/28/1
f 13/17/9 12/16/9 20/29/9
f 17/22/3 21/30/3 18/23/3
f 22/95/10 23/32/10 18/33/10
f 9/56/1 24/34/1 10/36/1
f 36/58/11 26/37/11 27/39/11
f 4/60/3 28/40/3 5/42/3
f 48/93/5 11/15/5 30/44/5
f 10/96/5 25/45/5 7/47/5
f 41/94/12 14/18/12 32/49/12
f 22/95/6 21/50/6 23/32/6
f 40/67/13 15/52/13 34/54/13
f 19/65/1 35/55/1 9/56/1
f 45/77/11 17/57/11 36/58/11
f 16/69/3 37/59/3 4/60/3
f 25/97/14 24/61/14 39/63/14
f 23/98/1 33/64/1 19/65/1
f 31/78/13 14/66/13 40/67/13
f 12/99/3 41/68/3 16/69/3
f 11/100/15 28/70/15 29/72/15
f 39/63/1 38/62/1 30/73/1
f 42/71/3 36/58/3 29/72/3
f 39/89/5 30/44/5 27/74/5
f 46/88/6 32/49/6 43/75/6
f 38/62/1 44/76/1 34/54/1
f 47/80/3 45/77/3 42/71/3
f 43/85/1 31/78/1 44/76/1
f 32/82/3 46/79/3 47/80/3
f 37/86/15 41/81/15 47/80/15
f 34/54/13 1/53/13 30/73/13
f 35/87/14 33/84/14 44/76/14
f 28/70/15 37/86/15 42/71/15
f 24/61/14 35/87/14 38/62/14
f 33/51/16 21/50/16 43/75/16
f 8/46/5 25/45/5 27/74/5
f 46/79/11 21/90/11 45/77/11
