# Blender v2.77 (sub 0) OBJ File: 'Skybox.blend'
# www.blender.org
v -200.000015 -199.999985 -199.999985
v -200.000015 -199.999985 200.000000
v -199.999985 200.000046 199.999969
v -199.999985 199.999939 -200.000076
v 199.999985 -200.000107 -199.999893
v 199.999985 -199.999878 200.000122
v 200.000015 200.000061 199.999924
v 200.000015 199.999969 -200.000000
v -200.000015 -199.999985 -199.999985
v -200.000015 -199.999985 200.000000
v -199.999985 199.999939 -200.000076
v 199.999985 -200.000107 -199.999893
v -199.999985 200.000046 199.999969
v 199.999985 -199.999878 200.000122
v 200.000015 200.000061 199.999924
v 200.000015 199.999969 -200.000000
vt 0.4994 0.6660
vt 0.7446 0.3357
vt 0.4994 0.3357
vt 0.0016 0.3357
vt 0.2551 0.6660
vt 0.2551 0.3357
vt 0.4994 0.0053
vt 0.7446 0.6660
vt 0.9986 0.3357
vt 0.4994 0.9963
vt 0.2513 0.9963
vt 0.0016 0.6660
vt 0.2513 0.0053
vt 0.9986 0.6660
vt 0.0039 0.0044
vt 0.0039 0.0044
vt 0.0039 0.0044
vt 0.0039 0.0044
vt 0.0039 0.0044
vt 0.0039 0.0044
vt 0.0039 0.0044
vt 0.0039 0.0044
vn 1.0000 -0.0000 0.0000
vn -1.0000 0.0000 -0.0000
vn 0.0000 1.0000 0.0000
vn 0.0000 -0.0000 -1.0000
vn 0.0000 -1.0000 0.0000
vn -0.0000 0.0000 1.0000
s off
f 11/1/1 10/2/1 9/3/1
f 14/4/2 16/5/2 12/6/2
f 10/7/3 12/6/3 9/3/3
f 13/8/4 14/9/4 10/2/4
f 13/10/5 16/5/5 15/11/5
f 12/6/6 11/1/6 9/3/6
f 11/1/1 13/8/1 10/2/1
f 14/4/2 15/12/2 16/5/2
f 10/7/3 14/13/3 12/6/3
f 13/8/4 15/14/4 14/9/4
f 13/10/5 11/1/5 16/5/5
f 12/6/6 16/5/6 11/1/6
f 4/15/1 2/16/1 1/17/1
f 6/18/2 8/19/2 5/20/2
f 2/16/3 5/20/3 1/17/3
f 3/21/4 6/18/4 2/16/4
f 3/21/5 8/19/5 7/22/5
f 5/20/6 4/15/6 1/17/6
f 4/15/1 3/21/1 2/16/1
f 6/18/2 7/22/2 8/19/2
f 2/16/3 6/18/3 5/20/3
f 3/21/4 7/22/4 6/18/4
f 3/21/5 4/15/5 8/19/5
f 5/20/6 8/19/6 4/15/6
