# Blender v2.77 (sub 0) OBJ File: 'tennisCourt.blend'
# www.blender.org
v -0.049999 -1.195000 11.385094
v -0.050000 -1.194999 -11.385094
v -0.049998 0.905000 11.385094
v -0.049999 0.905000 -11.385094
v 0.000000 1.182164 -11.185195
v 0.000000 1.117132 -11.087868
v 0.000000 1.019805 -11.022837
v 0.000000 0.905000 -11.000000
v 0.000000 0.790195 -11.022837
v 0.000000 0.692868 -11.087868
v 0.000000 0.627836 -11.185195
v -0.081179 1.182164 -11.218820
v -0.149999 1.117132 -11.150000
v -0.195984 1.019805 -11.104015
v -0.212132 0.905000 -11.087868
v -0.195984 0.790195 -11.104015
v -0.149999 0.692868 -11.150000
v -0.081179 0.627836 -11.218820
v -0.114805 1.182164 -11.299999
v -0.212131 1.117132 -11.299999
v -0.277163 1.019805 -11.299999
v -0.299999 0.905000 -11.299999
v -0.277163 0.790195 -11.299999
v -0.212131 0.692868 -11.299999
v -0.114805 0.627836 -11.299999
v 0.000000 1.205000 -11.299999
v -0.081179 1.182164 -11.381180
v -0.149999 1.117132 -11.450000
v -0.195984 1.019805 -11.495984
v -0.212132 0.905000 -11.512132
v -0.195984 0.790195 -11.495984
v -0.149999 0.692868 -11.450000
v -0.081179 0.627836 -11.381180
v 0.000000 1.182164 -11.414804
v 0.000000 1.117132 -11.512132
v 0.000000 1.019805 -11.577163
v 0.000000 0.905000 -11.599999
v 0.000000 0.790195 -11.577163
v 0.000000 0.692868 -11.512132
v 0.000000 0.627836 -11.414804
v 0.000000 0.605000 -11.299999
v 0.081180 1.182164 -11.381180
v 0.150000 1.117132 -11.450000
v 0.195985 1.019805 -11.495984
v 0.212132 0.905000 -11.512132
v 0.195985 0.790195 -11.495984
v 0.150000 0.692868 -11.450000
v 0.081180 0.627836 -11.381180
v 0.114805 1.182164 -11.299999
v 0.212132 1.117132 -11.299999
v 0.277164 1.019805 -11.299999
v 0.300000 0.905000 -11.299999
v 0.277164 0.790195 -11.299999
v 0.212132 0.692868 -11.299999
v 0.114805 0.627836 -11.299999
v 0.081180 1.182164 -11.218820
v 0.150000 1.117132 -11.150000
v 0.195985 1.019805 -11.104015
v 0.212132 0.905000 -11.087868
v 0.195985 0.790195 -11.104015
v 0.150000 0.692868 -11.150000
v 0.081180 0.627836 -11.218820
v -0.250000 -1.195000 -11.299999
v -0.250000 0.905000 -11.299999
v -0.176776 -1.195000 -11.476776
v -0.176776 0.905000 -11.476776
v 0.000000 -1.195000 -11.549999
v 0.000000 0.905000 -11.549999
v 0.176777 -1.195000 -11.476776
v 0.176777 0.905000 -11.476776
v 0.250000 -1.195000 -11.299999
v 0.250000 0.905000 -11.299999
v 0.176777 -1.195000 -11.123223
v 0.176777 0.905000 -11.123223
v 0.000000 -1.195000 -11.050000
v 0.000000 0.905000 -11.050000
v -0.176776 -1.195000 -11.123223
v -0.176776 0.905000 -11.123223
v 0.000001 1.182164 11.414804
v 0.000001 1.117132 11.512132
v 0.000001 1.019805 11.577164
v 0.000001 0.905000 11.599999
v 0.000001 0.790195 11.577164
v 0.000001 0.692868 11.512132
v 0.000001 0.627836 11.414804
v -0.081178 1.182164 11.381180
v -0.149998 1.117132 11.450000
v -0.195983 1.019805 11.495984
v -0.212131 0.905000 11.512132
v -0.195983 0.790195 11.495984
v -0.149998 0.692868 11.450000
v -0.081178 0.627836 11.381180
v -0.114804 1.182164 11.299999
v -0.212131 1.117132 11.299999
v -0.277162 1.019805 11.299999
v -0.299998 0.905000 11.299999
v -0.277162 0.790195 11.299999
v -0.212131 0.692868 11.299999
v -0.114804 0.627836 11.299999
v 0.000001 1.205000 11.299999
v -0.081178 1.182164 11.218820
v -0.149998 1.117132 11.150000
v -0.195983 1.019805 11.104015
v -0.212131 0.905000 11.087868
v -0.195983 0.790195 11.104015
v -0.149998 0.692868 11.150000
v -0.081178 0.627836 11.218820
v 0.000001 1.182164 11.185195
v 0.000001 1.117132 11.087868
v 0.000001 1.019805 11.022836
v 0.000001 0.905000 11.000000
v 0.000001 0.790195 11.022836
v 0.000001 0.692868 11.087868
v 0.000001 0.627836 11.185195
v 0.000001 0.605000 11.299999
v 0.081181 1.182164 11.218820
v 0.150001 1.117132 11.150000
v 0.195986 1.019805 11.104015
v 0.212133 0.905000 11.087868
v 0.195986 0.790195 11.104015
v 0.150001 0.692868 11.150000
v 0.081181 0.627836 11.218820
v 0.114806 1.182164 11.299999
v 0.212133 1.117132 11.299999
v 0.277165 1.019805 11.299999
v 0.300001 0.905000 11.299999
v 0.277165 0.790195 11.299999
v 0.212133 0.692868 11.299999
v 0.114806 0.627836 11.299999
v 0.081181 1.182164 11.381180
v 0.150001 1.117132 11.450000
v 0.195986 1.019805 11.495984
v 0.212133 0.905000 11.512132
v 0.195986 0.790195 11.495984
v 0.150001 0.692868 11.450000
v 0.081181 0.627836 11.381180
v -0.249999 -1.195000 11.299999
v -0.249999 0.905000 11.299999
v -0.176775 -1.195000 11.123223
v -0.176775 0.905000 11.123223
v 0.000001 -1.195000 11.049999
v 0.000001 0.905000 11.049999
v 0.176778 -1.195000 11.123223
v 0.176778 0.905000 11.123223
v 0.250001 -1.195000 11.299999
v 0.250001 0.905000 11.299999
v 0.176778 -1.195000 11.476776
v 0.176778 0.905000 11.476776
v 0.000001 -1.195000 11.550000
v 0.000001 0.905000 11.550000
v -0.176775 -1.195000 11.476776
v -0.176775 0.905000 11.476776
v 23.400002 -1.195000 10.799999
v 23.400002 -1.195000 -10.800001
v -23.400002 -1.195000 10.800001
v -23.400002 -1.195000 -10.799999
v 0.000001 0.905000 11.385094
v 0.000001 -1.195000 11.385094
v 0.000000 -1.194999 -11.385094
v 0.000000 0.905000 -11.385094
v 0.050001 0.905000 11.385094
v 0.050001 -1.195000 11.385094
v 0.050000 -1.194999 -11.385094
v 0.050000 0.905000 -11.385094
vt 0.7933 0.7701
vt 0.9652 0.5895
vt 0.7933 0.5895
vt 0.9496 0.8786
vt 0.9478 0.8828
vt 0.9461 0.8786
vt 0.9478 0.8675
vt 0.9461 0.8716
vt 0.9437 0.8692
vt 0.8967 0.9330
vt 0.8894 0.9292
vt 0.8957 0.9292
vt 0.8967 0.9420
vt 0.8881 0.9375
vt 0.8970 0.9375
vt 0.9510 0.8751
vt 0.9447 0.8751
vt 0.9447 0.8751
vt 0.8884 0.9330
vt 0.8894 0.9458
vt 0.8884 0.9420
vt 0.8817 0.9375
vt 0.9402 0.8796
vt 0.9402 0.8706
vt 0.9437 0.8658
vt 0.8826 0.9330
vt 0.8849 0.9458
vt 0.8826 0.9420
vt 0.9437 0.8811
vt 0.8849 0.9292
vt 0.9402 0.8643
vt 0.9461 0.8633
vt 0.9123 0.9375
vt 0.9210 0.9420
vt 0.9127 0.9420
vt 0.9127 0.9330
vt 0.9200 0.9292
vt 0.9210 0.9330
vt 0.9437 0.8845
vt 0.9200 0.9458
vt 0.9136 0.9458
vt 0.9213 0.9375
vt 0.9402 0.8859
vt 0.9268 0.9330
vt 0.9461 0.8869
vt 0.9496 0.8633
vt 0.9268 0.9420
vt 0.9245 0.9458
vt 0.9276 0.9375
vt 0.9447 0.8904
vt 0.9447 0.8598
vt 0.9520 0.8658
vt 0.9426 0.9330
vt 0.9353 0.9292
vt 0.9416 0.9292
vt 0.9429 0.9375
vt 0.9343 0.9420
vt 0.9340 0.9375
vt 0.9510 0.8904
vt 0.9555 0.8643
vt 0.9343 0.9330
vt 0.9426 0.9420
vt 0.9353 0.9458
vt 0.9496 0.8869
vt 0.9555 0.8859
vt 0.9555 0.8706
vt 0.9520 0.8692
vt 0.9276 0.9375
vt 0.9285 0.9330
vt 0.9308 0.9458
vt 0.9285 0.9420
vt 0.9520 0.8845
vt 0.9308 0.9292
vt 0.9496 0.8716
vt 0.8970 0.9375
vt 0.9057 0.9420
vt 0.8974 0.9420
vt 0.8983 0.9292
vt 0.9057 0.9330
vt 0.8974 0.9330
vt 0.9520 0.8811
vt 0.8983 0.9458
vt 0.9047 0.9458
vt 0.9060 0.9375
vt 0.9555 0.8796
vt 0.9115 0.9420
vt 0.9092 0.9458
vt 0.9123 0.9375
vt 0.9047 0.9292
vt 0.9115 0.9330
vt 0.9125 0.8292
vt 0.9200 0.9112
vt 0.9125 0.9112
vt 0.9200 0.8292
vt 0.9253 0.9112
vt 0.9125 0.9112
vt 0.9050 0.8292
vt 0.9125 0.8292
vt 0.9050 0.9112
vt 0.8998 0.8292
vt 0.9402 0.9112
vt 0.9327 0.8292
vt 0.9402 0.8292
vt 0.8743 0.9112
vt 0.8690 0.8292
vt 0.8743 0.8292
vt 0.9305 0.9292
vt 0.9178 0.9165
vt 0.9231 0.9112
vt 0.8690 0.9112
vt 0.8615 0.8292
vt 0.8615 0.9112
vt 0.8562 0.8292
vt 0.9486 0.9292
vt 0.9358 0.9165
vt 0.9411 0.9112
vt 0.9437 0.8352
vt 0.9478 0.8369
vt 0.9437 0.8386
vt 0.9478 0.8522
vt 0.9461 0.8563
vt 0.9437 0.8539
vt 0.9488 0.8942
vt 0.9415 0.8904
vt 0.9478 0.8904
vt 0.9492 0.8987
vt 0.9405 0.9032
vt 0.9402 0.8987
vt 0.9402 0.8337
vt 0.9402 0.8400
vt 0.9447 0.8598
vt 0.9405 0.8942
vt 0.9488 0.9032
vt 0.9415 0.9070
vt 0.8586 0.9320
vt 0.8630 0.9265
vt 0.8630 0.9328
vt 0.9447 0.8445
vt 0.9402 0.8490
vt 0.9437 0.8505
vt 0.8675 0.9320
vt 0.8675 0.9261
vt 0.8548 0.9297
vt 0.8586 0.9261
vt 0.9461 0.8410
vt 0.8713 0.9252
vt 0.8713 0.9297
vt 0.9447 0.8445
vt 0.9461 0.8480
vt 0.8675 0.9179
vt 0.8548 0.9188
vt 0.8586 0.9179
vt 0.9496 0.8410
vt 0.8713 0.9188
vt 0.8630 0.9175
vt 0.9510 0.8445
vt 0.8586 0.9120
vt 0.9520 0.8386
vt 0.9496 0.8480
vt 0.8675 0.9120
vt 0.8713 0.9144
vt 0.8630 0.9112
vt 0.9555 0.8400
vt 0.9510 0.8445
vt 0.9520 0.8505
vt 0.8799 0.9150
vt 0.8726 0.9112
vt 0.8790 0.9112
vt 0.8803 0.9195
vt 0.8717 0.9240
vt 0.8713 0.9195
vt 0.9520 0.8352
vt 0.9555 0.8337
vt 0.8717 0.9150
vt 0.8799 0.9240
vt 0.8726 0.9278
vt 0.9496 0.8327
vt 0.9510 0.8292
vt 0.9555 0.8553
vt 0.9520 0.8539
vt 0.8465 0.9112
vt 0.8420 0.9179
vt 0.8420 0.9120
vt 0.8548 0.9144
vt 0.8510 0.9179
vt 0.8510 0.9120
vt 0.8382 0.9188
vt 0.8382 0.9144
vt 0.8465 0.9175
vt 0.9496 0.8563
vt 0.8420 0.9261
vt 0.8548 0.9252
vt 0.8510 0.9261
vt 0.9461 0.8327
vt 0.8382 0.9252
vt 0.8465 0.9265
vt 0.9447 0.8292
vt 0.8382 0.9297
vt 0.8465 0.9328
vt 0.8420 0.9320
vt 0.8510 0.9320
vt 0.8743 0.8292
vt 0.8817 0.9112
vt 0.8743 0.9112
vt 0.8817 0.8292
vt 0.8870 0.9112
vt 0.9327 0.9112
vt 0.9253 0.8292
vt 0.9327 0.8292
vt 0.8562 0.9112
vt 0.8510 0.8292
vt 0.8562 0.8292
vt 0.8510 0.9112
vt 0.8435 0.8292
vt 0.8435 0.9112
vt 0.8382 0.8292
vt 0.8945 0.9112
vt 0.8998 0.9165
vt 0.8817 0.9239
vt 0.8870 0.8292
vt 0.8945 0.9112
vt 0.8870 0.9112
vt 0.8945 0.8292
vt 0.8998 0.9112
vt 0.8998 0.9239
vt 0.9050 0.9112
vt 0.9178 0.9165
vt 0.4615 -0.0029
vt 0.0000 0.9971
vt 0.0000 -0.0029
vt 0.7933 0.5895
vt 0.7933 0.7701
vt 0.7933 0.7701
vt 0.9652 0.7701
vt 0.9652 0.5895
vt 0.9652 0.7701
vt 0.9652 0.5895
vt 0.7933 0.5895
vt 0.9652 0.7701
vt 0.8957 0.9458
vt 0.9136 0.9292
vt 0.9245 0.9292
vt 0.9510 0.8598
vt 0.9416 0.9458
vt 0.9510 0.8751
vt 0.9092 0.9292
vt 0.9253 0.8292
vt 0.8998 0.9112
vt 0.9327 0.9112
vt 0.9305 0.9112
vt 0.9358 0.9165
vt 0.9358 0.9239
vt 0.9231 0.9292
vt 0.9178 0.9239
vt 0.8562 0.9112
vt 0.9486 0.9112
vt 0.9538 0.9165
vt 0.9538 0.9239
vt 0.9411 0.9292
vt 0.9358 0.9239
vt 0.9402 0.8553
vt 0.9478 0.9070
vt 0.8548 0.9252
vt 0.8548 0.9144
vt 0.9555 0.8490
vt 0.8790 0.9278
vt 0.8548 0.9188
vt 0.9510 0.8598
vt 0.8548 0.9297
vt 0.8870 0.8292
vt 0.9253 0.9112
vt 0.8382 0.9112
vt 0.8945 0.9292
vt 0.8870 0.9292
vt 0.8998 0.9239
vt 0.8817 0.9165
vt 0.8870 0.9112
vt 0.8998 0.8292
vt 0.9178 0.9239
vt 0.9125 0.9292
vt 0.9050 0.9292
vt 0.8998 0.9165
vt 0.9125 0.9112
vt 0.4615 0.9971
vn -1.0000 0.0000 0.0000
vn -0.0805 0.9776 0.1945
vn -0.0805 -0.9776 0.1945
vn -0.3256 -0.5253 0.7862
vn -0.3764 0.1807 0.9087
vn -0.2243 0.8103 0.5414
vn -0.2242 -0.8103 0.5414
vn -0.3764 -0.1807 0.9087
vn -0.3256 0.5253 0.7862
vn -0.9087 0.1807 0.3764
vn -0.5414 0.8103 0.2243
vn -0.5414 -0.8103 0.2243
vn -0.9087 -0.1807 0.3764
vn -0.7862 0.5253 0.3256
vn -0.1945 0.9776 0.0805
vn -0.1945 -0.9776 0.0805
vn -0.7861 -0.5253 0.3256
vn -0.5414 -0.8103 -0.2243
vn -0.9087 -0.1807 -0.3764
vn -0.7862 0.5253 -0.3256
vn -0.1945 0.9776 -0.0805
vn -0.1945 -0.9776 -0.0805
vn -0.7862 -0.5253 -0.3256
vn -0.9087 0.1807 -0.3764
vn -0.5414 0.8103 -0.2243
vn -0.3256 0.5253 -0.7862
vn -0.0805 0.9776 -0.1945
vn -0.0805 -0.9776 -0.1945
vn -0.3256 -0.5253 -0.7862
vn -0.3764 0.1807 -0.9087
vn -0.2243 0.8103 -0.5414
vn -0.2243 -0.8103 -0.5414
vn -0.3764 -0.1807 -0.9087
vn 0.0805 -0.9776 -0.1945
vn 0.3256 -0.5253 -0.7862
vn 0.3764 0.1807 -0.9087
vn 0.2243 0.8103 -0.5414
vn 0.2243 -0.8103 -0.5414
vn 0.3764 -0.1807 -0.9087
vn 0.3256 0.5253 -0.7862
vn 0.0805 0.9776 -0.1945
vn 0.5414 0.8103 -0.2243
vn 0.5414 -0.8103 -0.2243
vn 0.9087 -0.1807 -0.3764
vn 0.7861 0.5253 -0.3256
vn 0.1945 0.9776 -0.0805
vn 0.1945 -0.9776 -0.0805
vn 0.7862 -0.5253 -0.3256
vn 0.9087 0.1807 -0.3764
vn 0.5414 -0.8103 0.2243
vn 0.9087 -0.1807 0.3764
vn 0.7862 0.5253 0.3256
vn 0.1945 0.9776 0.0805
vn 0.1945 -0.9776 0.0805
vn 0.7861 -0.5253 0.3256
vn 0.9087 0.1807 0.3764
vn 0.5414 0.8103 0.2243
vn 0.0805 0.9776 0.1945
vn 0.0805 -0.9776 0.1945
vn 0.3256 -0.5253 0.7862
vn 0.3764 0.1807 0.9087
vn 0.2243 0.8103 0.5414
vn 0.2242 -0.8103 0.5414
vn 0.3764 -0.1807 0.9087
vn 0.3256 0.5253 0.7862
vn -0.9239 0.0000 -0.3827
vn -0.3827 0.0000 -0.9239
vn 0.3827 0.0000 -0.9239
vn 0.9239 0.0000 -0.3827
vn 0.9239 0.0000 0.3827
vn 0.3827 0.0000 0.9239
vn 0.0000 1.0000 0.0000
vn -0.3827 0.0000 0.9239
vn -0.9239 0.0000 0.3827
vn 0.0000 -1.0000 0.0000
vn -0.2243 -0.8103 0.5414
vn -0.7862 -0.5253 0.3256
vn -0.7861 0.5253 -0.3256
vn -0.3256 -0.5253 -0.7861
vn -0.2242 -0.8103 -0.5414
vn 0.3256 -0.5253 -0.7861
vn 0.2242 -0.8103 -0.5414
vn 0.7861 -0.5253 -0.3256
vn 0.7862 -0.5253 0.3256
vn 0.2243 -0.8103 0.5414
vn 0.0000 0.0000 1.0000
vn 0.0000 0.0000 -1.0000
vn 1.0000 -0.0000 -0.0000
vn -0.2242 0.8103 0.5414
vn -0.7861 0.5253 0.3256
vn -0.7861 -0.5253 -0.3256
vn 0.7862 0.5253 -0.3256
vn 0.7861 0.5253 0.3256
vn 0.2242 0.8103 0.5414
vn -0.3256 0.5253 -0.7861
vn -0.2242 0.8103 -0.5414
vn 0.2242 0.8103 -0.5414
vn 0.3256 0.5253 -0.7861
s off
f 3/1/1 2/2/1 1/3/1
f 5/4/2 26/5/2 12/6/2
f 41/7/3 11/8/3 18/9/3
f 9/10/4 17/11/4 10/12/4
f 7/13/5 15/14/5 8/15/5
f 6/16/6 12/6/6 13/17/6
f 10/18/7 18/9/7 11/8/7
f 9/10/8 15/14/8 16/19/8
f 7/13/9 13/20/9 14/21/9
f 14/21/10 22/22/10 15/14/10
f 12/6/11 20/23/11 13/17/11
f 17/24/12 25/25/12 18/9/12
f 16/19/13 22/22/13 23/26/13
f 14/21/14 20/27/14 21/28/14
f 12/6/15 26/5/15 19/29/15
f 41/7/16 18/9/16 25/25/16
f 17/11/17 23/26/17 24/30/17
f 24/31/18 33/32/18 25/25/18
f 22/33/19 31/34/19 23/35/19
f 21/36/20 28/37/20 29/38/20
f 19/29/21 26/5/21 27/39/21
f 41/7/22 25/25/22 33/32/22
f 23/35/23 32/40/23 24/41/23
f 22/33/24 29/38/24 30/42/24
f 20/23/25 27/39/25 28/43/25
f 28/37/26 36/44/26 29/38/26
f 27/39/27 26/5/27 34/45/27
f 41/7/28 33/32/28 40/46/28
f 32/40/29 38/47/29 39/48/29
f 29/38/30 37/49/30 30/42/30
f 27/39/31 35/50/31 28/43/31
f 32/51/32 40/46/32 33/32/32
f 30/42/33 38/47/33 31/34/33
f 41/7/34 40/46/34 48/52/34
f 38/53/35 47/54/35 39/55/35
f 37/56/36 44/57/36 45/58/36
f 34/45/37 43/59/37 35/50/37
f 40/46/38 47/60/38 48/52/38
f 37/56/39 46/61/39 38/53/39
f 36/62/40 43/63/40 44/57/40
f 34/45/41 26/5/41 42/64/41
f 42/64/42 50/65/42 43/59/42
f 48/52/43 54/66/43 55/67/43
f 46/61/44 52/68/44 53/69/44
f 44/57/45 50/70/45 51/71/45
f 42/64/46 26/5/46 49/72/46
f 41/7/47 48/52/47 55/67/47
f 47/54/48 53/69/48 54/73/48
f 44/57/49 52/68/49 45/58/49
f 54/66/50 62/74/50 55/67/50
f 52/75/51 60/76/51 53/77/51
f 50/78/52 58/79/52 51/80/52
f 49/72/53 26/5/53 56/81/53
f 41/7/54 55/67/54 62/74/54
f 54/82/55 60/76/55 61/83/55
f 52/75/56 58/79/56 59/84/56
f 49/72/57 57/85/57 50/65/57
f 56/81/58 26/5/58 5/4/58
f 41/7/59 62/74/59 11/8/59
f 61/83/60 9/86/60 10/87/60
f 58/79/61 8/88/61 59/84/61
f 56/81/62 6/16/62 57/85/62
f 62/74/63 10/18/63 11/8/63
f 59/84/64 9/86/64 60/76/64
f 57/89/65 7/90/65 58/79/65
f 64/91/66 65/92/66 63/93/66
f 66/94/67 67/95/67 65/92/67
f 68/96/68 69/97/68 67/98/68
f 70/99/69 71/100/69 69/97/69
f 72/101/70 73/102/70 71/103/70
f 74/104/71 75/105/71 73/106/71
f 76/107/72 70/108/72 68/109/72
f 76/110/73 77/111/73 75/105/73
f 78/112/74 63/113/74 77/111/74
f 69/114/75 75/115/75 77/116/75
f 79/117/2 100/118/2 86/119/2
f 115/120/3 85/121/3 92/122/3
f 83/123/4 91/124/4 84/125/4
f 82/126/5 88/127/5 89/128/5
f 80/129/6 86/119/6 87/130/6
f 84/131/76 92/122/76 85/121/76
f 82/126/8 90/132/8 83/123/8
f 81/133/9 87/134/9 88/127/9
f 88/135/10 96/136/10 89/137/10
f 86/119/11 94/138/11 87/130/11
f 92/122/12 98/139/12 99/140/12
f 90/141/13 96/136/13 97/142/13
f 87/143/14 95/144/14 88/135/14
f 86/119/15 100/118/15 93/145/15
f 115/120/16 92/122/16 99/140/16
f 90/141/77 98/146/77 91/147/77
f 99/140/18 106/148/18 107/149/18
f 96/136/19 105/150/19 97/142/19
f 95/144/78 102/151/78 103/152/78
f 93/145/21 100/118/21 101/153/21
f 115/120/22 99/140/22 107/149/22
f 97/142/23 106/154/23 98/146/23
f 96/136/24 103/152/24 104/155/24
f 94/138/25 101/153/25 102/156/25
f 102/151/26 110/157/26 103/152/26
f 101/153/27 100/118/27 108/158/27
f 115/120/28 107/149/28 114/159/28
f 106/154/79 112/160/79 113/161/79
f 103/152/30 111/162/30 104/155/30
f 101/153/31 109/163/31 102/156/31
f 107/149/80 113/164/80 114/159/80
f 105/150/33 111/162/33 112/160/33
f 115/120/34 114/159/34 122/165/34
f 112/166/81 121/167/81 113/168/81
f 111/169/36 118/170/36 119/171/36
f 109/163/37 116/172/37 117/173/37
f 113/164/82 122/165/82 114/159/82
f 111/169/39 120/174/39 112/166/39
f 110/175/40 117/176/40 118/170/40
f 108/158/41 100/118/41 116/172/41
f 117/173/42 123/177/42 124/178/42
f 122/165/43 128/179/43 129/180/43
f 119/181/44 127/182/44 120/183/44
f 117/184/45 125/185/45 118/186/45
f 116/172/46 100/118/46 123/177/46
f 115/120/47 122/165/47 129/180/47
f 120/183/83 128/187/83 121/188/83
f 118/186/49 126/189/49 119/181/49
f 128/179/50 136/190/50 129/180/50
f 126/189/51 134/191/51 127/182/51
f 125/185/52 131/192/52 132/193/52
f 123/177/53 100/118/53 130/194/53
f 115/120/54 129/180/54 136/190/54
f 128/187/84 134/191/84 135/195/84
f 126/189/56 132/193/56 133/196/56
f 124/178/57 130/194/57 131/197/57
f 130/194/58 100/118/58 79/117/58
f 115/120/59 136/190/59 85/121/59
f 134/191/60 84/198/60 135/195/60
f 132/193/61 82/199/61 133/196/61
f 131/197/62 79/117/62 80/129/62
f 136/190/85 84/131/85 85/121/85
f 134/191/64 82/199/64 83/200/64
f 131/192/65 81/201/65 132/193/65
f 138/202/66 139/203/66 137/204/66
f 140/205/67 141/206/67 139/203/67
f 142/207/68 143/208/68 141/209/68
f 144/210/69 145/211/69 143/212/69
f 146/213/70 147/214/70 145/211/70
f 148/215/71 149/216/71 147/214/71
f 148/217/72 146/218/72 138/219/72
f 150/220/73 151/221/73 149/222/73
f 152/223/74 137/224/74 151/221/74
f 143/225/75 147/226/75 151/227/75
f 154/228/72 155/229/72 153/230/72
f 158/231/86 161/232/86 157/233/86
f 4/234/87 159/235/87 2/2/87
f 1/3/86 157/233/86 3/1/86
f 3/1/72 160/236/72 4/234/72
f 2/2/75 158/231/75 1/3/75
f 163/237/88 161/232/88 162/238/88
f 157/233/72 164/239/72 160/236/72
f 159/235/75 162/238/75 158/231/75
f 160/236/87 163/237/87 159/235/87
f 3/1/1 4/234/1 2/2/1
f 9/10/4 16/19/4 17/11/4
f 7/13/5 14/21/5 15/14/5
f 6/16/89 5/4/89 12/6/89
f 10/18/76 17/24/76 18/9/76
f 9/10/8 8/15/8 15/14/8
f 7/13/9 6/240/9 13/20/9
f 14/21/10 21/28/10 22/22/10
f 12/6/11 19/29/11 20/23/11
f 17/24/12 24/31/12 25/25/12
f 16/19/13 15/14/13 22/22/13
f 14/21/90 13/20/90 20/27/90
f 17/11/17 16/19/17 23/26/17
f 24/31/18 32/51/18 33/32/18
f 22/33/19 30/42/19 31/34/19
f 21/36/20 20/241/20 28/37/20
f 23/35/91 31/34/91 32/40/91
f 22/33/24 21/36/24 29/38/24
f 20/23/25 19/29/25 27/39/25
f 28/37/26 35/242/26 36/44/26
f 32/40/29 31/34/29 38/47/29
f 29/38/30 36/44/30 37/49/30
f 27/39/31 34/45/31 35/50/31
f 32/51/32 39/243/32 40/46/32
f 30/42/33 37/49/33 38/47/33
f 38/53/35 46/61/35 47/54/35
f 37/56/36 36/62/36 44/57/36
f 34/45/37 42/64/37 43/59/37
f 40/46/38 39/243/38 47/60/38
f 37/56/39 45/58/39 46/61/39
f 36/62/40 35/244/40 43/63/40
f 42/64/42 49/72/42 50/65/42
f 48/52/43 47/60/43 54/66/43
f 46/61/44 45/58/44 52/68/44
f 44/57/92 43/63/92 50/70/92
f 47/54/83 46/61/83 53/69/83
f 44/57/49 51/71/49 52/68/49
f 54/66/50 61/245/50 62/74/50
f 52/75/51 59/84/51 60/76/51
f 50/78/93 57/89/93 58/79/93
f 54/82/55 53/77/55 60/76/55
f 52/75/56 51/80/56 58/79/56
f 49/72/57 56/81/57 57/85/57
f 61/83/60 60/76/60 9/86/60
f 58/79/61 7/90/61 8/88/61
f 56/81/94 5/4/94 6/16/94
f 62/74/85 61/245/85 10/18/85
f 59/84/64 8/88/64 9/86/64
f 57/89/65 6/246/65 7/90/65
f 64/91/66 66/94/66 65/92/66
f 66/94/67 68/247/67 67/95/67
f 68/96/68 70/99/68 69/97/68
f 70/99/69 72/248/69 71/100/69
f 72/101/70 74/249/70 73/102/70
f 74/104/71 76/110/71 75/105/71
f 68/109/72 66/250/72 76/107/72
f 64/251/72 78/252/72 76/107/72
f 76/107/72 74/253/72 72/254/72
f 72/254/72 70/108/72 76/107/72
f 66/250/72 64/251/72 76/107/72
f 76/110/73 78/112/73 77/111/73
f 78/112/74 64/255/74 63/113/74
f 77/116/75 63/256/75 65/257/75
f 65/257/75 67/258/75 77/116/75
f 69/114/75 71/259/75 73/260/75
f 73/260/75 75/115/75 69/114/75
f 77/116/75 67/258/75 69/114/75
f 83/123/4 90/132/4 91/124/4
f 82/126/5 81/133/5 88/127/5
f 80/129/6 79/117/6 86/119/6
f 84/131/76 91/261/76 92/122/76
f 82/126/8 89/128/8 90/132/8
f 81/133/9 80/262/9 87/134/9
f 88/135/10 95/144/10 96/136/10
f 86/119/11 93/145/11 94/138/11
f 92/122/12 91/261/12 98/139/12
f 90/141/13 89/137/13 96/136/13
f 87/143/14 94/263/14 95/144/14
f 90/141/17 97/142/17 98/146/17
f 99/140/18 98/139/18 106/148/18
f 96/136/19 104/155/19 105/150/19
f 95/144/20 94/263/20 102/151/20
f 97/142/91 105/150/91 106/154/91
f 96/136/24 95/144/24 103/152/24
f 94/138/25 93/145/25 101/153/25
f 102/151/95 109/264/95 110/157/95
f 106/154/29 105/150/29 112/160/29
f 103/152/30 110/157/30 111/162/30
f 101/153/96 108/158/96 109/163/96
f 107/149/32 106/148/32 113/164/32
f 105/150/33 104/155/33 111/162/33
f 112/166/35 120/174/35 121/167/35
f 111/169/36 110/175/36 118/170/36
f 109/163/97 108/158/97 116/172/97
f 113/164/38 121/265/38 122/165/38
f 111/169/39 119/171/39 120/174/39
f 110/175/98 109/266/98 117/176/98
f 117/173/42 116/172/42 123/177/42
f 122/165/43 121/265/43 128/179/43
f 119/181/44 126/189/44 127/182/44
f 117/184/92 124/267/92 125/185/92
f 120/183/48 127/182/48 128/187/48
f 118/186/49 125/185/49 126/189/49
f 128/179/50 135/268/50 136/190/50
f 126/189/51 133/196/51 134/191/51
f 125/185/52 124/267/52 131/192/52
f 128/187/55 127/182/55 134/191/55
f 126/189/56 125/185/56 132/193/56
f 124/178/57 123/177/57 130/194/57
f 134/191/60 83/200/60 84/198/60
f 132/193/61 81/201/61 82/199/61
f 131/197/62 130/194/62 79/117/62
f 136/190/85 135/268/85 84/131/85
f 134/191/64 133/196/64 82/199/64
f 131/192/65 80/269/65 81/201/65
f 138/202/66 140/205/66 139/203/66
f 140/205/67 142/270/67 141/206/67
f 142/207/68 144/271/68 143/208/68
f 144/210/69 146/213/69 145/211/69
f 146/213/70 148/215/70 147/214/70
f 148/215/71 150/272/71 149/216/71
f 142/273/72 140/274/72 144/275/72
f 138/219/72 152/276/72 148/217/72
f 150/277/72 148/217/72 152/276/72
f 146/218/72 144/275/72 138/219/72
f 140/274/72 138/219/72 144/275/72
f 150/220/73 152/223/73 151/221/73
f 152/223/74 138/278/74 137/224/74
f 151/227/75 137/279/75 139/280/75
f 139/280/75 141/281/75 143/225/75
f 143/225/75 145/282/75 147/226/75
f 147/226/75 149/283/75 151/227/75
f 151/227/75 139/280/75 143/225/75
f 154/228/72 156/284/72 155/229/72
f 158/231/86 162/238/86 161/232/86
f 4/234/87 160/236/87 159/235/87
f 1/3/86 158/231/86 157/233/86
f 3/1/72 157/233/72 160/236/72
f 2/2/75 159/235/75 158/231/75
f 163/237/88 164/239/88 161/232/88
f 157/233/72 161/232/72 164/239/72
f 159/235/75 163/237/75 162/238/75
f 160/236/87 164/239/87 163/237/87
