# Blender v2.77 (sub 0) OBJ File: 'TurnCurb.blend'
# www.blender.org
v -10.000000 -0.125000 -10.000000
v -10.000000 -0.125000 10.000000
v 10.000000 -0.125000 -10.000000
v 10.000000 -0.125000 10.000000
v -10.000000 -0.125000 -0.000000
v -10.000000 -0.125000 5.000000
v -10.000000 -0.125000 -5.000000
v -7.500000 -0.125000 -10.000000
v -10.000000 -0.125000 7.500000
v 7.500000 -0.125000 10.000000
v 10.000000 -0.125000 -7.500000
v -10.000000 -0.125000 -2.500000
v -10.000000 -0.125000 2.500000
v 7.500000 -0.125000 -10.000000
v -10.000000 -0.125000 -7.500000
v -7.500000 -0.125000 10.000000
v 10.000000 -0.125000 7.500000
v -7.500000 -0.125000 -0.000000
v -7.500000 -0.125000 5.000000
v -7.500000 -0.125000 -5.000000
v 7.500000 -0.125000 -7.500000
v -7.500000 -0.125000 -2.500000
v -7.500000 -0.125000 -7.500000
v -7.500000 -0.125000 7.500000
v -7.500000 -0.125000 2.500000
v 7.500000 -0.125000 7.500000
v 2.500000 -0.375000 -10.000000
v 0.000000 -0.375000 -10.000000
v 10.000000 -0.375000 2.500000
v 10.000000 -0.375000 0.000000
v 7.500000 -0.375000 0.000000
v -2.500000 -0.375000 -0.000000
v 0.000000 -0.375000 0.000000
v 0.000000 -0.375000 -7.500000
v -0.000000 -0.375000 2.500000
v -2.500000 -0.375000 -10.000000
v -5.000000 -0.375000 -10.000000
v 10.000000 -0.375000 -2.500000
v 10.000000 -0.375000 -5.000000
v 7.500000 -0.375000 -10.000000
v 5.000000 -0.375000 -10.000000
v 10.000000 -0.375000 7.500000
v 10.000000 -0.375000 5.000000
v 2.500000 -0.375000 0.000000
v 5.000000 -0.375000 0.000000
v -7.500000 -0.375000 -0.000000
v -5.000000 -0.375000 -0.000000
v 0.000000 -0.375000 -2.500000
v 0.000000 -0.375000 -5.000000
v -0.000000 -0.375000 7.500000
v -0.000000 -0.375000 5.000000
v -2.500000 -0.375000 5.000000
v -7.500000 -0.375000 5.000000
v -5.000000 -0.375000 5.000000
v -5.000000 -0.375000 2.500000
v -5.000000 -0.375000 7.500000
v -2.500000 -0.375000 -5.000000
v -7.500000 -0.375000 -5.000000
v -5.000000 -0.375000 -5.000000
v -5.000000 -0.375000 -7.500000
v -5.000000 -0.375000 -2.500000
v 7.500000 -0.375000 -5.000000
v 2.500000 -0.375000 -5.000000
v 5.000000 -0.375000 -5.000000
v 5.000000 -0.375000 -7.500000
v 5.000000 -0.375000 -2.500000
v 7.500000 -0.375000 5.000000
v 2.500000 -0.375000 5.000000
v 5.000000 -0.375000 5.000000
v 5.000000 -0.375000 2.500000
v 5.000000 -0.375000 7.500000
v -7.500000 -0.375000 -10.000000
v 10.000000 -0.375000 -7.500000
v 2.500000 -0.375000 7.500000
v 2.500000 -0.375000 2.500000
v 7.500000 -0.375000 2.500000
v 2.500000 -0.375000 -2.500000
v 2.500000 -0.375000 -7.500000
v 7.500000 -0.375000 -7.500000
v -7.500000 -0.375000 -2.500000
v -7.500000 -0.375000 -7.500000
v -2.500000 -0.375000 -7.500000
v -7.500000 -0.375000 7.500000
v -7.500000 -0.375000 2.500000
v -2.500000 -0.375000 2.500000
v -2.500000 -0.375000 7.500000
v -2.500000 -0.375000 -2.500000
v 7.500000 -0.375000 -2.500000
v 7.500000 -0.375000 7.500000
v -2.500000 -0.375000 10.000000
v -0.000000 -0.375000 10.000000
v 2.500000 -0.375000 10.000000
v 5.000000 -0.375000 10.000000
v -7.500000 -0.375000 10.000000
v -5.000000 -0.375000 10.000000
v 7.500000 -0.375000 10.000000
v -0.000000 -0.375000 7.500000
v -5.000000 -0.375000 7.500000
v 5.000000 -0.375000 7.500000
v 2.500000 -0.375000 7.500000
v -7.500000 -0.375000 7.500000
v -2.500000 -0.375000 7.500000
v 7.500000 -0.375000 7.500000
vt 0.875000 0.000000
vt 0.998450 0.125000
vt 0.875000 0.125000
vt 0.125000 0.500000
vt 0.125000 0.625000
vt 0.125000 0.625000
vt 0.125000 0.750000
vt 0.125000 0.750000
vt 0.875000 0.875000
vt 0.998450 0.998047
vt 0.875000 0.998047
vt 0.125000 0.125000
vt 0.125000 0.250000
vt 0.125000 0.250000
vt 0.000000 0.625000
vt 0.000000 0.750000
vt 0.000000 0.500000
vt 0.875000 0.875000
vt 0.000000 0.875000
vt 0.125000 0.998047
vt 0.000000 1.000000
vt 0.125000 0.875000
vt 0.000000 0.250000
vt 0.000000 0.000000
vt 0.000000 0.125000
vt 0.998450 0.875000
vt 0.998450 0.875000
vt 0.000000 0.375000
vt 0.125000 0.375000
vt 0.875000 0.125000
vt 0.125000 0.875000
vt 0.125000 0.998047
vt 0.125000 0.375000
vt 0.125000 0.500000
vt 0.875000 0.500000
vt 0.998450 0.625000
vt 0.875000 0.625000
vt 0.375000 0.500000
vt 0.500000 0.625000
vt 0.375000 0.625000
vt 0.375000 0.250000
vt 0.500000 0.375000
vt 0.375000 0.375000
vt 0.250000 0.375000
vt 0.375000 0.750000
vt 0.500000 0.875000
vt 0.375000 0.875000
vt 0.250000 0.875000
vt 0.250000 0.625000
vt 0.998450 0.750000
vt 0.625000 0.750000
vt 0.750000 0.875000
vt 0.625000 0.875000
vt 0.625000 0.500000
vt 0.750000 0.625000
vt 0.625000 0.625000
vt 0.875000 0.250000
vt 0.998450 0.375000
vt 0.875000 0.375000
vt 0.625000 0.250000
vt 0.750000 0.375000
vt 0.625000 0.375000
vt 0.625000 0.125000
vt 0.750000 0.250000
vt 0.500000 0.125000
vt 0.500000 0.250000
vt 0.750000 0.500000
vt 0.500000 0.500000
vt 0.998450 0.500000
vt 0.750000 0.750000
vt 0.500000 0.750000
vt 0.750000 0.998047
vt 0.625000 0.998047
vt 0.500000 0.998047
vt 0.875000 0.998047
vt 0.250000 0.750000
vt 0.250000 0.998047
vt 0.375000 0.998047
vt 0.125000 0.125000
vt 0.250000 0.250000
vt 0.250000 0.500000
vt 0.375000 0.125000
vt 0.250000 0.125000
vt 0.875000 0.750000
vt 0.998450 0.125000
vt 0.998450 0.250000
vt 0.750000 0.125000
vt 0.375000 0.000000
vt 0.500000 0.125000
vt 0.375000 0.125000
vt 0.125000 0.000000
vt 0.250000 0.125000
vt 0.125000 0.125000
vt 0.625000 0.000000
vt 0.750000 0.125000
vt 0.625000 0.125000
vt 0.500000 0.000000
vt 0.250000 0.000000
vt 0.750000 0.000000
vt 0.875000 0.125000
vt 0.875000 0.000000
vt 0.125000 0.000000
vt 0.998450 0.000000
vn 0.000000 1.000000 0.000000
vn 1.000000 0.000000 0.000000
vn -1.000000 0.000000 0.000000
vn 0.000000 0.000000 1.000000
vn 0.000000 0.000000 -1.000000
s off
f 10/1/1 17/2/1 26/3/1
f 18/4/2 80/5/2 22/6/2
f 22/6/2 58/7/2 20/8/2
f 21/9/1 3/10/1 14/11/1
f 24/12/2 53/13/2 19/14/2
f 12/15/1 20/8/1 7/16/1
f 5/17/1 22/6/1 12/15/1
f 14/11/3 79/18/3 21/9/3
f 15/19/1 8/20/1 1/21/1
f 15/19/1 20/8/1 23/22/1
f 6/23/1 24/12/1 19/14/1
f 2/24/1 24/12/1 9/25/1
f 21/9/4 73/26/4 11/27/4
f 13/28/1 18/4/1 5/17/1
f 6/23/1 25/29/1 13/28/1
f 17/2/5 89/30/5 26/3/5
f 20/8/2 81/31/2 23/22/2
f 23/22/2 72/32/2 8/20/2
f 19/14/2 84/33/2 25/29/2
f 25/29/2 46/34/2 18/4/2
f 31/35/1 38/36/1 88/37/1
f 32/38/1 48/39/1 87/40/1
f 52/41/1 35/42/1 85/43/1
f 53/13/1 55/44/1 84/33/1
f 57/45/1 34/46/1 82/47/1
f 58/7/1 60/48/1 81/31/1
f 46/34/1 61/49/1 80/5/1
f 79/18/1 39/50/1 73/26/1
f 63/51/1 65/52/1 78/53/1
f 44/54/1 66/55/1 77/56/1
f 67/57/1 29/58/1 76/59/1
f 68/60/1 70/61/1 75/62/1
f 74/63/1 69/64/1 68/60/1
f 50/65/1 68/60/1 51/66/1
f 75/62/1 45/67/1 44/54/1
f 35/42/1 44/54/1 33/68/1
f 51/66/1 75/62/1 35/42/1
f 76/59/1 30/69/1 31/35/1
f 70/61/1 31/35/1 45/67/1
f 69/64/1 76/59/1 70/61/1
f 77/56/1 64/70/1 63/51/1
f 48/39/1 63/51/1 49/71/1
f 33/68/1 77/56/1 48/39/1
f 78/53/1 41/72/1 27/73/1
f 34/46/1 27/73/1 28/74/1
f 49/71/1 78/53/1 34/46/1
f 65/52/1 40/75/1 41/72/1
f 64/70/1 79/18/1 65/52/1
f 80/5/1 59/76/1 58/7/1
f 81/31/1 37/77/1 72/32/1
f 82/47/1 28/74/1 36/78/1
f 60/48/1 36/78/1 37/77/1
f 59/76/1 82/47/1 60/48/1
f 83/79/1 54/80/1 53/13/1
f 84/33/1 47/81/1 46/34/1
f 85/43/1 33/68/1 32/38/1
f 55/44/1 32/38/1 47/81/1
f 54/80/1 85/43/1 55/44/1
f 86/82/1 51/66/1 52/41/1
f 56/83/1 52/41/1 54/80/1
f 87/40/1 49/71/1 57/45/1
f 61/49/1 57/45/1 59/76/1
f 47/81/1 87/40/1 61/49/1
f 88/37/1 39/50/1 62/84/1
f 66/55/1 62/84/1 64/70/1
f 45/67/1 88/37/1 66/55/1
f 67/57/1 42/85/1 43/86/1
f 71/87/1 67/57/1 69/64/1
f 90/88/1 97/89/1 102/90/1
f 94/91/1 98/92/1 101/93/1
f 92/94/1 99/95/1 100/96/1
f 91/97/1 100/96/1 97/89/1
f 95/98/1 102/90/1 98/92/1
f 93/99/1 103/100/1 99/95/1
f 26/3/3 96/101/3 10/1/3
f 16/102/2 101/93/2 24/12/2
f 10/1/1 4/103/1 17/2/1
f 18/4/2 46/34/2 80/5/2
f 22/6/2 80/5/2 58/7/2
f 21/9/1 11/27/1 3/10/1
f 24/12/2 83/79/2 53/13/2
f 12/15/1 22/6/1 20/8/1
f 5/17/1 18/4/1 22/6/1
f 14/11/3 40/75/3 79/18/3
f 15/19/1 23/22/1 8/20/1
f 15/19/1 7/16/1 20/8/1
f 6/23/1 9/25/1 24/12/1
f 2/24/1 16/102/1 24/12/1
f 21/9/4 79/18/4 73/26/4
f 13/28/1 25/29/1 18/4/1
f 6/23/1 19/14/1 25/29/1
f 17/2/5 42/85/5 89/30/5
f 20/8/2 58/7/2 81/31/2
f 23/22/2 81/31/2 72/32/2
f 19/14/2 53/13/2 84/33/2
f 25/29/2 84/33/2 46/34/2
f 31/35/1 30/69/1 38/36/1
f 32/38/1 33/68/1 48/39/1
f 52/41/1 51/66/1 35/42/1
f 53/13/1 54/80/1 55/44/1
f 57/45/1 49/71/1 34/46/1
f 58/7/1 59/76/1 60/48/1
f 46/34/1 47/81/1 61/49/1
f 79/18/1 62/84/1 39/50/1
f 63/51/1 64/70/1 65/52/1
f 44/54/1 45/67/1 66/55/1
f 67/57/1 43/86/1 29/58/1
f 68/60/1 69/64/1 70/61/1
f 74/63/1 71/87/1 69/64/1
f 50/65/1 74/63/1 68/60/1
f 75/62/1 70/61/1 45/67/1
f 35/42/1 75/62/1 44/54/1
f 51/66/1 68/60/1 75/62/1
f 76/59/1 29/58/1 30/69/1
f 70/61/1 76/59/1 31/35/1
f 69/64/1 67/57/1 76/59/1
f 77/56/1 66/55/1 64/70/1
f 48/39/1 77/56/1 63/51/1
f 33/68/1 44/54/1 77/56/1
f 78/53/1 65/52/1 41/72/1
f 34/46/1 78/53/1 27/73/1
f 49/71/1 63/51/1 78/53/1
f 65/52/1 79/18/1 40/75/1
f 64/70/1 62/84/1 79/18/1
f 80/5/1 61/49/1 59/76/1
f 81/31/1 60/48/1 37/77/1
f 82/47/1 34/46/1 28/74/1
f 60/48/1 82/47/1 36/78/1
f 59/76/1 57/45/1 82/47/1
f 83/79/1 56/83/1 54/80/1
f 84/33/1 55/44/1 47/81/1
f 85/43/1 35/42/1 33/68/1
f 55/44/1 85/43/1 32/38/1
f 54/80/1 52/41/1 85/43/1
f 86/82/1 50/65/1 51/66/1
f 56/83/1 86/82/1 52/41/1
f 87/40/1 48/39/1 49/71/1
f 61/49/1 87/40/1 57/45/1
f 47/81/1 32/38/1 87/40/1
f 88/37/1 38/36/1 39/50/1
f 66/55/1 88/37/1 62/84/1
f 45/67/1 31/35/1 88/37/1
f 67/57/1 89/30/1 42/85/1
f 71/87/1 89/30/1 67/57/1
f 90/88/1 91/97/1 97/89/1
f 94/91/1 95/98/1 98/92/1
f 92/94/1 93/99/1 99/95/1
f 91/97/1 92/94/1 100/96/1
f 95/98/1 90/88/1 102/90/1
f 93/99/1 96/101/1 103/100/1
f 26/3/3 103/100/3 96/101/3
f 16/102/2 94/91/2 101/93/2
