# Blender v2.77 (sub 0) OBJ File: 'Turn.blend'
# www.blender.org
v -10.000000 0.000000 10.000000
v 10.000000 0.000000 10.000000
v -10.000000 0.000000 -10.000000
v 10.000000 0.000000 -10.000000
v -10.000000 0.000000 0.000000
v 0.000000 0.000000 10.000000
v 10.000000 0.000000 0.000000
v 0.000000 0.000000 -10.000000
v 0.000000 0.000000 0.001000
v -10.000000 0.000000 5.000000
v 5.000000 0.000000 10.000000
v 10.000000 0.000000 -5.000000
v -5.000000 0.000000 -10.000000
v -10.000000 0.000000 -5.000000
v -5.000000 0.000000 10.000000
v 10.000000 0.000000 5.000000
v 5.000000 0.000000 -10.000000
v 5.000000 0.000000 5.001000
v -5.000000 0.000000 -4.999000
v -10.000000 0.000000 7.500000
v 7.500000 0.000000 10.000000
v 10.000000 0.000000 -7.500000
v -7.500000 0.000000 -10.000000
v -10.000000 0.000000 -2.500000
v -2.500000 0.000000 10.000000
v 10.000000 0.000000 2.500000
v 2.500000 0.000000 -10.000000
v -10.000000 0.000000 2.500000
v 2.500000 0.000000 10.000000
v 10.000000 0.000000 -2.500000
v -2.500000 0.000000 -10.000000
v -10.000000 0.000000 -7.500000
v -7.500000 0.000000 10.000000
v 10.000000 0.000000 7.500000
v 7.500000 0.000000 -10.000000
v 0.000000 0.000000 7.501000
v 7.500000 0.000000 0.001000
v 5.000000 0.000000 7.501000
v 7.500000 0.000000 5.001000
v -5.000000 0.000000 7.501000
v 7.500000 0.000000 -4.999000
v 7.500000 0.000000 -2.499000
v -2.500000 0.000000 -2.499000
v -7.500000 0.000000 -7.499000
v -2.500000 0.000000 7.501000
v -7.500000 0.000000 7.501000
v 7.500000 0.000000 7.501000
v 2.500000 0.000000 7.501000
v 2.500000 0.000000 2.501000
v 7.500000 0.000000 2.501000
v 7.500000 0.000000 -7.499000
vt 0.875000 0.000000
vt 0.974367 0.125000
vt 0.875000 0.125000
vt 0.375000 0.000000
vt 0.500000 0.125000
vt 0.375000 0.125000
vt 0.125000 0.000000
vt 0.250000 0.125000
vt 0.125000 0.125000
vt 0.625000 0.000000
vt 0.750000 0.125000
vt 0.625000 0.125000
vt 0.500000 0.000000
vt 0.250000 0.250000
vt 0.375000 0.375000
vt 0.250000 0.953860
vt 0.974367 0.375000
vt 0.974367 0.500000
vt 0.500000 0.500000
vt 0.875000 0.953860
vt 0.974367 0.875000
vt 0.974367 0.953860
vt 0.974367 0.625000
vt 0.974367 0.750000
vt 0.750000 0.750000
vt 0.000000 0.625000
vt 0.125000 0.750000
vt 0.000000 0.750000
vt 0.000000 0.500000
vt 0.125000 0.625000
vt 0.000000 0.953860
vt 0.125000 0.875000
vt 0.125000 0.953860
vt 0.000000 0.875000
vt 0.125000 0.250000
vt 0.125000 0.375000
vt 0.000000 0.125000
vt 0.000000 0.250000
vt 0.000000 0.000000
vt 0.000000 0.375000
vt 0.125000 0.500000
vt 0.250000 0.000000
vt 0.625000 0.625000
vt 0.500000 0.953860
vt 0.750000 0.000000
vt 0.875000 0.875000
vt 0.750000 0.953860
vt 0.974367 0.000000
vt 0.974367 0.250000
vt 0.375000 0.953860
vt 0.625000 0.953860
vn 0.000000 1.000000 0.000000
s 1
f 22/1/1 35/2/1 51/3/1
f 26/4/1 37/5/1 50/6/1
f 34/7/1 39/8/1 47/9/1
f 30/10/1 41/11/1 42/12/1
f 7/13/1 42/12/1 37/5/1
f 18/14/1 49/15/1 10/16/1
f 27/17/1 8/18/1 9/19/1
f 32/20/1 23/21/1 3/22/1
f 31/23/1 13/24/1 19/25/1
f 25/26/1 40/27/1 15/28/1
f 6/29/1 45/30/1 25/26/1
f 1/31/1 46/32/1 20/33/1
f 15/28/1 46/32/1 33/34/1
f 38/35/1 18/14/1 48/36/1
f 21/37/1 38/35/1 11/38/1
f 2/39/1 47/9/1 21/37/1
f 29/40/1 36/41/1 6/29/1
f 11/38/1 48/36/1 29/40/1
f 16/42/1 50/6/1 39/8/1
f 43/43/1 5/44/1 9/19/1
f 12/45/1 51/3/1 41/11/1
f 44/46/1 14/47/1 19/25/1
f 22/1/1 4/48/1 35/2/1
f 26/4/1 7/13/1 37/5/1
f 34/7/1 16/42/1 39/8/1
f 30/10/1 12/45/1 41/11/1
f 7/13/1 30/10/1 42/12/1
f 18/14/1 17/49/1 49/15/1
f 49/15/1 28/50/1 10/16/1
f 17/49/1 27/17/1 49/15/1
f 5/44/1 28/50/1 9/19/1
f 49/15/1 27/17/1 9/19/1
f 9/19/1 28/50/1 49/15/1
f 32/20/1 44/46/1 23/21/1
f 14/47/1 24/51/1 19/25/1
f 43/43/1 31/23/1 19/25/1
f 19/25/1 24/51/1 43/43/1
f 25/26/1 45/30/1 40/27/1
f 6/29/1 36/41/1 45/30/1
f 1/31/1 33/34/1 46/32/1
f 15/28/1 40/27/1 46/32/1
f 36/41/1 48/36/1 18/14/1
f 38/35/1 47/9/1 39/8/1
f 50/6/1 37/5/1 18/14/1
f 38/35/1 39/8/1 18/14/1
f 40/27/1 45/30/1 10/16/1
f 39/8/1 50/6/1 18/14/1
f 41/11/1 51/3/1 17/49/1
f 37/5/1 42/12/1 18/14/1
f 46/32/1 40/27/1 10/16/1
f 42/12/1 17/49/1 18/14/1
f 35/2/1 17/49/1 51/3/1
f 18/14/1 45/30/1 36/41/1
f 20/33/1 46/32/1 10/16/1
f 41/11/1 17/49/1 42/12/1
f 10/16/1 45/30/1 18/14/1
f 21/37/1 47/9/1 38/35/1
f 2/39/1 34/7/1 47/9/1
f 29/40/1 48/36/1 36/41/1
f 11/38/1 38/35/1 48/36/1
f 16/42/1 26/4/1 50/6/1
f 9/19/1 8/18/1 43/43/1
f 43/43/1 24/51/1 5/44/1
f 8/18/1 31/23/1 43/43/1
f 12/45/1 22/1/1 51/3/1
f 19/25/1 13/24/1 44/46/1
f 44/46/1 32/20/1 14/47/1
f 13/24/1 23/21/1 44/46/1
