# Blender v2.77 (sub 0) OBJ File: 'newVan.blend'
# www.blender.org
v 1.215031 -1.000000 2.452690
v -1.221388 -1.000000 2.452690
v -1.221388 -1.000000 1.210951
v 1.215032 -1.000000 1.210953
v 1.215032 -0.147394 1.210953
v 1.215031 -0.147394 2.452690
v 1.215031 -0.206960 2.452690
v 1.215031 -0.206960 2.337734
v 1.215031 -0.391475 2.337734
v 1.215031 -0.391475 2.452690
v 1.056738 -0.391475 2.452690
v 1.056738 -0.280058 2.452690
v 0.813688 -0.483757 2.452690
v -0.756382 -0.483757 2.452690
v -1.221388 -0.147394 2.452690
v -1.221388 -0.147394 1.210951
v -1.221388 -0.391475 2.452690
v -1.221388 -0.391475 2.337734
v -1.221388 -0.206960 2.337734
v -1.221388 -0.206960 2.452690
v -1.221386 -1.000000 0.064709
v 1.215032 -1.000000 0.064709
v 1.215032 -0.147394 0.064709
v 1.143958 -0.206960 2.452690
v 1.056738 -0.206960 2.490487
v 1.250000 -0.206960 2.490487
v 1.250000 -0.206960 2.337734
v 1.056738 -0.206960 2.452690
v 1.250000 -0.391475 2.337734
v 1.250000 -0.391475 2.490487
v 1.056738 -0.391475 2.490487
v -1.056738 -0.266493 2.452690
v -1.056738 -0.391475 2.452690
v 0.813688 -0.221521 2.452690
v 0.813688 -0.483757 2.500000
v -0.756382 -0.483757 2.500000
v -1.139041 -0.206960 2.452690
v -1.221386 -0.147394 0.064709
v -1.250000 -0.391475 2.337734
v -1.056738 -0.391475 2.490487
v -1.250000 -0.391475 2.490487
v -1.250000 -0.206960 2.337734
v -1.250000 -0.206960 2.490487
v -1.056738 -0.206960 2.490487
v -1.056738 -0.206960 2.452690
v -1.221388 -1.000000 -2.482576
v 1.215031 -1.000000 -2.482576
v 1.215032 -0.044871 0.141791
v 1.215032 -0.044871 1.133871
v 1.215031 -0.672573 -2.482576
v 1.215031 -0.672573 -2.347247
v 1.215031 -0.488058 -2.347247
v 1.215031 -0.488058 -2.482576
v 1.215031 -0.391475 -2.482576
v 1.215031 -0.391475 -2.347247
v 1.215031 -0.206960 -2.347247
v 1.215031 -0.206960 -2.482576
v 1.215031 -0.147394 -2.482576
v 1.106982 -0.079783 1.210953
v -1.113338 -0.079783 1.210953
v -0.756382 -0.221521 2.452690
v 0.813688 -0.221521 2.500000
v -0.756382 -0.221521 2.500000
v -1.221388 -0.033880 1.125607
v -1.221386 -0.033880 0.150054
v -1.221388 -0.147394 -2.482576
v -1.221388 -0.206960 -2.482576
v -1.221387 -0.206960 -2.347246
v -1.221387 -0.391475 -2.347246
v -1.221388 -0.391475 -2.482576
v -1.221388 -0.488058 -2.482576
v -1.221387 -0.488058 -2.347246
v -1.221387 -0.672573 -2.347246
v -1.221388 -0.672573 -2.482576
v 1.053935 -0.206960 -2.482576
v 1.053935 -0.391475 -2.482576
v 1.053935 -0.488058 -2.482576
v 1.053935 -0.672573 -2.482576
v -1.056738 -0.672573 -2.482575
v -1.056738 -0.488058 -2.482575
v -1.056738 -0.391475 -2.482575
v -1.056738 -0.206960 -2.482575
v 1.004768 1.000000 1.135160
v 1.004768 0.915162 0.250422
v 1.137614 -0.044871 0.141791
v 1.137614 -0.044871 1.133871
v 1.085361 -0.147394 -2.347005
v 1.085361 -0.147394 -0.070862
v 1.053935 -0.672573 -2.500000
v 1.247197 -0.672573 -2.500000
v 1.247197 -0.672573 -2.347247
v 1.247197 -0.488058 -2.347247
v 1.247197 -0.488058 -2.500000
v 1.053935 -0.488058 -2.500000
v 1.053935 -0.391475 -2.500000
v 1.247197 -0.391475 -2.500000
v 1.247197 -0.391475 -2.347247
v 1.247197 -0.206960 -2.347247
v 1.247197 -0.206960 -2.500000
v 1.053935 -0.206960 -2.500000
v -1.011382 1.000000 1.135160
v 0.915356 0.944052 1.135160
v 1.106982 -0.079783 1.134534
v -1.113338 -0.079783 1.134534
v -1.011382 1.000000 0.186637
v -1.011382 0.906067 1.064536
v -1.149965 -0.033880 1.125607
v -1.149964 -0.033880 0.150054
v -1.091717 -0.147394 -0.070862
v -1.091717 -0.147394 -2.347004
v -1.249999 -0.206960 -2.347246
v -1.056738 -0.206960 -2.499999
v -1.249999 -0.206960 -2.500000
v -1.249999 -0.391475 -2.347246
v -1.249999 -0.391475 -2.500000
v -1.056738 -0.391475 -2.499999
v -1.249999 -0.488058 -2.347246
v -1.056738 -0.488058 -2.499999
v -1.249999 -0.488058 -2.500000
v -1.249999 -0.672573 -2.347246
v -1.249999 -0.672573 -2.500000
v -1.056738 -0.672573 -2.499999
v 1.004768 0.915162 1.071374
v 1.004767 1.000000 0.186637
v 0.940704 0.915162 0.250422
v 0.940704 0.915162 1.071374
v 1.085361 -0.495710 -2.347005
v 1.085361 -0.495710 -0.070862
v -0.921971 0.944052 1.135160
v 0.915356 0.944052 1.071923
v -0.921971 0.944052 1.071923
v -1.011381 0.906067 0.257261
v -0.952280 0.906067 1.064536
v -0.952280 0.906067 0.257261
v -1.091717 -0.495710 -0.070862
v -1.091717 -0.495710 -2.347004
v 1.004767 1.000000 0.186637
v -1.011382 1.000000 0.186637
v 1.004768 1.000000 -2.361073
v -1.011382 1.000000 -2.361073
vt 0.057711 0.950102
vt 0.059607 0.934561
vt 0.061862 0.937935
vt 0.057711 0.924898
vt 0.082914 0.950102
vt 0.057711 0.950102
vt 0.082914 0.924898
vt 0.057711 0.950102
vt 0.057711 0.924898
vt 0.082914 0.950102
vt 0.057711 0.950102
vt 0.057711 0.927207
vt 0.057711 0.924898
vt 0.058604 0.927471
vt 0.972652 0.086084
vt 0.972655 0.086089
vt 0.972659 0.086091
vt 0.972579 0.085920
vt 0.972581 0.085915
vt 0.972580 0.085920
vt 0.972659 0.085784
vt 0.972657 0.085784
vt 0.972653 0.085790
vt 0.082914 0.950102
vt 0.078104 0.937935
vt 0.080880 0.933973
vt 0.972824 0.085936
vt 0.972823 0.085936
vt 0.972823 0.085937
vt 0.059510 0.927535
vt 0.061862 0.927771
vt 0.051586 0.062743
vt 0.051075 0.062813
vt 0.051601 0.062744
vt 0.082914 0.924898
vt 0.082914 0.927207
vt 0.082062 0.927207
vt 0.082914 0.924898
vt 0.057711 0.950102
vt 0.057711 0.924898
vt 0.105560 0.693853
vt 0.102398 0.690691
vt 0.102398 0.693853
vt 0.972626 0.085750
vt 0.972620 0.085744
vt 0.972626 0.085752
vt 0.972709 0.085910
vt 0.972709 0.085916
vt 0.972709 0.085910
vt 0.972626 0.086123
vt 0.972626 0.086125
vt 0.972628 0.086128
vt 0.082914 0.924898
vt 0.057711 0.950102
vt 0.082914 0.924898
vt 0.057711 0.950102
vt 0.057711 0.924898
vt 0.081211 0.927207
vt 0.078104 0.927771
vt 0.972729 0.085919
vt 0.972732 0.085915
vt 0.972733 0.085920
vt 0.972489 0.085937
vt 0.972489 0.085934
vt 0.972486 0.085936
vt 0.972463 0.085955
vt 0.972462 0.085953
vt 0.972459 0.085952
vt 0.051064 0.062503
vt 0.051061 0.062507
vt 0.051067 0.062505
vt 0.050328 0.062584
vt 0.049732 0.062595
vt 0.049717 0.062566
vt 0.050504 0.062511
vt 0.050495 0.062505
vt 0.050501 0.062507
vt 0.057711 0.950102
vt 0.057711 0.924898
vt 0.972859 0.085953
vt 0.972850 0.085955
vt 0.972854 0.085952
vt 0.972602 0.085916
vt 0.972608 0.085909
vt 0.972608 0.085915
vt 0.081248 0.927207
vt 0.059421 0.934357
vt 0.059417 0.927208
vt 0.082914 0.924898
vt 0.057711 0.950102
vt 0.057711 0.924898
vt 0.057711 0.924898
vt 0.082914 0.950102
vt 0.082914 0.924898
vt 0.035157 0.054831
vt 0.035156 0.054833
vt 0.035160 0.054832
vt 0.035221 0.054666
vt 0.035222 0.054670
vt 0.035221 0.054666
vt 0.035166 0.054539
vt 0.035167 0.054539
vt 0.035160 0.054543
vt 0.972656 0.086082
vt 0.972658 0.086083
vt 0.972661 0.086082
vt 0.972722 0.085918
vt 0.972722 0.085922
vt 0.972721 0.085918
vt 0.972669 0.085789
vt 0.972666 0.085789
vt 0.972661 0.085793
vt 0.082914 0.924898
vt 0.057711 0.950102
vt 0.057711 0.924898
vt 0.051067 0.062190
vt 0.051601 0.062256
vt 0.051075 0.062187
vt 0.082914 0.924898
vt 0.057711 0.950102
vt 0.057711 0.924898
vt 0.057711 0.924898
vt 0.082914 0.950102
vt 0.082914 0.924898
vt 0.972621 0.085760
vt 0.972618 0.085756
vt 0.972621 0.085762
vt 0.972610 0.085919
vt 0.972612 0.085914
vt 0.972611 0.085919
vt 0.972622 0.086113
vt 0.972621 0.086115
vt 0.972623 0.086117
vt 0.042937 0.081855
vt 0.042931 0.081850
vt 0.042936 0.081856
vt 0.042923 0.082011
vt 0.042924 0.082006
vt 0.042924 0.082011
vt 0.042936 0.082207
vt 0.042937 0.082207
vt 0.042938 0.082210
vt 0.352608 0.665011
vt 0.172375 0.718175
vt 0.172375 0.665011
vt 0.057711 0.950102
vt 0.082914 0.924898
vt 0.057711 0.924898
vt 0.972497 0.085941
vt 0.972499 0.085939
vt 0.972496 0.085938
vt 0.034997 0.054689
vt 0.034999 0.054688
vt 0.034997 0.054690
vt 0.043149 0.082049
vt 0.043154 0.082048
vt 0.043150 0.082051
vt 0.972838 0.085957
vt 0.972842 0.085954
vt 0.972839 0.085956
vt 0.057711 0.924898
vt 0.082914 0.950102
vt 0.057711 0.950102
vt 0.082914 0.924898
vt 0.057711 0.950102
vt 0.082914 0.924898
vt 0.057711 0.950102
vt 0.082914 0.924898
vt 0.057711 0.950102
vt 0.057711 0.924898
vt 0.057711 0.924898
vt 0.082914 0.950102
vt 0.057711 0.950102
vt 0.950924 0.958736
vt 0.970951 0.978764
vt 0.950924 0.978764
vt 0.082914 0.950102
vt 0.057711 0.950102
vt 0.082914 0.924898
vt 0.057711 0.924898
vt 0.035091 0.054670
vt 0.035094 0.054665
vt 0.035094 0.054670
vt 0.035318 0.054687
vt 0.035312 0.054689
vt 0.035315 0.054689
vt 0.972589 0.085922
vt 0.972594 0.085917
vt 0.972594 0.085921
vt 0.972819 0.085939
vt 0.972813 0.085938
vt 0.972816 0.085941
vt 0.057711 0.924898
vt 0.082914 0.950102
vt 0.057711 0.950102
vt 0.082914 0.924898
vt 0.057711 0.950102
vt 0.082914 0.924898
vt 0.057711 0.950102
vt 0.057711 0.924898
vt 0.057711 0.924898
vt 0.082914 0.950102
vt 0.057711 0.950102
vt 0.950924 0.958736
vt 0.970951 0.978764
vt 0.950924 0.978764
vt 0.057711 0.924898
vt 0.082914 0.950102
vt 0.057711 0.950102
vt 0.082914 0.924898
vt 0.057711 0.950102
vt 0.057711 0.924898
vt 0.057711 0.924898
vt 0.082914 0.950102
vt 0.057711 0.950102
vt 0.970951 0.958736
vt 0.950924 0.978764
vt 0.950924 0.958736
vt 0.057711 0.950102
vt 0.082914 0.924898
vt 0.057711 0.924898
vt 0.972471 0.085955
vt 0.972470 0.085956
vt 0.972466 0.085953
vt 0.972697 0.085919
vt 0.972702 0.085914
vt 0.972702 0.085919
vt 0.042785 0.082050
vt 0.042784 0.082048
vt 0.042780 0.082048
vt 0.043010 0.082011
vt 0.043014 0.082006
vt 0.043014 0.082011
vt 0.057711 0.950102
vt 0.082914 0.924898
vt 0.057711 0.924898
vt 0.057711 0.924898
vt 0.082914 0.950102
vt 0.057711 0.950102
vt 0.082914 0.950102
vt 0.057711 0.950102
vt 0.082914 0.924898
vt 0.057711 0.950102
vt 0.057711 0.924898
vt 0.057711 0.950102
vt 0.082914 0.924898
vt 0.057711 0.924898
vt 0.082914 0.924898
vt 0.057711 0.924898
vt 0.082914 0.924898
vt 0.057711 0.950102
vt 0.082914 0.924898
vt 0.057711 0.950102
vt 0.057711 0.924898
vt 0.057711 0.950102
vt 0.082914 0.924898
vt 0.057711 0.950102
vt 0.057711 0.924898
vt 0.057711 0.950102
vt 0.082914 0.950102
vt 0.057711 0.950102
vt 0.082914 0.950102
vt 0.082914 0.924898
vt 0.326777 0.811546
vt 0.166527 0.718704
vt 0.181644 0.811546
vt 0.469290 0.854394
vt 0.077398 0.688562
vt 0.057700 0.854394
vt 0.244792 0.797197
vt 0.354305 0.750854
vt 0.239307 0.750854
vt 0.043613 0.899718
vt 0.046957 0.896374
vt 0.043613 0.896374
vt 0.070724 0.680919
vt 0.084345 0.832854
vt 0.070724 0.680919
vt 0.339970 0.762505
vt 0.135063 0.822947
vt 0.135063 0.762505
vt 0.075624 0.704423
vt 0.075624 0.704423
vt 0.075624 0.704423
vt 0.057711 0.934359
vt 0.059678 0.930565
vt 0.082914 0.924898
vt 0.082914 0.950102
vt 0.972657 0.086091
vt 0.972648 0.086085
vt 0.972653 0.086085
vt 0.972649 0.086087
vt 0.972581 0.085915
vt 0.972649 0.085788
vt 0.972648 0.085790
vt 0.972652 0.085791
vt 0.082914 0.934359
vt 0.081121 0.929485
vt 0.972821 0.085935
vt 0.972821 0.085935
vt 0.051067 0.062810
vt 0.082914 0.950102
vt 0.112800 0.809880
vt 0.972628 0.085747
vt 0.972619 0.085743
vt 0.972627 0.085746
vt 0.972710 0.085916
vt 0.972620 0.086131
vt 0.972624 0.086129
vt 0.972619 0.086132
vt 0.972627 0.086129
vt 0.082914 0.950102
vt 0.082914 0.950102
vt 0.972728 0.085914
vt 0.972492 0.085935
vt 0.972458 0.085954
vt 0.972459 0.085952
vt 0.051058 0.062511
vt 0.050335 0.062621
vt 0.050498 0.062503
vt 0.082914 0.950102
vt 0.972855 0.085953
vt 0.972603 0.085910
vt 0.057711 0.927207
vt 0.082914 0.927207
vt 0.081248 0.934359
vt 0.082914 0.934359
vt 0.082914 0.938102
vt 0.081333 0.936810
vt 0.081274 0.944405
vt 0.082914 0.945254
vt 0.082914 0.950102
vt 0.059391 0.944380
vt 0.059332 0.936781
vt 0.057711 0.950102
vt 0.057711 0.945254
vt 0.057711 0.938102
vt 0.057711 0.934359
vt 0.082914 0.950102
vt 0.057711 0.950102
vt 0.035167 0.054836
vt 0.035166 0.054836
vt 0.035158 0.054830
vt 0.035222 0.054670
vt 0.035156 0.054542
vt 0.035157 0.054544
vt 0.035158 0.054545
vt 0.972666 0.086086
vt 0.972669 0.086086
vt 0.972657 0.086080
vt 0.972723 0.085922
vt 0.972658 0.085792
vt 0.972656 0.085793
vt 0.972656 0.085795
vt 0.082914 0.950102
vt 0.051586 0.062257
vt 0.082914 0.950102
vt 0.057711 0.950102
vt 0.972623 0.085758
vt 0.972618 0.085755
vt 0.972623 0.085756
vt 0.972611 0.085914
vt 0.972618 0.086119
vt 0.972623 0.086119
vt 0.972617 0.086120
vt 0.042938 0.081853
vt 0.042932 0.081850
vt 0.042936 0.081852
vt 0.042924 0.082006
vt 0.042931 0.082212
vt 0.042936 0.082211
vt 0.042932 0.082213
vt 0.352608 0.718175
vt 0.082914 0.950102
vt 0.972499 0.085938
vt 0.035000 0.054689
vt 0.043152 0.082050
vt 0.972842 0.085955
vt 0.082914 0.950102
vt 0.082914 0.950102
vt 0.082914 0.950102
vt 0.082914 0.924898
vt 0.970951 0.958736
vt 0.057711 0.950102
vt 0.082914 0.950102
vt 0.035091 0.054666
vt 0.035316 0.054688
vt 0.972590 0.085918
vt 0.972816 0.085938
vt 0.082914 0.950102
vt 0.082914 0.950102
vt 0.082914 0.924898
vt 0.970951 0.958736
vt 0.082914 0.950102
vt 0.082914 0.924898
vt 0.970951 0.978764
vt 0.082914 0.950102
vt 0.972474 0.085957
vt 0.972697 0.085914
vt 0.042788 0.082049
vt 0.043009 0.082005
vt 0.082914 0.950102
vt 0.082914 0.950102
vt 0.082914 0.950102
vt 0.082914 0.950102
vt 0.082914 0.950102
vt 0.082914 0.950102
vt 0.082914 0.950102
vt 0.341913 0.718704
vt 0.488919 0.688562
vt 0.359809 0.797197
vt 0.035957 0.773675
vt 0.084345 0.832854
vt 0.339970 0.822947
vt 0.084306 0.847355
vn 0.000000 0.000000 1.000000
vn 0.000000 -1.000000 0.000000
vn 1.000000 0.000000 0.000000
vn 0.000000 1.000000 0.000000
vn 0.000000 0.000000 -1.000000
vn -1.000000 0.000000 0.000000
vn 0.948100 0.191100 -0.254200
vn 0.046500 0.074300 0.996100
vn 0.942300 0.201100 -0.267500
vn 0.000000 -0.112400 0.993700
vn 0.000000 -0.065000 -0.997900
vn 0.979600 0.200900 0.000000
vn 0.041300 0.066100 0.997000
vn -0.948500 0.190300 0.253200
vn -0.982900 -0.184000 0.000000
vn 0.983000 -0.183700 0.000000
vn 0.000000 0.061000 0.998100
vn -0.951600 0.184600 0.245600
vn 0.000000 -0.064800 -0.997900
vn 0.000000 -0.113300 0.993600
vn -0.978600 0.205800 -0.000000
vn 0.000000 0.105300 -0.994400
vn -0.983700 0.180000 -0.000000
vn 0.983600 0.180300 -0.000000
vn 0.948400 0.190500 0.253400
vn -0.041300 0.066100 0.997000
vn 0.953300 0.181500 0.241400
vn -0.046500 0.074300 0.996100
vn -0.946100 0.194600 -0.258800
vn -0.942500 0.200900 -0.267200
s off
f 1/1/1 11/2/1 13/3/1
f 4/4/2 21/5/2 22/6/2
f 4/7/3 23/8/3 5/9/3
f 5/9/4 15/10/4 6/11/4
f 7/12/1 6/13/1 24/14/1
f 26/15/4 24/16/4 25/17/4
f 27/18/5 9/19/5 8/20/5
f 31/21/2 11/22/2 10/23/2
f 2/24/1 14/25/1 33/26/1
f 28/27/6 12/28/6 25/29/6
f 28/30/1 6/13/1 34/31/1
f 35/32/2 14/33/2 13/34/2
f 15/35/1 20/36/1 37/37/1
f 16/38/6 21/39/6 3/40/6
f 3/41/6 15/42/6 16/43/6
f 17/44/2 40/45/2 41/46/2
f 39/47/5 19/48/5 18/49/5
f 43/50/4 20/51/4 42/52/4
f 23/53/3 49/54/3 5/9/3
f 5/55/1 60/56/1 16/57/1
f 15/35/1 45/58/1 61/59/1
f 25/60/1 30/61/1 26/62/1
f 26/63/3 29/64/3 27/65/3
f 40/66/3 33/67/3 32/68/3
f 62/69/3 13/70/3 34/71/3
f 63/72/1 35/73/1 62/74/1
f 36/75/6 61/76/6 14/77/6
f 16/38/6 65/78/6 38/79/6
f 42/80/6 41/81/6 43/82/6
f 43/83/1 40/84/1 44/85/1
f 75/86/5 81/87/5 82/88/5
f 48/89/4 86/90/4 49/91/4
f 23/92/2 87/93/2 58/94/2
f 91/95/2 51/96/2 50/97/2
f 91/98/1 52/99/1 51/100/1
f 94/101/4 77/102/4 53/103/4
f 97/104/2 55/105/2 54/106/2
f 97/107/1 56/108/1 55/109/1
f 100/110/4 75/111/4 57/112/4
f 59/113/4 104/114/4 60/115/4
f 63/116/4 34/117/4 61/118/4
f 64/119/4 108/120/4 65/121/4
f 66/122/2 109/123/2 38/124/2
f 67/125/4 112/126/4 113/127/4
f 111/128/1 69/129/1 68/130/1
f 115/131/2 70/132/2 114/133/2
f 71/134/4 118/135/4 119/136/4
f 117/137/1 73/138/1 72/139/1
f 121/140/2 74/141/2 120/142/2
f 66/143/6 21/144/6 38/145/6
f 87/146/2 66/147/2 58/148/2
f 100/149/6 76/150/6 75/151/6
f 94/152/6 78/153/6 77/154/6
f 122/155/3 80/156/3 79/157/3
f 116/158/3 82/159/3 81/160/3
f 83/161/7 49/162/7 123/163/7
f 83/164/8 59/165/8 5/9/8
f 124/166/9 48/167/9 23/92/9
f 84/168/10 85/169/10 48/170/10
f 123/171/11 86/172/11 126/173/11
f 86/174/12 125/175/12 126/176/12
f 38/79/2 88/177/2 23/53/2
f 128/178/3 87/179/3 88/180/3
f 93/181/5 89/182/5 94/183/5
f 92/184/3 90/185/3 93/186/3
f 99/187/5 95/188/5 100/189/5
f 98/190/3 96/191/3 99/192/3
f 101/193/13 60/194/13 129/195/13
f 101/196/14 64/197/14 16/57/14
f 102/198/15 103/199/15 59/200/15
f 129/201/16 104/202/16 131/203/16
f 104/204/17 130/205/17 131/206/17
f 105/207/18 65/208/18 132/209/18
f 106/210/19 107/211/19 64/212/19
f 132/213/20 108/214/20 134/215/20
f 107/216/21 134/217/21 108/218/21
f 136/219/6 109/220/6 110/221/6
f 113/222/6 114/223/6 111/224/6
f 112/225/5 115/226/5 113/227/5
f 119/228/6 120/229/6 117/230/6
f 118/231/5 121/232/5 119/233/5
f 127/234/5 110/235/5 87/236/5
f 124/237/3 123/238/3 84/239/3
f 83/161/1 129/240/1 102/241/1
f 123/242/2 125/243/2 84/244/2
f 135/245/1 88/246/1 109/247/1
f 136/219/2 128/248/2 135/249/2
f 105/250/6 106/251/6 101/193/6
f 129/252/2 130/253/2 102/254/2
f 83/164/4 105/255/4 101/193/4
f 132/256/2 133/257/2 106/258/2
f 138/259/4 139/260/4 140/261/4
f 105/255/1 137/262/1 138/259/1
f 124/166/1 23/92/1 137/263/1
f 139/264/22 66/265/22 140/266/22
f 140/267/23 38/268/23 138/269/23
f 139/270/24 23/271/24 58/272/24
f 6/273/3 4/274/3 5/275/3
f 2/276/2 4/277/2 1/278/2
f 47/279/3 23/280/3 22/281/3
f 21/282/2 47/283/2 22/284/2
f 14/25/1 2/24/1 1/1/1
f 1/1/1 10/285/1 11/2/1
f 11/2/1 12/286/1 13/3/1
f 13/3/1 14/25/1 1/1/1
f 4/4/2 3/287/2 21/5/2
f 4/7/3 22/288/3 23/8/3
f 5/9/4 16/38/4 15/10/4
f 28/289/4 25/17/4 24/16/4
f 26/15/4 27/290/4 7/291/4
f 7/291/4 24/16/4 26/15/4
f 27/290/4 8/292/4 7/291/4
f 27/18/5 29/293/5 9/19/5
f 10/23/2 9/294/2 29/295/2
f 30/296/2 31/21/2 10/23/2
f 10/23/2 29/295/2 30/296/2
f 33/26/1 17/297/1 2/24/1
f 14/25/1 32/298/1 33/26/1
f 31/299/6 25/29/6 12/28/6
f 12/28/6 11/300/6 31/299/6
f 13/3/1 12/286/1 34/31/1
f 28/30/1 24/14/1 6/13/1
f 34/31/1 12/286/1 28/30/1
f 35/32/2 36/301/2 14/33/2
f 16/38/6 38/302/6 21/39/6
f 3/41/6 2/303/6 15/42/6
f 41/46/2 39/304/2 17/44/2
f 17/44/2 33/305/2 40/45/2
f 39/304/2 18/306/2 17/44/2
f 39/47/5 42/307/5 19/48/5
f 43/50/4 44/308/4 37/309/4
f 45/310/4 37/309/4 44/308/4
f 19/311/4 42/52/4 20/51/4
f 43/50/4 37/309/4 20/51/4
f 23/53/3 48/312/3 49/54/3
f 5/55/1 59/313/1 60/56/1
f 34/31/1 6/13/1 61/59/1
f 15/35/1 37/37/1 45/58/1
f 45/58/1 32/298/1 61/59/1
f 61/59/1 6/13/1 15/35/1
f 32/298/1 14/25/1 61/59/1
f 25/60/1 31/314/1 30/61/1
f 26/63/3 30/315/3 29/64/3
f 32/68/3 45/316/3 44/317/3
f 44/317/3 40/66/3 32/68/3
f 62/69/3 35/318/3 13/70/3
f 63/72/1 36/319/1 35/73/1
f 36/75/6 63/320/6 61/76/6
f 16/38/6 64/321/6 65/78/6
f 42/80/6 39/322/6 41/81/6
f 43/83/1 41/323/1 40/84/1
f 67/324/5 66/122/5 82/88/5
f 58/94/5 57/325/5 75/86/5
f 76/326/5 54/327/5 53/328/5
f 76/326/5 53/328/5 77/329/5
f 78/330/5 50/331/5 47/332/5
f 75/86/5 76/326/5 81/87/5
f 78/330/5 47/332/5 79/333/5
f 76/326/5 77/329/5 80/334/5
f 46/335/5 74/336/5 79/333/5
f 80/334/5 71/337/5 70/338/5
f 47/332/5 46/335/5 79/333/5
f 80/334/5 70/338/5 81/87/5
f 78/330/5 79/333/5 80/334/5
f 77/329/5 78/330/5 80/334/5
f 80/334/5 81/87/5 76/326/5
f 82/88/5 66/122/5 58/94/5
f 58/94/5 75/86/5 82/88/5
f 48/89/4 85/339/4 86/90/4
f 23/92/2 88/340/2 87/93/2
f 78/341/2 89/342/2 50/97/2
f 90/343/2 91/95/2 50/97/2
f 50/97/2 89/342/2 90/343/2
f 91/98/1 92/344/1 52/99/1
f 53/103/4 52/345/4 92/346/4
f 93/347/4 94/101/4 53/103/4
f 53/103/4 92/346/4 93/347/4
f 76/348/2 95/349/2 54/106/2
f 96/350/2 97/104/2 54/106/2
f 54/106/2 95/349/2 96/350/2
f 97/107/1 98/351/1 56/108/1
f 57/112/4 56/352/4 98/353/4
f 99/354/4 100/110/4 57/112/4
f 57/112/4 98/353/4 99/354/4
f 59/113/4 103/355/4 104/114/4
f 63/116/4 62/356/4 34/117/4
f 64/119/4 107/357/4 108/120/4
f 66/122/2 110/358/2 109/123/2
f 113/127/4 111/359/4 67/125/4
f 67/125/4 82/360/4 112/126/4
f 111/359/4 68/361/4 67/125/4
f 111/128/1 114/362/1 69/129/1
f 115/131/2 116/363/2 70/132/2
f 70/132/2 69/364/2 114/133/2
f 116/363/2 81/365/2 70/132/2
f 119/136/4 117/366/4 71/134/4
f 71/134/4 80/367/4 118/135/4
f 117/366/4 72/368/4 71/134/4
f 117/137/1 120/369/1 73/138/1
f 121/140/2 122/370/2 74/141/2
f 74/141/2 73/371/2 120/142/2
f 122/370/2 79/372/2 74/141/2
f 66/143/6 46/373/6 21/144/6
f 87/146/2 110/374/2 66/147/2
f 100/149/6 95/375/6 76/150/6
f 94/152/6 89/376/6 78/153/6
f 122/155/3 118/377/3 80/156/3
f 116/158/3 112/378/3 82/159/3
f 83/161/25 5/55/25 49/162/25
f 83/164/26 102/379/26 59/165/26
f 124/166/27 84/380/27 48/167/27
f 84/168/10 125/381/10 85/169/10
f 123/171/11 49/382/11 86/172/11
f 86/174/12 85/383/12 125/175/12
f 38/79/2 109/384/2 88/177/2
f 128/178/3 127/385/3 87/179/3
f 93/181/5 90/386/5 89/182/5
f 92/184/3 91/387/3 90/185/3
f 99/187/5 96/388/5 95/188/5
f 98/190/3 97/389/3 96/191/3
f 101/193/28 16/38/28 60/194/28
f 101/196/29 106/390/29 64/197/29
f 102/198/15 130/391/15 103/199/15
f 129/201/16 60/392/16 104/202/16
f 104/204/17 103/393/17 130/205/17
f 105/207/30 38/124/30 65/208/30
f 106/210/19 133/394/19 107/211/19
f 132/213/20 65/395/20 108/214/20
f 107/216/21 133/396/21 134/217/21
f 136/219/6 135/397/6 109/220/6
f 113/222/6 115/398/6 114/223/6
f 112/225/5 116/399/5 115/226/5
f 119/228/6 121/400/6 120/229/6
f 118/231/5 122/401/5 121/232/5
f 127/234/5 136/402/5 110/235/5
f 124/237/3 83/164/3 123/238/3
f 83/161/1 101/196/1 129/240/1
f 123/242/2 126/403/2 125/243/2
f 135/245/1 128/404/1 88/246/1
f 136/219/2 127/385/2 128/248/2
f 105/250/6 132/405/6 106/251/6
f 129/252/2 131/406/2 130/253/2
f 83/164/4 124/407/4 105/255/4
f 132/256/2 134/408/2 133/257/2
f 138/259/4 137/262/4 139/260/4
f 105/255/1 124/407/1 137/262/1
f 139/264/22 58/409/22 66/265/22
f 140/267/23 66/410/23 38/268/23
f 139/270/24 137/411/24 23/271/24
f 6/273/3 1/412/3 4/274/3
f 2/276/2 3/413/2 4/277/2
f 47/279/3 58/414/3 23/280/3
f 21/282/2 46/415/2 47/283/2
