# Blender v2.77 (sub 0) OBJ File: 'VanArrow.blend'
# www.blender.org
v 0.219937 0.040797 -0.029343
v 0.201358 0.070860 -0.035355
v 0.236556 0.067686 -0.029343
v 0.213432 0.050260 -0.033594
v 0.230527 0.052833 -0.032814
v 0.225183 0.069273 -0.033594
v 0.238321 0.048016 -0.029343
v 0.201358 0.070860 0.035355
v 0.219937 0.040797 0.029343
v 0.236556 0.067686 0.029343
v 0.213432 0.050260 0.033594
v 0.230527 0.052833 0.032814
v 0.238321 0.048016 0.029343
v 0.225183 0.069273 0.033594
v -0.219937 0.040797 0.029343
v -0.201358 0.070860 0.035355
v -0.236556 0.067686 0.029343
v -0.213432 0.050260 0.033594
v -0.230527 0.052833 0.032814
v -0.225183 0.069273 0.033594
v -0.238321 0.048016 0.029343
v -0.013444 0.513909 -0.029343
v 0.013444 0.513909 -0.029343
v 0.000000 0.473576 -0.035355
v 0.000000 0.527831 -0.029343
v 0.000000 0.515227 -0.032814
v 0.009507 0.499311 -0.033594
v -0.009507 0.499311 -0.033594
v -0.201358 0.070860 -0.035355
v -0.219937 0.040797 -0.029343
v -0.236556 0.067686 -0.029343
v -0.213432 0.050260 -0.033594
v -0.230527 0.052833 -0.032814
v -0.238321 0.048016 -0.029343
v -0.225183 0.069273 -0.033594
v -0.013444 0.513909 0.029343
v 0.000000 0.473576 0.035355
v 0.013444 0.513909 0.029343
v -0.009507 0.499311 0.033594
v 0.000000 0.515227 0.032814
v 0.009507 0.499311 0.033594
v 0.000000 0.527831 0.029343
v -0.155063 0.040797 0.029343
v -0.125000 0.010735 0.029343
v -0.094937 0.010735 0.035355
v -0.125000 0.070860 0.035355
v -0.133805 0.031992 0.029343
v -0.125000 0.036452 0.033929
v -0.116195 0.010735 0.033594
v -0.109969 0.040797 0.035355
v -0.140031 0.049602 0.033594
v 0.155063 0.040797 -0.029343
v 0.125000 0.010735 -0.029343
v 0.094937 0.010735 -0.035355
v 0.125000 0.070860 -0.035355
v 0.133805 0.031992 -0.029343
v 0.125000 0.036452 -0.033929
v 0.116195 0.010735 -0.033594
v 0.109969 0.040797 -0.035355
v 0.140031 0.049602 -0.033594
v 0.094937 0.010735 0.035355
v 0.125000 0.010735 0.029343
v 0.155063 0.040797 0.029343
v 0.125000 0.070860 0.035355
v 0.116195 0.010735 0.033594
v 0.125000 0.036452 0.033929
v 0.133805 0.031992 0.029343
v 0.140031 0.049602 0.033594
v 0.109969 0.040797 0.035355
v -0.094937 0.010735 -0.035355
v -0.125000 0.010735 -0.029343
v -0.155062 0.040797 -0.029343
v -0.125000 0.070860 -0.035355
v -0.116195 0.010735 -0.033594
v -0.125000 0.036452 -0.033929
v -0.133805 0.031992 -0.029343
v -0.140031 0.049602 -0.033594
v -0.109969 0.040797 -0.035355
v 0.094937 -0.497768 0.035355
v 0.094937 -0.527831 0.029343
v 0.125000 -0.497768 0.029343
v 0.094937 -0.519026 0.033594
v 0.112294 -0.515125 0.032814
v 0.116195 -0.519026 0.029343
v 0.116195 -0.497768 0.033594
v -0.094938 -0.497768 0.035355
v -0.125000 -0.497768 0.029343
v -0.094938 -0.527831 0.029343
v -0.116195 -0.497768 0.033594
v -0.112294 -0.515125 0.032814
v -0.116195 -0.519026 0.029343
v -0.094938 -0.519026 0.033594
v -0.094938 -0.497768 -0.035355
v -0.094938 -0.527831 -0.029343
v -0.125000 -0.497768 -0.029343
v -0.094938 -0.519026 -0.033594
v -0.112294 -0.515125 -0.032814
v -0.116195 -0.519026 -0.029343
v -0.116195 -0.497768 -0.033594
v 0.094937 -0.497768 -0.035355
v 0.125000 -0.497768 -0.029343
v 0.094937 -0.527831 -0.029343
v 0.116195 -0.497768 -0.033594
v 0.112294 -0.515125 -0.032814
v 0.116195 -0.519026 -0.029343
v 0.094937 -0.519026 -0.033594
vt 0.173900 0.355808
vt 0.156438 0.379870
vt 0.156438 0.355808
vt 0.176430 0.355790
vt 0.193893 0.378228
vt 0.176430 0.378228
vt 0.218223 0.353904
vt 0.215468 0.342705
vt 0.218223 0.342705
vt 0.213103 0.350026
vt 0.216964 0.365720
vt 0.213103 0.365720
vt 0.201253 0.370210
vt 0.213713 0.350916
vt 0.213713 0.370210
vt 0.437180 0.881537
vt 0.455022 0.884895
vt 0.388413 0.959995
vt 0.193182 0.377123
vt 0.210644 0.349929
vt 0.210644 0.377123
vt 0.184511 0.642832
vt 0.151991 0.831856
vt 0.111172 0.656632
vt 0.287598 0.934965
vt 0.356662 0.837306
vt 0.331967 0.943313
vt 0.210149 0.360403
vt 0.221449 0.376097
vt 0.210149 0.376097
vt 0.209927 0.363339
vt 0.209297 0.364267
vt 0.208833 0.363339
vt 0.210154 0.368291
vt 0.209700 0.369408
vt 0.208734 0.368414
vt 0.174933 0.355019
vt 0.175165 0.355903
vt 0.183043 0.350023
vt 0.183497 0.351140
vt 0.182077 0.351017
vt 0.208141 0.353598
vt 0.207511 0.352670
vt 0.208528 0.352461
vt 0.155405 0.355019
vt 0.156438 0.354754
vt 0.232750 0.361641
vt 0.232120 0.362569
vt 0.231656 0.361641
vt 0.157859 0.355729
vt 0.158774 0.354870
vt 0.159215 0.356128
vt 0.193893 0.355790
vt 0.194926 0.354965
vt 0.195158 0.355809
vt 0.175397 0.378220
vt 0.175165 0.377429
vt 0.173900 0.379870
vt 0.174933 0.379953
vt 0.173900 0.380627
vt 0.191278 0.348515
vt 0.192385 0.348307
vt 0.192130 0.349693
vt 0.174119 0.363171
vt 0.173204 0.362312
vt 0.174560 0.361913
vt 0.221239 0.356068
vt 0.220609 0.355139
vt 0.221626 0.354930
vt 0.175397 0.354965
vt 0.176430 0.354754
vt 0.194926 0.378220
vt 0.193893 0.378891
vt 0.163744 0.354056
vt 0.162636 0.353848
vt 0.163488 0.352670
vt 0.155405 0.379953
vt 0.155173 0.379093
vt 0.233708 0.361641
vt 0.233338 0.362778
vt 0.232443 0.361641
vt 0.227711 0.357898
vt 0.229076 0.359266
vt 0.227711 0.359080
vt 0.163314 0.360926
vt 0.163328 0.359240
vt 0.164554 0.359529
vt 0.159495 0.356965
vt 0.159922 0.355132
vt 0.160734 0.355568
vt 0.215053 0.363339
vt 0.214683 0.364476
vt 0.213788 0.363339
vt 0.207469 0.374741
vt 0.208833 0.376117
vt 0.207469 0.375870
vt 0.203775 0.370977
vt 0.204515 0.372527
vt 0.203263 0.372704
vt 0.204287 0.369250
vt 0.204714 0.371084
vt 0.179445 0.355635
vt 0.178705 0.357185
vt 0.178194 0.355458
vt 0.213821 0.354102
vt 0.212456 0.355477
vt 0.212556 0.354110
vt 0.229567 0.346904
vt 0.229937 0.348041
vt 0.228672 0.348041
vt 0.170286 0.379948
vt 0.170713 0.378115
vt 0.171432 0.378952
vt 0.180261 0.364159
vt 0.180247 0.362473
vt 0.181487 0.363871
vt 0.210249 0.357898
vt 0.208884 0.359266
vt 0.208984 0.357847
vt 0.225995 0.354930
vt 0.226365 0.356068
vt 0.225100 0.356068
vt 0.178809 0.364648
vt 0.179236 0.366481
vt 0.178204 0.365973
vt 0.181174 0.351260
vt 0.182414 0.350467
vt 0.182425 0.351437
vt 0.209116 0.359474
vt 0.210149 0.359266
vt 0.210646 0.349135
vt 0.209613 0.348218
vt 0.210646 0.348006
vt 0.167733 0.348385
vt 0.166951 0.347212
vt 0.168003 0.347224
vt 0.225727 0.378092
vt 0.226760 0.377095
vt 0.226992 0.378041
vt 0.221449 0.360403
vt 0.222482 0.359474
vt 0.222714 0.360403
vt 0.196573 0.353581
vt 0.195791 0.354754
vt 0.195348 0.353870
vt 0.222482 0.377026
vt 0.221449 0.377234
vt 0.209653 0.357254
vt 0.208621 0.356258
vt 0.209653 0.356073
vt 0.207633 0.351500
vt 0.208873 0.352293
vt 0.207903 0.352661
vt 0.207469 0.347547
vt 0.208502 0.346630
vt 0.208734 0.347555
vt 0.209116 0.377026
vt 0.208884 0.376097
vt 0.181442 0.363670
vt 0.185284 0.363182
vt 0.185889 0.364507
vt 0.228969 0.362778
vt 0.175165 0.355809
vt 0.183921 0.373227
vt 0.185277 0.372828
vt 0.205432 0.370246
vt 0.210314 0.364476
vt 0.184525 0.373508
vt 0.176315 0.349974
vt 0.177671 0.350373
vt 0.195158 0.377429
vt 0.175165 0.379093
vt 0.155173 0.355903
vt 0.165473 0.369737
vt 0.176430 0.378891
vt 0.156438 0.380627
vt 0.173900 0.354754
vt 0.212009 0.350026
vt 0.212009 0.365720
vt 0.277653 0.946177
vt 0.334019 0.950242
vt 0.336072 0.957170
vt 0.282626 0.940571
vt 0.177121 0.368705
vt 0.189582 0.367966
vt 0.189582 0.368705
vt 0.214687 0.342705
vt 0.215468 0.353904
vt 0.214687 0.353904
vt 0.222879 0.737049
vt 0.134536 0.764485
vt 0.126317 0.755219
vt 0.219486 0.748500
vt 0.142755 0.773752
vt 0.183069 0.354986
vt 0.179767 0.353153
vt 0.184035 0.353992
vt 0.207139 0.353057
vt 0.210613 0.354194
vt 0.206752 0.354194
vt 0.179521 0.356554
vt 0.183364 0.357043
vt 0.179080 0.357813
vt 0.193182 0.378252
vt 0.218229 0.365720
vt 0.216964 0.350026
vt 0.218229 0.350026
vt 0.219126 0.353904
vt 0.201253 0.371053
vt 0.213713 0.371053
vt 0.189311 0.352252
vt 0.178521 0.349010
vt 0.189581 0.351091
vt 0.221449 0.359266
vt 0.196843 0.354742
vt 0.210149 0.377234
vt 0.208884 0.360403
vt 0.210644 0.348800
vt 0.193182 0.349929
vt 0.193182 0.348800
vt 0.200128 0.360032
vt 0.217590 0.358851
vt 0.217590 0.360032
vt 0.222714 0.376097
vt 0.222750 0.372981
vt 0.224015 0.345891
vt 0.224015 0.372930
vt 0.177819 0.345913
vt 0.172889 0.372627
vt 0.171664 0.372338
vt 0.210646 0.376329
vt 0.209381 0.349143
vt 0.176270 0.377862
vt 0.197905 0.347898
vt 0.205312 0.374145
vt 0.204061 0.374323
vt 0.208734 0.374749
vt 0.201534 0.375015
vt 0.194153 0.348878
vt 0.195379 0.348590
vt 0.210373 0.372732
vt 0.211638 0.345744
vt 0.211638 0.372782
vt 0.142271 0.607363
vt 0.201253 0.350916
vt 0.360919 0.867187
vt 0.378762 0.870545
vt 0.225330 0.818056
vt 0.312293 0.828957
vt 0.210670 0.369111
vt 0.184013 0.350319
vt 0.207047 0.353598
vt 0.233137 0.362778
vt 0.157752 0.354791
vt 0.193893 0.354754
vt 0.191645 0.347609
vt 0.173098 0.363250
vt 0.220145 0.356068
vt 0.163003 0.354754
vt 0.234232 0.362867
vt 0.228976 0.357847
vt 0.162502 0.360490
vt 0.158890 0.355640
vt 0.215577 0.364565
vt 0.179644 0.357079
vt 0.213821 0.355231
vt 0.230461 0.346815
vt 0.169775 0.378221
vt 0.179435 0.362909
vt 0.210249 0.359080
vt 0.226889 0.354841
vt 0.180049 0.366045
vt 0.181444 0.350099
vt 0.166507 0.348096
vt 0.225727 0.376911
vt 0.208388 0.357203
vt 0.208884 0.351323
vt 0.207469 0.346418
vt 0.181001 0.362411
vt 0.228582 0.361641
vt 0.183672 0.374685
vt 0.165728 0.371123
vt 0.177121 0.367966
vt 0.216094 0.759952
vt 0.178621 0.354149
vt 0.211507 0.353057
vt 0.183969 0.355717
vt 0.210644 0.378252
vt 0.219126 0.342705
vt 0.178251 0.350171
vt 0.200128 0.358851
vt 0.222750 0.345942
vt 0.179045 0.346202
vt 0.209381 0.376337
vt 0.175018 0.377685
vt 0.199156 0.347720
vt 0.200309 0.375303
vt 0.210373 0.345693
vt 0.252372 0.731499
vt 0.096824 0.760768
vn 0.894400 0.447200 0.000000
vn -0.894400 0.447200 0.000000
vn -0.000000 -1.000000 0.000000
vn -1.000000 0.000000 -0.000000
vn 0.000000 -0.000000 1.000000
vn 1.000000 -0.000000 0.000000
vn 0.000000 0.000000 -1.000000
vn 0.156400 -0.398300 -0.903800
vn 0.070700 -0.043700 -0.996500
vn 0.358100 0.072200 -0.930900
vn 0.070700 -0.043700 0.996500
vn 0.095500 -0.352600 0.930900
vn 0.426200 0.038200 0.903800
vn -0.156400 -0.398300 0.903800
vn -0.070700 -0.043700 0.996500
vn -0.358100 0.072200 0.930900
vn -0.263400 0.203600 -0.943000
vn 0.265100 0.256000 -0.929600
vn 0.000000 0.068300 -0.997700
vn -0.070700 -0.043700 -0.996500
vn -0.095500 -0.352600 -0.930900
vn -0.426200 0.038200 -0.903800
vn -0.265100 0.256000 0.929600
vn 0.000000 0.068300 0.997700
vn 0.263400 0.203600 0.943000
vn -0.112000 -0.270500 0.956200
vn -0.390200 -0.161600 0.906400
vn -0.082500 -0.041200 0.995700
vn -0.082600 -0.041300 0.995700
vn 0.112000 -0.270500 -0.956200
vn 0.390200 -0.161600 -0.906400
vn 0.082500 -0.041200 -0.995700
vn 0.082600 -0.041300 -0.995700
vn 0.082500 -0.041200 0.995700
vn 0.429300 -0.158500 0.889100
vn 0.112000 -0.270500 0.956200
vn 0.058400 -0.041400 0.997400
vn -0.082500 -0.041200 -0.995700
vn -0.429300 -0.158500 -0.889100
vn -0.112000 -0.270500 -0.956200
vn -0.058400 -0.041400 -0.997400
vn 0.082400 -0.063200 0.994600
vn 0.136900 -0.430700 0.892000
vn 0.520100 -0.215400 0.826500
vn -0.063200 -0.082400 0.994600
vn -0.430700 -0.136900 0.892000
vn -0.215400 -0.520100 0.826500
vn -0.082400 -0.063200 -0.994600
vn -0.136900 -0.430700 -0.892000
vn -0.520100 -0.215400 -0.826500
vn 0.063200 -0.082400 -0.994600
vn 0.430700 -0.136900 -0.892000
vn 0.215400 -0.520100 -0.826500
vn -0.000000 -0.082600 0.996600
vn -0.003800 -0.429500 0.903100
vn -0.366600 0.183900 -0.912000
vn -0.076200 0.038100 -0.996400
vn 0.000000 -0.082600 -0.996600
vn 0.003800 -0.429500 -0.903100
vn -0.076200 0.038100 0.996400
vn -0.366600 0.183900 0.912000
vn 0.076200 0.038100 -0.996400
vn 0.366600 0.183900 -0.912000
vn 0.366600 0.183900 0.912000
vn 0.076200 0.038100 0.996400
vn -0.719300 0.694700 0.000000
vn 0.719300 0.694700 0.000000
vn 0.996000 0.089400 0.000000
vn 0.365500 -0.930800 0.000000
vn -0.996000 0.089400 -0.000000
vn -0.365500 -0.930800 -0.000000
vn 0.000800 -0.084700 0.996400
vn -0.000000 -0.409800 0.912200
vn -0.000800 -0.084700 -0.996400
vn -0.000000 -0.409800 -0.912200
vn 0.923900 -0.382700 0.000000
vn 0.382700 -0.923900 0.000000
vn -0.382700 -0.923900 -0.000000
vn -0.923900 -0.382700 0.000000
vn -0.000000 -0.434800 0.900500
vn 0.000000 -0.434800 -0.900500
vn -0.434800 0.000000 0.900500
vn -0.082600 0.000000 0.996600
vn 0.434800 -0.000000 0.900500
vn 0.082600 -0.000000 0.996600
vn 0.082600 -0.000000 -0.996600
vn 0.434800 -0.000000 -0.900500
vn -0.082600 0.000000 -0.996600
vn -0.434800 0.000000 -0.900500
vn 0.095500 -0.352600 -0.930900
vn 0.050200 -0.031000 -0.998300
vn 0.426200 0.038200 -0.903800
vn 0.050200 -0.031000 0.998300
vn 0.156400 -0.398300 0.903800
vn 0.358100 0.072200 0.930900
vn -0.095500 -0.352600 0.930900
vn -0.050200 -0.031000 0.998300
vn -0.426200 0.038200 0.903800
vn -0.265100 0.256000 -0.929600
vn 0.263400 0.203600 -0.943000
vn 0.000000 0.049000 -0.998800
vn -0.050200 -0.031000 -0.998300
vn -0.156400 -0.398300 -0.903800
vn -0.358100 0.072200 -0.930900
vn -0.263400 0.203600 0.943000
vn 0.000000 0.049000 0.998800
vn 0.265100 0.256000 0.929600
vn -0.303000 -0.323500 0.896400
vn -0.429300 -0.158500 0.889100
vn -0.082600 -0.041200 0.995700
vn -0.058400 -0.041400 0.997400
vn 0.303000 -0.323500 -0.896400
vn 0.429300 -0.158500 -0.889100
vn 0.082600 -0.041200 -0.995700
vn 0.058400 -0.041400 -0.997400
vn 0.082600 -0.041200 0.995700
vn 0.390200 -0.161600 0.906400
vn 0.303000 -0.323500 0.896400
vn 0.082600 -0.041300 0.995700
vn -0.082600 -0.041200 -0.995700
vn -0.390200 -0.161600 -0.906400
vn -0.303000 -0.323500 -0.896400
vn -0.082600 -0.041300 -0.995700
vn 0.063200 -0.082400 0.994600
vn 0.215400 -0.520100 0.826500
vn 0.430700 -0.136900 0.892000
vn -0.082400 -0.063200 0.994600
vn -0.520100 -0.215400 0.826500
vn -0.136900 -0.430700 0.892000
vn -0.063200 -0.082400 -0.994600
vn -0.215400 -0.520100 -0.826500
vn -0.430700 -0.136900 -0.892000
vn 0.082400 -0.063200 -0.994600
vn 0.520100 -0.215400 -0.826500
vn 0.136900 -0.430700 -0.892000
vn -0.000800 -0.084700 0.996400
vn -0.348500 0.174200 -0.921000
vn -0.078300 0.039300 -0.996200
vn 0.000800 -0.084700 -0.996400
vn -0.078300 0.039300 0.996200
vn -0.348500 0.174200 0.921000
vn 0.078300 0.039300 -0.996200
vn 0.348500 0.174200 -0.921000
vn 0.348500 0.174200 0.921000
vn 0.078300 0.039300 0.996200
vn 0.003800 -0.429500 0.903100
vn -0.003800 -0.429500 -0.903100
s off
f 3/1/1 38/2/1 10/3/1
f 31/4/2 36/5/2 22/6/2
f 43/7/3 30/8/3 72/9/3
f 9/10/3 52/11/3 1/12/3
f 71/13/4 87/14/4 44/15/4
f 64/16/5 8/17/5 37/18/5
f 62/19/6 101/20/6 53/21/6
f 54/22/7 93/23/7 70/24/7
f 45/25/5 79/26/5 61/27/5
f 80/28/3 94/29/3 102/30/3
f 1/31/8 5/32/8 7/33/8
f 6/34/9 4/35/9 2/36/9
f 3/1/10 5/37/10 6/38/10
f 11/39/11 14/40/11 8/41/11
f 9/42/12 12/43/12 11/44/12
f 10/3/13 12/45/13 13/46/13
f 15/47/14 19/48/14 21/49/14
f 20/50/15 18/51/15 16/52/15
f 17/53/16 19/54/16 20/55/16
f 22/6/17 26/56/17 28/57/17
f 23/58/18 26/59/18 25/60/18
f 28/61/19 27/62/19 24/63/19
f 32/64/20 35/65/20 29/66/20
f 30/67/21 33/68/21 32/69/21
f 31/4/22 33/70/22 34/71/22
f 36/5/23 40/72/23 42/73/23
f 41/74/24 39/75/24 37/76/24
f 38/2/25 40/77/25 41/78/25
f 47/79/26 51/80/26 43/81/26
f 44/82/27 48/83/27 47/84/27
f 50/85/28 49/86/28 45/87/28
f 46/88/29 48/89/29 50/90/29
f 56/91/30 60/92/30 52/93/30
f 53/94/31 57/95/31 56/96/31
f 59/97/32 58/98/32 54/99/32
f 55/100/33 57/101/33 59/97/33
f 65/102/34 69/103/34 61/104/34
f 62/105/35 66/106/35 65/107/35
f 68/108/36 67/109/36 63/110/36
f 64/111/37 66/112/37 68/113/37
f 74/114/38 78/115/38 70/116/38
f 71/117/39 75/118/39 74/119/39
f 77/120/40 76/121/40 72/122/40
f 73/123/41 75/124/41 77/125/41
f 79/126/42 83/127/42 85/128/42
f 80/28/43 83/129/43 82/130/43
f 81/131/44 83/132/44 84/133/44
f 86/134/45 90/135/45 92/136/45
f 87/137/46 90/138/46 89/139/46
f 88/140/47 90/141/47 91/142/47
f 93/143/48 97/144/48 99/145/48
f 94/29/49 97/146/49 96/147/49
f 95/148/50 97/149/50 98/150/50
f 100/151/51 104/152/51 106/153/51
f 101/154/52 104/155/52 103/156/52
f 102/30/53 104/157/53 105/158/53
f 16/159/54 51/160/54 46/161/54
f 18/162/55 43/81/55 51/80/55
f 31/4/56 28/57/56 35/163/56
f 35/164/57 24/63/57 29/165/57
f 2/36/58 60/166/58 55/100/58
f 4/167/59 52/93/59 60/92/59
f 37/168/60 20/169/60 16/170/60
f 39/171/61 17/53/61 20/55/61
f 24/63/62 6/34/62 2/36/62
f 27/172/63 3/1/63 6/38/63
f 10/3/64 41/78/64 14/173/64
f 14/40/65 37/174/65 8/41/65
f 36/5/66 25/175/66 22/6/66
f 42/176/67 23/58/67 25/60/67
f 10/3/68 7/177/68 3/1/68
f 13/178/69 1/12/69 7/179/69
f 46/180/5 69/181/5 64/182/5
f 50/183/5 61/27/5 69/181/5
f 31/184/70 21/185/70 17/186/70
f 34/187/71 15/188/71 21/189/71
f 55/190/7 78/191/7 73/192/7
f 59/193/7 70/194/7 78/191/7
f 8/195/72 68/196/72 11/197/72
f 11/198/73 63/199/73 9/200/73
f 29/201/74 77/202/74 32/203/74
f 32/69/75 72/122/75 30/67/75
f 53/21/76 67/204/76 62/19/76
f 56/205/77 63/206/77 67/207/77
f 72/9/78 47/208/78 43/7/78
f 76/209/79 44/15/79 47/210/79
f 79/211/54 92/212/54 82/213/54
f 92/214/80 80/28/80 82/130/80
f 100/151/58 96/215/58 93/143/58
f 106/216/81 94/29/81 96/147/81
f 102/30/77 84/217/77 80/28/77
f 105/218/76 81/219/76 84/220/76
f 95/221/79 91/222/79 87/223/79
f 98/224/78 88/140/78 91/142/78
f 44/225/82 89/226/82 49/227/82
f 89/228/83 45/229/83 49/230/83
f 62/231/84 85/232/84 81/131/84
f 65/233/85 79/126/85 85/128/85
f 54/234/86 103/235/86 100/236/86
f 58/237/87 101/154/87 103/156/87
f 93/238/88 74/239/88 70/240/88
f 74/241/89 95/242/89 71/243/89
f 24/244/7 55/190/7 73/192/7
f 3/1/1 23/58/1 38/2/1
f 31/4/2 17/53/2 36/5/2
f 43/7/3 15/188/3 30/8/3
f 9/10/3 63/206/3 52/11/3
f 71/13/4 95/245/4 87/14/4
f 37/18/5 16/246/5 46/247/5
f 46/247/5 64/16/5 37/18/5
f 62/19/6 81/219/6 101/20/6
f 54/22/7 100/248/7 93/23/7
f 45/25/5 86/249/5 79/26/5
f 80/28/3 88/140/3 94/29/3
f 1/31/90 4/167/90 5/32/90
f 6/34/91 5/250/91 4/35/91
f 3/1/92 7/177/92 5/37/92
f 11/39/93 12/251/93 14/40/93
f 9/42/94 13/252/94 12/43/94
f 10/3/95 14/173/95 12/45/95
f 15/47/96 18/253/96 19/48/96
f 20/50/97 19/254/97 18/51/97
f 17/53/98 21/255/98 19/54/98
f 22/6/99 25/175/99 26/56/99
f 23/58/100 27/172/100 26/59/100
f 28/61/101 26/256/101 27/62/101
f 32/64/102 33/257/102 35/65/102
f 30/67/103 34/258/103 33/68/103
f 31/4/104 35/163/104 33/70/104
f 36/5/105 39/171/105 40/72/105
f 41/74/106 40/259/106 39/75/106
f 38/2/107 42/176/107 40/77/107
f 47/79/108 48/260/108 51/80/108
f 44/82/109 49/261/109 48/83/109
f 50/85/110 48/262/110 49/86/110
f 46/88/111 51/263/111 48/89/111
f 56/91/112 57/264/112 60/92/112
f 53/94/113 58/237/113 57/95/113
f 59/97/114 57/101/114 58/98/114
f 55/100/115 60/166/115 57/101/115
f 65/102/116 66/265/116 69/103/116
f 62/105/117 67/266/117 66/106/117
f 68/108/118 66/267/118 67/109/118
f 64/111/119 69/268/119 66/112/119
f 74/114/120 75/269/120 78/115/120
f 71/117/121 76/270/121 75/118/121
f 77/120/122 75/271/122 76/121/122
f 73/123/123 78/272/123 75/124/123
f 79/126/124 82/273/124 83/127/124
f 80/28/125 84/217/125 83/129/125
f 81/131/126 85/232/126 83/132/126
f 86/134/127 89/274/127 90/135/127
f 87/137/128 91/275/128 90/138/128
f 88/140/129 92/214/129 90/141/129
f 93/143/130 96/215/130 97/144/130
f 94/29/131 98/224/131 97/146/131
f 95/148/132 99/276/132 97/149/132
f 100/151/133 103/277/133 104/152/133
f 101/154/134 105/278/134 104/155/134
f 102/30/135 106/216/135 104/157/135
f 16/159/136 18/279/136 51/160/136
f 18/162/73 15/280/73 43/81/73
f 31/4/137 22/6/137 28/57/137
f 35/164/138 28/61/138 24/63/138
f 2/36/139 4/35/139 60/166/139
f 4/167/75 1/31/75 52/93/75
f 37/168/140 39/281/140 20/169/140
f 39/171/141 36/5/141 17/53/141
f 24/63/142 27/62/142 6/34/142
f 27/172/143 23/58/143 3/1/143
f 10/3/144 38/2/144 41/78/144
f 14/40/145 41/282/145 37/174/145
f 36/5/66 42/73/66 25/175/66
f 42/176/67 38/2/67 23/58/67
f 10/3/68 13/46/68 7/177/68
f 13/178/69 9/10/69 1/12/69
f 46/180/5 50/183/5 69/181/5
f 50/183/5 45/25/5 61/27/5
f 31/184/70 34/283/70 21/185/70
f 34/187/71 30/8/71 15/188/71
f 55/190/7 59/193/7 78/191/7
f 59/193/7 54/284/7 70/194/7
f 8/195/54 64/285/54 68/196/54
f 11/198/146 68/286/146 63/199/146
f 29/201/58 73/287/58 77/202/58
f 32/69/147 77/120/147 72/122/147
f 53/21/76 56/288/76 67/204/76
f 56/205/77 52/11/77 63/206/77
f 72/9/78 76/289/78 47/208/78
f 76/209/79 71/13/79 44/15/79
f 79/211/54 86/290/54 92/212/54
f 92/214/80 88/140/80 80/28/80
f 100/151/58 106/153/58 96/215/58
f 106/216/81 102/30/81 94/29/81
f 102/30/77 105/158/77 84/217/77
f 105/218/76 101/20/76 81/219/76
f 95/221/79 98/291/79 91/222/79
f 98/224/78 94/29/78 88/140/78
f 44/225/82 87/292/82 89/226/82
f 89/228/83 86/293/83 45/229/83
f 62/231/84 65/294/84 85/232/84
f 65/233/85 61/295/85 79/126/85
f 54/234/86 58/296/86 103/235/86
f 58/237/87 53/94/87 101/154/87
f 93/238/88 99/297/88 74/239/88
f 74/241/89 99/298/89 95/242/89
f 24/244/7 2/299/7 55/190/7
f 73/192/7 29/300/7 24/244/7
