# Blender v2.77 (sub 0) OBJ File: 'VanArrow.blend'
# www.blender.org
v 0.879750 0.117371 0.163189
v 0.805431 0.141421 0.283440
v 0.946223 0.117371 0.270744
v 0.853728 0.134377 0.201039
v 0.922107 0.131257 0.211330
v 0.900732 0.134377 0.277092
v 0.953283 0.117371 0.192062
v 0.805431 -0.141421 0.283440
v 0.879750 -0.117371 0.163189
v 0.946223 -0.117371 0.270744
v 0.853728 -0.134377 0.201039
v 0.922107 -0.131257 0.211330
v 0.953283 -0.117371 0.192062
v 0.900732 -0.134377 0.277092
v -0.879750 -0.117371 0.163189
v -0.805431 -0.141421 0.283440
v -0.946223 -0.117371 0.270744
v -0.853728 -0.134377 0.201039
v -0.922107 -0.131257 0.211330
v -0.900732 -0.134377 0.277092
v -0.953283 -0.117371 0.192062
v -0.053777 0.117372 2.055634
v 0.053777 0.117372 2.055634
v 0.000000 0.141422 1.894302
v 0.000000 0.117372 2.111323
v 0.000000 0.131257 2.060909
v 0.038026 0.134378 1.997244
v -0.038026 0.134378 1.997244
v -0.805431 0.141421 0.283440
v -0.879750 0.117371 0.163189
v -0.946222 0.117371 0.270744
v -0.853728 0.134377 0.201039
v -0.922106 0.131257 0.211330
v -0.953283 0.117371 0.192062
v -0.900731 0.134377 0.277092
v -0.053777 -0.117372 2.055634
v 0.000000 -0.141422 1.894302
v 0.053777 -0.117372 2.055634
v -0.038026 -0.134378 1.997244
v -0.000000 -0.131257 2.060909
v 0.038026 -0.134378 1.997244
v -0.000000 -0.117372 2.111323
v -0.620250 -0.117371 0.163189
v -0.500000 -0.117371 0.042939
v -0.379750 -0.141421 0.042939
v -0.500000 -0.141421 0.283440
v -0.535220 -0.117371 0.127969
v -0.500000 -0.135715 0.145809
v -0.464780 -0.134377 0.042939
v -0.439875 -0.141421 0.163189
v -0.560125 -0.134377 0.198410
v 0.620250 0.117371 0.163189
v 0.500000 0.117371 0.042939
v 0.379750 0.141421 0.042939
v 0.500000 0.141421 0.283440
v 0.535220 0.117371 0.127969
v 0.500000 0.135715 0.145809
v 0.464780 0.134377 0.042939
v 0.439875 0.141421 0.163189
v 0.560125 0.134377 0.198410
v 0.379750 -0.141421 0.042939
v 0.500000 -0.117371 0.042939
v 0.620250 -0.117371 0.163189
v 0.500000 -0.141421 0.283440
v 0.464779 -0.134377 0.042939
v 0.500000 -0.135715 0.145809
v 0.535220 -0.117371 0.127969
v 0.560125 -0.134377 0.198410
v 0.439875 -0.141421 0.163189
v -0.379750 0.141421 0.042939
v -0.500000 0.117371 0.042939
v -0.620250 0.117371 0.163189
v -0.500000 0.141421 0.283440
v -0.464779 0.134377 0.042939
v -0.500000 0.135715 0.145809
v -0.535220 0.117371 0.127969
v -0.560125 0.134377 0.198410
v -0.439875 0.141421 0.163189
v 0.379750 -0.141421 -1.991073
v 0.379750 -0.117371 -2.111323
v 0.500000 -0.117371 -1.991073
v 0.379750 -0.134377 -2.076103
v 0.449176 -0.131257 -2.060499
v 0.464780 -0.117371 -2.076103
v 0.464780 -0.134377 -1.991073
v -0.379750 -0.141421 -1.991073
v -0.500000 -0.117371 -1.991073
v -0.379750 -0.117371 -2.111323
v -0.464780 -0.134377 -1.991073
v -0.449176 -0.131257 -2.060499
v -0.464780 -0.117371 -2.076102
v -0.379750 -0.134377 -2.076102
v -0.379750 0.141421 -1.991073
v -0.379750 0.117371 -2.111323
v -0.500000 0.117371 -1.991073
v -0.379750 0.134377 -2.076103
v -0.449176 0.131257 -2.060499
v -0.464779 0.117371 -2.076103
v -0.464779 0.134377 -1.991073
v 0.379750 0.141421 -1.991073
v 0.500000 0.117371 -1.991073
v 0.379750 0.117371 -2.111323
v 0.464780 0.134377 -1.991073
v 0.449176 0.131257 -2.060499
v 0.464780 0.117371 -2.076102
v 0.379750 0.134377 -2.076102
vt 0.232216 0.692251
vt 0.015686 0.990619
vt 0.015687 0.692251
vt 0.263590 0.692031
vt 0.480120 0.970255
vt 0.263590 0.970255
vt 0.781804 0.668649
vt 0.747643 0.529784
vt 0.781804 0.529784
vt 0.718316 0.620560
vt 0.766189 0.815166
vt 0.718316 0.815166
vt 0.571381 0.870832
vt 0.725890 0.631590
vt 0.725890 0.870832
vt 0.385799 0.143087
vt 0.566366 0.177064
vt 0.415632 0.419573
vt 0.471301 0.956552
vt 0.687830 0.619352
vt 0.687830 0.956552
vt 0.515104 0.092168
vt 0.454294 0.445637
vt 0.377964 0.117974
vt 0.104018 0.342204
vt 0.317489 0.040347
vt 0.241159 0.368010
vt 0.681695 0.749228
vt 0.821809 0.943835
vt 0.681695 0.943835
vt 0.678943 0.785637
vt 0.671129 0.797148
vt 0.665378 0.785637
vt 0.681756 0.847036
vt 0.676123 0.860884
vt 0.664149 0.848559
vt 0.245024 0.682468
vt 0.247903 0.693429
vt 0.345580 0.620519
vt 0.351213 0.634367
vt 0.333606 0.632844
vt 0.656796 0.664854
vt 0.648982 0.653343
vt 0.661597 0.650755
vt 0.002879 0.682468
vt 0.015687 0.679188
vt 0.961933 0.764579
vt 0.954119 0.776090
vt 0.948368 0.764579
vt 0.033311 0.691276
vt 0.044652 0.680621
vt 0.050119 0.696228
vt 0.480119 0.692031
vt 0.492927 0.681805
vt 0.495806 0.692262
vt 0.250782 0.970162
vt 0.247903 0.960349
vt 0.232217 0.990619
vt 0.245025 0.991642
vt 0.232217 1.000000
vt 0.447695 0.601830
vt 0.461428 0.599245
vt 0.458264 0.616429
vt 0.234930 0.783556
vt 0.223589 0.772901
vt 0.240398 0.767949
vt 0.819208 0.695472
vt 0.811394 0.683961
vt 0.824008 0.681374
vt 0.250782 0.681805
vt 0.263590 0.679188
vt 0.492928 0.970162
vt 0.480120 0.978472
vt 0.106277 0.670530
vt 0.092544 0.667946
vt 0.103113 0.653347
vt 0.002879 0.991642
vt 0.000000 0.980983
vt 0.973816 0.764579
vt 0.969222 0.778677
vt 0.958130 0.764579
vt 0.899457 0.718174
vt 0.916377 0.735130
vt 0.899457 0.732820
vt 0.100953 0.755719
vt 0.101130 0.734809
vt 0.116322 0.738390
vt 0.053594 0.706606
vt 0.058889 0.683874
vt 0.068963 0.689278
vt 0.742503 0.785637
vt 0.737908 0.799735
vt 0.726816 0.785637
vt 0.648457 0.927023
vt 0.665377 0.944076
vt 0.648457 0.941021
vt 0.602654 0.880351
vt 0.611825 0.899568
vt 0.596310 0.901765
vt 0.608998 0.858937
vt 0.614293 0.881669
vt 0.300968 0.690109
vt 0.291797 0.709326
vt 0.285453 0.687912
vt 0.727222 0.671101
vt 0.710302 0.688155
vt 0.711536 0.671198
vt 0.922467 0.581854
vt 0.927061 0.595952
vt 0.911375 0.595952
vt 0.187406 0.991583
vt 0.192701 0.968852
vt 0.201614 0.979237
vt 0.311095 0.795809
vt 0.310918 0.774900
vt 0.326287 0.792228
vt 0.682928 0.718174
vt 0.666008 0.735130
vt 0.667242 0.717543
vt 0.878173 0.681374
vt 0.882767 0.695472
vt 0.867081 0.695472
vt 0.293088 0.801865
vt 0.298383 0.824597
vt 0.285583 0.818298
vt 0.322411 0.635857
vt 0.337785 0.626033
vt 0.337926 0.638054
vt 0.668887 0.737717
vt 0.681695 0.735130
vt 0.687850 0.609508
vt 0.675042 0.598139
vt 0.687850 0.595510
vt 0.155741 0.600208
vt 0.146043 0.585666
vt 0.159093 0.585818
vt 0.874849 0.968566
vt 0.887657 0.956212
vt 0.890536 0.967935
vt 0.821809 0.749228
vt 0.834617 0.737717
vt 0.837495 0.749228
vt 0.513353 0.664646
vt 0.503655 0.679188
vt 0.498160 0.668227
vt 0.834617 0.955346
vt 0.821809 0.957933
vt 0.675546 0.710184
vt 0.662738 0.697830
vt 0.675546 0.695537
vt 0.650493 0.638840
vt 0.665867 0.648664
vt 0.653845 0.653230
vt 0.648457 0.589822
vt 0.661265 0.578453
vt 0.664144 0.589920
vt 0.668887 0.955346
vt 0.666008 0.943835
vt 0.325727 0.789738
vt 0.373373 0.783684
vt 0.380878 0.800116
vt 0.915057 0.778677
vt 0.247904 0.692262
vt 0.356472 0.908244
vt 0.373280 0.903292
vt 0.623207 0.871284
vt 0.683744 0.799735
vt 0.363956 0.911729
vt 0.262163 0.619913
vt 0.278972 0.624866
vt 0.495806 0.960349
vt 0.247903 0.980983
vt 0.000000 0.693429
vt 0.127720 0.864974
vt 0.263590 0.978472
vt 0.015686 1.000000
vt 0.232216 0.679188
vt 0.704750 0.620560
vt 0.704750 0.815166
vt 0.073280 0.376861
vt 0.247503 0.389424
vt 0.253847 0.410838
vt 0.088649 0.359533
vt 0.272154 0.852177
vt 0.426663 0.843013
vt 0.426663 0.852177
vt 0.737963 0.529784
vt 0.747643 0.668649
vt 0.737963 0.668649
vt 0.586851 0.268349
vt 0.421653 0.319655
vt 0.406284 0.302326
vt 0.580507 0.289763
vt 0.437022 0.336983
vt 0.345910 0.682059
vt 0.304967 0.659335
vt 0.357884 0.669734
vt 0.644371 0.658138
vt 0.687444 0.672236
vt 0.639570 0.672236
vt 0.301917 0.701508
vt 0.349564 0.707562
vt 0.296450 0.717115
vt 0.471301 0.970551
vt 0.781875 0.815166
vt 0.766189 0.620560
vt 0.781875 0.620560
vt 0.792998 0.529784
vt 0.792998 0.668649
vt 0.571381 0.881283
vt 0.725890 0.881283
vt 0.423303 0.648160
vt 0.289514 0.607965
vt 0.426655 0.633771
vt 0.516705 0.679036
vt 0.681695 0.957933
vt 0.666008 0.749228
vt 0.687830 0.605353
vt 0.471301 0.619352
vt 0.471301 0.605353
vt 0.557428 0.744635
vt 0.773957 0.729988
vt 0.773957 0.744635
vt 0.837495 0.943835
vt 0.837938 0.905193
vt 0.853624 0.569289
vt 0.853624 0.904562
vt 0.280813 0.569558
vt 0.219675 0.900802
vt 0.204483 0.897221
vt 0.672163 0.946806
vt 0.672163 0.609606
vt 0.261595 0.965717
vt 0.529869 0.594168
vt 0.621714 0.919633
vt 0.606199 0.921830
vt 0.574872 0.930411
vt 0.483350 0.606329
vt 0.498542 0.602748
vt 0.684467 0.566828
vt 0.700154 0.902732
vt 0.684467 0.902101
vt 0.436117 0.025841
vt 0.571381 0.631590
vt 0.330649 0.132709
vt 0.621517 0.187442
vt 0.591435 0.419831
vt 0.180349 0.014541
vt 0.688155 0.857209
vt 0.357612 0.624193
vt 0.643231 0.664854
vt 0.966734 0.778677
vt 0.031990 0.679649
vt 0.480119 0.679188
vt 0.452244 0.590588
vt 0.222269 0.784528
vt 0.805642 0.695472
vt 0.097093 0.679188
vt 0.980314 0.779786
vt 0.915144 0.717543
vt 0.090879 0.750316
vt 0.046089 0.690174
vt 0.749000 0.800844
vt 0.664144 0.927120
vt 0.303436 0.708009
vt 0.727222 0.685100
vt 0.933559 0.580745
vt 0.181062 0.970169
vt 0.300844 0.780303
vt 0.682928 0.732820
vt 0.889265 0.680265
vt 0.308457 0.819194
vt 0.325763 0.621467
vt 0.140548 0.596627
vt 0.874849 0.953920
vt 0.821809 0.735130
vt 0.659859 0.709553
vt 0.666008 0.636643
vt 0.648457 0.575823
vt 0.320260 0.774131
vt 0.910257 0.764579
vt 0.353387 0.926328
vt 0.130885 0.882157
vt 0.272154 0.843013
vt 0.574163 0.311177
vt 0.290759 0.671682
vt 0.698536 0.658138
vt 0.357068 0.691130
vt 0.687830 0.970551
vt 0.286162 0.622355
vt 0.557428 0.729988
vt 0.837938 0.569919
vt 0.296005 0.573139
vt 0.687850 0.946709
vt 0.246081 0.963520
vt 0.545384 0.591970
vt 0.559680 0.933992
vt 0.700154 0.567459
vt 0.642002 0.257971
vt 0.351133 0.312704
vn 0.894400 0.000000 0.447200
vn -0.894400 0.000000 0.447200
vn 0.000000 0.000000 -1.000000
vn -1.000000 0.000000 0.000000
vn 0.000000 -1.000000 -0.000000
vn 1.000000 -0.000000 0.000000
vn 0.000000 1.000000 0.000000
vn 0.156400 0.903800 -0.398300
vn 0.070700 0.996500 -0.043700
vn 0.358100 0.930900 0.072200
vn 0.070700 -0.996500 -0.043700
vn 0.095500 -0.930900 -0.352600
vn 0.426200 -0.903800 0.038200
vn -0.156400 -0.903800 -0.398300
vn -0.070700 -0.996500 -0.043700
vn -0.358100 -0.930900 0.072200
vn -0.263400 0.943000 0.203600
vn 0.265100 0.929600 0.256000
vn 0.000000 0.997700 0.068300
vn -0.070700 0.996500 -0.043700
vn -0.095500 0.930900 -0.352600
vn -0.426200 0.903800 0.038200
vn -0.265100 -0.929600 0.256000
vn 0.000000 -0.997700 0.068300
vn 0.263400 -0.943000 0.203600
vn -0.112000 -0.956200 -0.270500
vn -0.390200 -0.906400 -0.161600
vn -0.082500 -0.995700 -0.041200
vn -0.082600 -0.995700 -0.041300
vn 0.112000 0.956200 -0.270500
vn 0.390200 0.906400 -0.161600
vn 0.082500 0.995700 -0.041200
vn 0.082600 0.995700 -0.041300
vn 0.082500 -0.995700 -0.041200
vn 0.429300 -0.889100 -0.158500
vn 0.112000 -0.956200 -0.270500
vn 0.058400 -0.997400 -0.041400
vn -0.082500 0.995700 -0.041200
vn -0.429300 0.889100 -0.158500
vn -0.112000 0.956200 -0.270500
vn -0.058400 0.997400 -0.041400
vn 0.082400 -0.994600 -0.063200
vn 0.136900 -0.892000 -0.430700
vn 0.520100 -0.826500 -0.215400
vn -0.063200 -0.994600 -0.082400
vn -0.430700 -0.892000 -0.136900
vn -0.215400 -0.826500 -0.520100
vn -0.082400 0.994600 -0.063200
vn -0.136900 0.892000 -0.430700
vn -0.520100 0.826500 -0.215400
vn 0.063200 0.994600 -0.082400
vn 0.430700 0.892000 -0.136900
vn 0.215400 0.826500 -0.520100
vn 0.000000 -0.996600 -0.082600
vn -0.003800 -0.903100 -0.429500
vn -0.366600 0.912000 0.183900
vn -0.076200 0.996400 0.038100
vn 0.000000 0.996600 -0.082600
vn 0.003800 0.903100 -0.429500
vn -0.076200 -0.996400 0.038100
vn -0.366600 -0.912000 0.183900
vn 0.076200 0.996400 0.038100
vn 0.366600 0.912000 0.183900
vn 0.366600 -0.912000 0.183900
vn 0.076200 -0.996400 0.038100
vn -0.719300 0.000000 0.694700
vn 0.719300 -0.000000 0.694700
vn 0.996000 0.000000 0.089400
vn 0.365500 0.000000 -0.930800
vn -0.996000 0.000000 0.089400
vn -0.365500 0.000000 -0.930800
vn 0.000800 -0.996400 -0.084700
vn -0.000000 -0.912200 -0.409800
vn -0.000800 0.996400 -0.084700
vn 0.000000 0.912200 -0.409800
vn 0.923900 -0.000000 -0.382700
vn 0.382700 0.000000 -0.923900
vn -0.382700 -0.000000 -0.923900
vn -0.923900 0.000000 -0.382700
vn 0.000000 -0.900500 -0.434800
vn 0.000000 0.900500 -0.434800
vn -0.434800 -0.900500 -0.000000
vn -0.082600 -0.996600 -0.000000
vn 0.434800 -0.900500 -0.000000
vn 0.082600 -0.996600 -0.000000
vn 0.082600 0.996600 0.000000
vn 0.434800 0.900500 0.000000
vn -0.082600 0.996600 0.000000
vn -0.434800 0.900500 0.000000
vn 0.095500 0.930900 -0.352600
vn 0.050200 0.998300 -0.031000
vn 0.426200 0.903800 0.038200
vn 0.050200 -0.998300 -0.031000
vn 0.156400 -0.903800 -0.398300
vn 0.358100 -0.930900 0.072200
vn -0.095500 -0.930900 -0.352600
vn -0.050200 -0.998300 -0.031000
vn -0.426200 -0.903800 0.038200
vn -0.265100 0.929600 0.256000
vn 0.263400 0.943000 0.203600
vn 0.000000 0.998800 0.049000
vn -0.050200 0.998300 -0.031000
vn -0.156400 0.903800 -0.398300
vn -0.358100 0.930900 0.072200
vn -0.263400 -0.943000 0.203600
vn 0.000000 -0.998800 0.049000
vn 0.265100 -0.929600 0.256000
vn -0.303000 -0.896400 -0.323500
vn -0.429300 -0.889100 -0.158500
vn -0.082600 -0.995700 -0.041200
vn -0.058400 -0.997400 -0.041400
vn 0.303000 0.896400 -0.323500
vn 0.429300 0.889100 -0.158500
vn 0.082600 0.995700 -0.041200
vn 0.058400 0.997400 -0.041400
vn 0.082600 -0.995700 -0.041200
vn 0.390200 -0.906400 -0.161600
vn 0.303000 -0.896400 -0.323500
vn 0.082600 -0.995700 -0.041300
vn -0.082600 0.995700 -0.041200
vn -0.390200 0.906400 -0.161600
vn -0.303000 0.896400 -0.323500
vn -0.082600 0.995700 -0.041300
vn 0.063200 -0.994600 -0.082400
vn 0.215400 -0.826500 -0.520100
vn 0.430700 -0.892000 -0.136900
vn -0.082400 -0.994600 -0.063200
vn -0.520100 -0.826500 -0.215400
vn -0.136900 -0.892000 -0.430700
vn -0.063200 0.994600 -0.082400
vn -0.215400 0.826500 -0.520100
vn -0.430700 0.892000 -0.136900
vn 0.082400 0.994600 -0.063200
vn 0.520100 0.826500 -0.215400
vn 0.136900 0.892000 -0.430700
vn -0.000800 -0.996400 -0.084700
vn -0.348500 0.921000 0.174200
vn -0.078300 0.996200 0.039300
vn 0.000800 0.996400 -0.084700
vn -0.078300 -0.996200 0.039300
vn -0.348500 -0.921000 0.174200
vn 0.078300 0.996200 0.039300
vn 0.348500 0.921000 0.174200
vn 0.348500 -0.921000 0.174200
vn 0.078300 -0.996200 0.039300
vn 0.003800 -0.903100 -0.429500
vn -0.003800 0.903100 -0.429500
s off
f 3/1/1 38/2/1 10/3/1
f 31/4/2 36/5/2 22/6/2
f 43/7/3 30/8/3 72/9/3
f 9/10/3 52/11/3 1/12/3
f 71/13/4 87/14/4 44/15/4
f 46/16/5 64/17/5 37/18/5
f 62/19/6 101/20/6 53/21/6
f 54/22/7 93/23/7 70/24/7
f 45/25/5 79/26/5 61/27/5
f 80/28/3 94/29/3 102/30/3
f 1/31/8 5/32/8 7/33/8
f 6/34/9 4/35/9 2/36/9
f 3/1/10 5/37/10 6/38/10
f 11/39/11 14/40/11 8/41/11
f 9/42/12 12/43/12 11/44/12
f 10/3/13 12/45/13 13/46/13
f 15/47/14 19/48/14 21/49/14
f 20/50/15 18/51/15 16/52/15
f 17/53/16 19/54/16 20/55/16
f 22/6/17 26/56/17 28/57/17
f 23/58/18 26/59/18 25/60/18
f 28/61/19 27/62/19 24/63/19
f 32/64/20 35/65/20 29/66/20
f 30/67/21 33/68/21 32/69/21
f 31/4/22 33/70/22 34/71/22
f 36/5/23 40/72/23 42/73/23
f 41/74/24 39/75/24 37/76/24
f 38/2/25 40/77/25 41/78/25
f 47/79/26 51/80/26 43/81/26
f 44/82/27 48/83/27 47/84/27
f 50/85/28 49/86/28 45/87/28
f 46/88/29 48/89/29 50/90/29
f 56/91/30 60/92/30 52/93/30
f 53/94/31 57/95/31 56/96/31
f 59/97/32 58/98/32 54/99/32
f 55/100/33 57/101/33 59/97/33
f 65/102/34 69/103/34 61/104/34
f 62/105/35 66/106/35 65/107/35
f 68/108/36 67/109/36 63/110/36
f 64/111/37 66/112/37 68/113/37
f 74/114/38 78/115/38 70/116/38
f 71/117/39 75/118/39 74/119/39
f 77/120/40 76/121/40 72/122/40
f 73/123/41 75/124/41 77/125/41
f 79/126/42 83/127/42 85/128/42
f 80/28/43 83/129/43 82/130/43
f 81/131/44 83/132/44 84/133/44
f 86/134/45 90/135/45 92/136/45
f 87/137/46 90/138/46 89/139/46
f 88/140/47 90/141/47 91/142/47
f 93/143/48 97/144/48 99/145/48
f 94/29/49 97/146/49 96/147/49
f 95/148/50 97/149/50 98/150/50
f 100/151/51 104/152/51 106/153/51
f 101/154/52 104/155/52 103/156/52
f 102/30/53 104/157/53 105/158/53
f 16/159/54 51/160/54 46/161/54
f 18/162/55 43/81/55 51/80/55
f 31/4/56 28/57/56 35/163/56
f 35/164/57 24/63/57 29/165/57
f 2/36/58 60/166/58 55/100/58
f 4/167/59 52/93/59 60/92/59
f 37/168/60 20/169/60 16/170/60
f 39/171/61 17/53/61 20/55/61
f 24/63/62 6/34/62 2/36/62
f 27/172/63 3/1/63 6/38/63
f 10/3/64 41/78/64 14/173/64
f 14/40/65 37/174/65 8/41/65
f 36/5/66 25/175/66 22/6/66
f 42/176/67 23/58/67 25/60/67
f 10/3/68 7/177/68 3/1/68
f 13/178/69 1/12/69 7/179/69
f 46/180/5 69/181/5 64/182/5
f 50/183/5 61/27/5 69/181/5
f 31/184/70 21/185/70 17/186/70
f 34/187/71 15/188/71 21/189/71
f 55/190/7 78/191/7 73/192/7
f 59/193/7 70/194/7 78/191/7
f 8/195/72 68/196/72 11/197/72
f 11/198/73 63/199/73 9/200/73
f 29/201/74 77/202/74 32/203/74
f 32/69/75 72/122/75 30/67/75
f 53/21/76 67/204/76 62/19/76
f 56/205/77 63/206/77 67/207/77
f 43/7/78 76/208/78 47/209/78
f 76/210/79 44/15/79 47/211/79
f 79/212/54 92/213/54 82/214/54
f 82/130/80 88/140/80 80/28/80
f 100/151/58 96/215/58 93/143/58
f 106/216/81 94/29/81 96/147/81
f 102/30/77 84/217/77 80/28/77
f 105/218/76 81/219/76 84/220/76
f 95/221/79 91/222/79 87/223/79
f 98/224/78 88/140/78 91/142/78
f 44/225/82 89/226/82 49/227/82
f 89/228/83 45/229/83 49/230/83
f 81/131/84 65/231/84 85/232/84
f 65/233/85 79/126/85 85/128/85
f 54/234/86 103/235/86 100/236/86
f 103/156/87 53/94/87 101/154/87
f 93/237/88 74/238/88 70/239/88
f 99/240/89 71/241/89 74/242/89
f 24/243/7 55/190/7 73/192/7
f 3/1/1 23/58/1 38/2/1
f 31/4/2 17/53/2 36/5/2
f 43/7/3 15/188/3 30/8/3
f 9/10/3 63/206/3 52/11/3
f 71/13/4 95/244/4 87/14/4
f 37/18/5 16/245/5 46/16/5
f 64/17/5 8/246/5 37/18/5
f 62/19/6 81/219/6 101/20/6
f 54/22/7 100/247/7 93/23/7
f 45/25/5 86/248/5 79/26/5
f 80/28/3 88/140/3 94/29/3
f 1/31/90 4/167/90 5/32/90
f 6/34/91 5/249/91 4/35/91
f 3/1/92 7/177/92 5/37/92
f 11/39/93 12/250/93 14/40/93
f 9/42/94 13/251/94 12/43/94
f 10/3/95 14/173/95 12/45/95
f 15/47/96 18/252/96 19/48/96
f 20/50/97 19/253/97 18/51/97
f 17/53/98 21/254/98 19/54/98
f 22/6/99 25/175/99 26/56/99
f 23/58/100 27/172/100 26/59/100
f 28/61/101 26/255/101 27/62/101
f 32/64/102 33/256/102 35/65/102
f 30/67/103 34/257/103 33/68/103
f 31/4/104 35/163/104 33/70/104
f 36/5/105 39/171/105 40/72/105
f 41/74/106 40/258/106 39/75/106
f 38/2/107 42/176/107 40/77/107
f 47/79/108 48/259/108 51/80/108
f 44/82/109 49/260/109 48/83/109
f 50/85/110 48/261/110 49/86/110
f 46/88/111 51/262/111 48/89/111
f 56/91/112 57/263/112 60/92/112
f 53/94/113 58/264/113 57/95/113
f 59/97/114 57/101/114 58/98/114
f 55/100/115 60/166/115 57/101/115
f 65/102/116 66/265/116 69/103/116
f 62/105/117 67/266/117 66/106/117
f 68/108/118 66/267/118 67/109/118
f 64/111/119 69/268/119 66/112/119
f 74/114/120 75/269/120 78/115/120
f 71/117/121 76/270/121 75/118/121
f 77/120/122 75/271/122 76/121/122
f 73/123/123 78/272/123 75/124/123
f 79/126/124 82/273/124 83/127/124
f 80/28/125 84/217/125 83/129/125
f 81/131/126 85/232/126 83/132/126
f 86/134/127 89/274/127 90/135/127
f 87/137/128 91/275/128 90/138/128
f 88/140/129 92/276/129 90/141/129
f 93/143/130 96/215/130 97/144/130
f 94/29/131 98/224/131 97/146/131
f 95/148/132 99/277/132 97/149/132
f 100/151/133 103/278/133 104/152/133
f 101/154/134 105/279/134 104/155/134
f 102/30/135 106/216/135 104/157/135
f 16/159/136 18/280/136 51/160/136
f 18/162/73 15/281/73 43/81/73
f 31/4/137 22/6/137 28/57/137
f 35/164/138 28/61/138 24/63/138
f 2/36/139 4/35/139 60/166/139
f 4/167/75 1/31/75 52/93/75
f 37/168/140 39/282/140 20/169/140
f 39/171/141 36/5/141 17/53/141
f 24/63/142 27/62/142 6/34/142
f 27/172/143 23/58/143 3/1/143
f 10/3/144 38/2/144 41/78/144
f 14/40/145 41/283/145 37/174/145
f 36/5/66 42/73/66 25/175/66
f 42/176/67 38/2/67 23/58/67
f 10/3/68 13/46/68 7/177/68
f 13/178/69 9/10/69 1/12/69
f 46/180/5 50/183/5 69/181/5
f 50/183/5 45/25/5 61/27/5
f 31/184/70 34/284/70 21/185/70
f 34/187/71 30/8/71 15/188/71
f 55/190/7 59/193/7 78/191/7
f 59/193/7 54/285/7 70/194/7
f 8/195/54 64/286/54 68/196/54
f 11/198/146 68/287/146 63/199/146
f 29/201/58 73/288/58 77/202/58
f 32/69/147 77/120/147 72/122/147
f 53/21/76 56/289/76 67/204/76
f 56/205/77 52/11/77 63/206/77
f 43/7/78 72/9/78 76/208/78
f 76/210/79 71/13/79 44/15/79
f 79/212/54 86/290/54 92/213/54
f 82/130/80 92/276/80 88/140/80
f 100/151/58 106/153/58 96/215/58
f 106/216/81 102/30/81 94/29/81
f 102/30/77 105/158/77 84/217/77
f 105/218/76 101/20/76 81/219/76
f 95/221/79 98/291/79 91/222/79
f 98/224/78 94/29/78 88/140/78
f 44/225/82 87/292/82 89/226/82
f 89/228/83 86/293/83 45/229/83
f 81/131/84 62/294/84 65/231/84
f 65/233/85 61/295/85 79/126/85
f 54/234/86 58/296/86 103/235/86
f 103/156/87 58/264/87 53/94/87
f 93/237/88 99/297/88 74/238/88
f 99/240/89 95/298/89 71/241/89
f 24/243/7 2/299/7 55/190/7
f 73/192/7 29/300/7 24/243/7
