# Blender v2.77 (sub 0) OBJ File: 'Truck.blend'
# www.blender.org
v -0.000000 0.500000 -0.200000
v -0.000000 0.500000 0.200000
v 0.326352 0.379385 -0.200000
v 0.326352 0.379385 0.200000
v 0.500000 0.073978 -0.200000
v 0.500000 0.073978 0.200000
v 0.439693 -0.273318 -0.200000
v 0.439693 -0.273318 0.200000
v 0.173648 -0.500000 -0.200000
v 0.173648 -0.500000 0.200000
v -0.173648 -0.500000 -0.200000
v -0.173648 -0.500000 0.200000
v -0.439693 -0.273318 -0.200000
v -0.439693 -0.273318 0.200000
v -0.500000 0.073978 -0.200000
v -0.500000 0.073978 0.200000
v -0.326352 0.379385 -0.200000
v -0.326352 0.379385 0.200000
v 0.248906 0.285665 0.200000
v -0.000000 0.377656 0.200000
v 0.381346 0.052733 0.200000
v 0.335350 -0.212147 0.200000
v 0.132440 -0.385035 0.200000
v -0.132440 -0.385035 0.200000
v -0.335350 -0.212147 0.200000
v -0.381346 0.052733 0.200000
v -0.248906 0.285665 0.200000
v 0.248906 0.285665 0.174275
v -0.000000 0.377656 0.174275
v 0.381346 0.052733 0.174275
v 0.335350 -0.212147 0.174275
v 0.132440 -0.385035 0.174275
v -0.132440 -0.385035 0.174275
v -0.335350 -0.212147 0.174275
v -0.381346 0.052733 0.174275
v -0.248906 0.285665 0.174275
v -0.000000 0.371097 -0.200000
v 0.244753 0.280640 -0.200000
v 0.374984 0.051594 -0.200000
v 0.329755 -0.208867 -0.200000
v 0.130230 -0.378871 -0.200000
v -0.130231 -0.378871 -0.200000
v -0.329756 -0.208867 -0.200000
v -0.374984 0.051594 -0.200000
v -0.244754 0.280640 -0.200000
v -0.000000 0.371097 -0.174615
v 0.244753 0.280640 -0.174615
v 0.374984 0.051594 -0.174615
v 0.329755 -0.208867 -0.174615
v 0.130230 -0.378871 -0.174615
v -0.130231 -0.378871 -0.174615
v -0.329756 -0.208867 -0.174615
v -0.374984 0.051594 -0.174615
v -0.244754 0.280640 -0.174615
vt 0.498001 0.037155
vt 0.494187 0.040970
vt 0.494187 0.037155
vt 0.498001 0.037155
vt 0.494187 0.040970
vt 0.494187 0.037155
vt 0.498001 0.037155
vt 0.494187 0.040970
vt 0.494187 0.037155
vt 0.498001 0.037155
vt 0.494187 0.040970
vt 0.494187 0.037155
vt 0.498001 0.037155
vt 0.494187 0.040970
vt 0.494187 0.037155
vt 0.498001 0.037155
vt 0.494187 0.040970
vt 0.494187 0.037155
vt 0.498001 0.037155
vt 0.494187 0.040970
vt 0.494187 0.037155
vt 0.494187 0.040970
vt 0.494187 0.037155
vt 0.498001 0.037155
vt 0.494187 0.040970
vt 0.494187 0.037155
vt 0.498001 0.037155
vt 0.494187 0.040970
vt 0.494187 0.037155
vt 0.498001 0.040970
vt 0.494187 0.040970
vt 0.498001 0.037155
vt 0.494187 0.040970
vt 0.494187 0.037155
vt 0.494187 0.040970
vt 0.494187 0.037155
vt 0.494187 0.037155
vt 0.498001 0.040970
vt 0.494187 0.040970
vt 0.494187 0.040970
vt 0.494187 0.037155
vt 0.494187 0.037155
vt 0.498001 0.040970
vt 0.494187 0.040970
vt 0.494187 0.040970
vt 0.494187 0.037155
vt 0.494187 0.040970
vt 0.494187 0.037155
vt 0.494187 0.037155
vt 0.498001 0.040970
vt 0.494187 0.040970
vt 0.494187 0.037155
vt 0.498001 0.040970
vt 0.494187 0.040970
vt 0.043621 0.068520
vt 0.042316 0.068520
vt 0.041091 0.070644
vt 0.498001 0.037155
vt 0.494187 0.040970
vt 0.494187 0.037155
vt 0.498001 0.037155
vt 0.494187 0.040970
vt 0.494187 0.037155
vt 0.498001 0.037155
vt 0.494187 0.040970
vt 0.494187 0.037155
vt 0.498001 0.037155
vt 0.494187 0.040970
vt 0.494187 0.037155
vt 0.498001 0.037155
vt 0.494187 0.040970
vt 0.494187 0.037155
vt 0.498001 0.037155
vt 0.494187 0.040970
vt 0.494187 0.037155
vt 0.498001 0.037155
vt 0.494187 0.040970
vt 0.494187 0.037155
vt 0.498001 0.037155
vt 0.494187 0.040970
vt 0.498001 0.040970
vt 0.494187 0.040970
vt 0.498001 0.040970
vt 0.494187 0.040970
vt 0.498001 0.037155
vt 0.494187 0.040970
vt 0.498001 0.037155
vt 0.494187 0.040970
vt 0.498001 0.037155
vt 0.494187 0.040970
vt 0.498001 0.040970
vt 0.494187 0.040970
vt 0.498001 0.037155
vt 0.494187 0.040970
vt 0.044620 0.069359
vt 0.041317 0.069359
vt 0.041091 0.070644
vt 0.498001 0.037155
vt 0.494187 0.040970
vt 0.494187 0.037155
vt 0.498001 0.037155
vt 0.494187 0.040970
vt 0.494187 0.037155
vt 0.498001 0.037155
vt 0.494187 0.040970
vt 0.494187 0.037155
vt 0.498001 0.037155
vt 0.494187 0.040970
vt 0.494187 0.037155
vt 0.498001 0.037155
vt 0.494187 0.040970
vt 0.494187 0.037155
vt 0.498001 0.037155
vt 0.494187 0.040970
vt 0.494187 0.037155
vt 0.498001 0.037155
vt 0.494187 0.040970
vt 0.494187 0.037155
vt 0.498001 0.037155
vt 0.494187 0.040970
vt 0.494187 0.037155
vt 0.498001 0.040970
vt 0.498001 0.040970
vt 0.498001 0.040970
vt 0.498001 0.040970
vt 0.498001 0.040970
vt 0.498001 0.040970
vt 0.498001 0.040970
vt 0.498001 0.040970
vt 0.498001 0.040970
vt 0.498001 0.040970
vt 0.498001 0.037155
vt 0.498001 0.040970
vt 0.498001 0.040970
vt 0.498001 0.040970
vt 0.498001 0.040970
vt 0.498001 0.040970
vt 0.041743 0.071773
vt 0.042969 0.072220
vt 0.044620 0.069359
vt 0.044195 0.071773
vt 0.044847 0.070644
vt 0.041317 0.069359
vt 0.498001 0.040970
vt 0.498001 0.040970
vt 0.498001 0.040970
vt 0.498001 0.040970
vt 0.498001 0.040970
vt 0.498001 0.040970
vt 0.498001 0.040970
vt 0.498001 0.040970
vt 0.498001 0.037155
vt 0.498001 0.037155
vt 0.498001 0.040970
vt 0.498001 0.040970
vt 0.498001 0.040970
vt 0.498001 0.037155
vt 0.498001 0.040970
vt 0.041743 0.071773
vt 0.042969 0.072220
vt 0.044195 0.071773
vt 0.044847 0.070644
vt 0.043621 0.068520
vt 0.042316 0.068520
vt 0.498001 0.040970
vt 0.498001 0.040970
vt 0.498001 0.040970
vt 0.498001 0.040970
vt 0.498001 0.040970
vt 0.498001 0.040970
vt 0.498001 0.040970
vt 0.498001 0.040970
vn 0.346700 0.938000 0.000000
vn 0.869300 0.494300 0.000000
vn 0.985300 -0.171100 -0.000000
vn 0.648600 -0.761200 0.000000
vn -0.000000 -1.000000 0.000000
vn -0.648600 -0.761200 0.000000
vn -0.985300 -0.171100 0.000000
vn -0.000000 0.000000 1.000000
vn -0.346700 0.938000 0.000000
vn -0.869300 0.494300 0.000000
vn 0.000000 0.000000 -1.000000
vn 0.000000 1.000000 0.000000
vn -0.869300 -0.494300 0.000000
vn 0.346700 -0.938000 0.000000
vn 0.648600 0.761200 0.000000
vn -0.985300 0.171100 0.000000
vn 0.985300 0.171100 0.000000
vn 0.869300 -0.494300 0.000000
vn -0.648600 0.761200 0.000000
vn -0.346700 -0.938000 0.000000
s off
f 2/1/1 3/2/1 1/3/1
f 4/4/2 5/5/2 3/6/2
f 6/7/3 7/8/3 5/9/3
f 8/10/4 9/11/4 7/12/4
f 10/13/5 11/14/5 9/15/5
f 12/16/6 13/17/6 11/18/6
f 14/19/7 15/20/7 13/21/7
f 10/13/8 24/22/8 12/23/8
f 18/24/9 1/25/9 17/26/9
f 16/27/10 17/28/10 15/29/10
f 5/9/11 40/30/11 39/31/11
f 23/32/12 33/33/12 24/34/12
f 8/10/8 23/35/8 10/36/8
f 4/37/8 20/38/8 19/39/8
f 6/7/8 22/40/8 8/41/8
f 6/42/8 19/43/8 21/44/8
f 18/24/8 20/45/8 2/46/8
f 16/27/8 27/47/8 18/48/8
f 16/49/8 25/50/8 26/51/8
f 14/52/8 24/53/8 25/54/8
f 34/55/8 33/56/8 31/57/8
f 19/58/13 30/59/13 21/60/13
f 27/61/14 29/62/14 20/63/14
f 24/64/15 34/65/15 25/66/15
f 21/67/16 31/68/16 22/69/16
f 25/70/17 35/71/17 26/72/17
f 26/73/18 36/74/18 27/75/18
f 40/76/16 48/77/16 39/78/16
f 5/79/11 38/80/11 3/6/11
f 17/26/11 37/81/11 45/82/11
f 15/29/11 45/83/11 44/84/11
f 15/85/11 43/86/11 13/21/11
f 13/87/11 42/88/11 11/18/11
f 11/89/11 41/90/11 9/15/11
f 7/12/11 41/91/11 40/92/11
f 3/93/11 37/94/11 1/3/11
f 49/95/11 52/96/11 53/97/11
f 44/98/17 52/99/17 43/100/17
f 41/101/19 49/102/19 40/103/19
f 38/104/20 46/105/20 37/106/20
f 45/107/18 53/108/18 44/109/18
f 42/110/12 50/111/12 41/112/12
f 39/113/13 47/114/13 38/115/13
f 37/116/14 54/117/14 45/118/14
f 43/119/15 51/120/15 42/121/15
f 2/1/1 4/122/1 3/2/1
f 4/4/2 6/123/2 5/5/2
f 6/7/3 8/124/3 7/8/3
f 8/10/4 10/125/4 9/11/4
f 10/13/5 12/126/5 11/14/5
f 12/16/6 14/127/6 13/17/6
f 14/19/7 16/128/7 15/20/7
f 10/13/8 23/129/8 24/22/8
f 18/24/9 2/130/9 1/25/9
f 16/27/10 18/131/10 17/28/10
f 5/9/11 7/132/11 40/30/11
f 23/32/12 32/133/12 33/33/12
f 8/10/8 22/134/8 23/35/8
f 4/37/8 2/1/8 20/38/8
f 6/7/8 21/135/8 22/40/8
f 6/42/8 4/4/8 19/43/8
f 18/24/8 27/136/8 20/45/8
f 16/27/8 26/137/8 27/47/8
f 16/49/8 14/19/8 25/50/8
f 14/52/8 12/16/8 24/53/8
f 30/138/8 28/139/8 35/140/8
f 29/141/8 36/142/8 28/139/8
f 35/140/8 34/55/8 31/57/8
f 33/56/8 32/143/8 31/57/8
f 31/57/8 30/138/8 35/140/8
f 36/142/8 35/140/8 28/139/8
f 19/58/13 28/144/13 30/59/13
f 27/61/14 36/145/14 29/62/14
f 24/64/15 33/146/15 34/65/15
f 21/67/16 30/147/16 31/68/16
f 25/70/17 34/148/17 35/71/17
f 26/73/18 35/149/18 36/74/18
f 40/76/16 49/150/16 48/77/16
f 5/79/11 39/151/11 38/80/11
f 17/26/11 1/152/11 37/81/11
f 15/29/11 17/153/11 45/83/11
f 15/85/11 44/154/11 43/86/11
f 13/87/11 43/155/11 42/88/11
f 11/89/11 42/156/11 41/90/11
f 7/12/11 9/157/11 41/91/11
f 3/93/11 38/158/11 37/94/11
f 54/159/11 46/160/11 47/161/11
f 47/161/11 48/162/11 53/97/11
f 49/95/11 50/163/11 51/164/11
f 51/164/11 52/96/11 49/95/11
f 53/97/11 54/159/11 47/161/11
f 48/162/11 49/95/11 53/97/11
f 44/98/17 53/165/17 52/99/17
f 41/101/19 50/166/19 49/102/19
f 38/104/20 47/167/20 46/105/20
f 45/107/18 54/168/18 53/108/18
f 42/110/12 51/169/12 50/111/12
f 39/113/13 48/170/13 47/114/13
f 37/116/14 46/171/14 54/117/14
f 43/119/15 52/172/15 51/120/15
